<?xml version="1.0" encoding="UTF-8" standalone="no"?>
<svg width="447px" height="30px" viewBox="0 0 447 30" version="1.1" xmlns="http://www.w3.org/2000/svg" xmlns:xlink="http://www.w3.org/1999/xlink" xmlns:sketch="http://www.bohemiancoding.com/sketch/ns">
    <!-- Generator: Sketch 3.3.1 (12002) - http://www.bohemiancoding.com/sketch -->
    <title>RATING</title>
    <desc>Created with Sketch.</desc>
    <defs></defs>
    <g id="Fishing-Report" stroke="none" stroke-width="1" fill="none" fill-rule="evenodd" sketch:type="MSPage">
        <g id="Fishing-Report-(Alert)" sketch:type="MSArtboardGroup" transform="translate(-460.000000, -406.000000)" fill="#D6D3D2">
            <g id="REPORT" sketch:type="MSLayerGroup" transform="translate(430.000000, 345.000000)">
                <g id="GLANCE" transform="translate(1.000000, 4.000000)" sketch:type="MSShapeGroup">
                    <g id="RATING" transform="translate(29.000000, 56.676960)">
                        <path d="M41.2226956,0.871144003 C41.3096932,0.749570518 41.4446509,0.596767146 41.6231074,0.713879219 C42.7908821,1.05852332 43.709933,1.90396095 44.6468296,2.64009399 C45.2223518,3.08065845 45.7577212,3.55914492 46.2629762,4.06886128 C47.4352123,5.13625418 48.5237969,6.28729855 49.696033,7.35469145 C49.866682,7.48518776 50.0272928,7.66364425 50.2492481,7.71606585 C51.1694144,7.92017546 52.1230413,7.92017546 53.0643993,7.95586676 C57.2034745,7.92463687 61.3380884,8.32616398 65.402435,9.10579578 C66.2913714,9.20617756 67.1368091,9.54189884 68.0302069,9.64562667 C69.6508149,10.0683455 71.2803457,10.4654112 72.8741853,10.9751275 C73.8512346,11.3275791 74.8784748,11.510497 75.8544087,11.8596025 C76.6953849,12.129518 77.5196309,12.4652393 78.3293772,12.808768 C79.0699716,13.1969109 79.8496034,13.5147865 80.5388916,14.0033112 C81.1177599,14.3992615 81.7892025,14.8565563 81.9542747,15.5882279 C82.1026167,15.9462562 81.784741,16.2027874 81.5627858,16.4202813 C81.1445284,16.7214266 80.6381581,16.8474615 80.1764019,17.0571479 C80.1808633,17.0917238 80.1942475,17.1619911 80.2031704,17.196567 C80.7340784,17.2791031 81.2393334,17.0738782 81.7713568,17.0571479 C82.1026167,17.1876442 82.1940756,17.6795149 81.9286216,17.9237772 C81.5929003,18.4769923 81.0006478,18.7915219 80.4429713,19.0737062 C79.7759901,19.4406574 79.0309343,19.6280367 78.315993,19.8756451 C74.0029226,21.205146 69.7155054,21.6880939 65.6210442,22.9428661 C65.3198989,23.0086719 65.1715569,23.2830488 64.9629859,23.4748895 C64.6841476,23.7448049 64.4923069,24.0849876 64.2960048,24.4151321 C63.6256776,25.3520287 62.9018134,26.2454265 62.1355659,27.1087098 C61.8132288,27.3830867 61.4462777,27.8058055 60.976714,27.6262337 C60.6231471,27.5269672 60.4703437,27.1600161 60.4357678,26.8298716 C60.4056532,25.9097053 60.3621545,24.9861929 60.4446906,24.067142 C59.3817591,24.2277528 58.323289,24.4508234 57.2425119,24.4943222 C56.4706876,24.5422824 55.7178242,24.6984318 54.9504613,24.7820833 C53.9789888,24.8902726 53.0119777,25.0910361 52.0271209,25.1044203 C50.1276746,25.0954975 48.2193055,25.2917997 46.3243206,25.0642676 C46.1759787,25.5349466 45.8536416,25.9097053 45.5658805,26.2978481 C45.1777376,26.7372972 44.9557824,27.3351265 44.4416046,27.6440793 C44.0846916,27.8180744 43.8192376,27.4656228 43.6965488,27.1778617 C43.6050898,27.0685571 43.5270151,26.7596043 43.3173287,26.8332176 C41.9800204,27.7656528 41.2093114,29.1252682 39.5708577,30.1145864 C39.3533639,30.2584669 39.0432957,30.2495441 38.8525703,30.0666262 C38.4298515,29.5658327 38.4555046,28.8731984 38.6038466,28.2675617 C38.8347247,26.5510333 38.7343429,25.7580172 39.6232793,24.3158657 C39.0834484,24.2020997 38.5302333,24.1842541 37.9803642,24.1151022 C36.4869065,23.8106108 34.9744877,23.6488846 33.4542614,23.5317725 C32.1905664,23.4180065 30.9101411,23.2484728 29.6375232,23.4269293 C29.2538417,23.4570438 28.9448889,23.6834605 28.6136291,23.8407253 C27.9990695,24.124025 27.4202013,24.4630923 26.8580633,24.837851 C26.4041146,25.1434577 25.8910522,25.3431059 25.4281807,25.6264056 C24.5883198,26.1193916 23.7116523,26.5465719 22.8361001,26.9559065 C21.982855,27.251475 21.1943004,27.7054237 20.3577856,28.0444911 C20.0042187,28.1839102 19.569231,28.1883716 19.2457786,27.9798006 C18.8197137,27.5782735 18.6925634,26.9815596 18.5007227,26.4506515 C18.2787674,25.744633 17.9430462,25.068729 17.8303955,24.332596 C17.7478594,23.5273111 17.7478594,22.7164494 17.8515872,21.9100491 C17.8828171,21.7104009 17.8214727,21.5140988 17.743398,21.3311809 C17.8828171,21.1739161 17.9698146,20.9084621 18.2441915,20.9698065 C18.8542896,20.9385766 19.4733106,20.8515791 19.9908344,20.5035889 C19.4989637,20.2771722 18.9591328,20.2202892 18.4360322,20.1065232 C17.7478594,19.9581812 17.0507637,19.8890293 16.353668,19.8187621 C15.3509656,19.7194957 14.3493786,19.8455306 13.355599,19.9760269 C12.8548054,20.058563 12.4064335,20.3162096 11.908986,20.4377831 C11.0289724,20.6552769 10.2013805,21.0300355 9.31244405,21.2397219 C8.40231594,21.4527544 7.56133972,21.8754732 6.6679419,22.1543114 C5.9619234,22.3684592 5.25255884,22.6339133 4.51531046,22.7030652 C3.50926198,22.8212926 2.50321351,22.9428661 1.49158826,23.0610935 C1.02648603,23.068901 0.568075914,23.0432479 0.106319739,23.0131333 C0.245738874,22.6684892 0.411926483,22.3238451 0.40746507,21.9457404 C0.956218785,19.9581812 1.52281815,18.2985359 2.11060922,16.3767825 C2.16303082,16.0064853 2.01022744,15.6540337 1.9756515,15.2926593 C0.912720015,12.808768 1.09563792,10.9137831 1.07444621,8.1164776 C1.13913669,7.77294885 1.62766134,7.7551032 1.90649961,7.78075633 C3.48360886,7.96032817 5.04287247,8.39531587 6.46717835,9.09687296 C7.36949899,9.49393865 8.2796271,9.89435041 9.10833444,10.4341813 C10.2281489,11.0442794 11.19516,11.9677918 12.4454708,12.3258201 C13.469365,12.5957356 14.5144508,12.8176908 15.5818437,12.8355365 C16.6893893,12.8310751 17.8047424,12.8433439 18.893327,12.6436957 C18.3055359,12.429548 17.651939,12.3693189 17.1065314,12.0514433 C16.8321545,11.8941785 16.9593048,11.4848439 17.1466841,11.3063874 C17.5337116,10.8267856 18.2051541,10.831247 18.7628307,10.7877482 C19.2591628,10.7565183 19.7343032,10.9483591 20.2094436,11.0665865 C21.1028414,11.3186563 21.9739322,11.7848739 22.9320205,11.6677618 C23.7473436,11.5372655 24.579397,11.5372655 25.4025276,11.4056538 C26.2390424,11.2706961 27.0800186,11.1926214 27.912072,11.0141649 C28.4875942,11.0141649 29.0575396,10.9483591 29.6152161,10.8178628 C30.5041525,10.6695208 31.4064732,10.6003689 32.2820254,10.3817597 C33.4587228,10.1341513 34.6655349,10.0772683 35.8455784,9.85085164 C36.5649812,9.69358686 37.310037,9.62443496 38.0160555,9.41028717 C37.3836503,9.21844644 36.725592,9.13591032 36.0898408,8.96637665 C35.6414688,8.80018904 35.1752512,8.69199979 34.7302254,8.51800471 C34.7213025,8.26928097 34.8306071,8.03840289 34.9521806,7.82871651 C35.2310189,7.49745664 35.6459302,7.31900015 35.9459602,7.01450876 C37.5844139,5.20206001 41.1089296,1.41097489 41.2182342,0.871144003 L41.2226956,0.871144003 Z" id="Fill-1"></path>
                        <path d="M132.353901,0.871144003 C132.440898,0.749570518 132.575856,0.596767146 132.754312,0.713879219 C133.922087,1.05852332 134.841138,1.90396095 135.778035,2.64009399 C136.353557,3.08065845 136.888926,3.55914492 137.394181,4.06886128 C138.566417,5.13625418 139.655002,6.28729855 140.827238,7.35469145 C140.997887,7.48518776 141.158498,7.66364425 141.380453,7.71606585 C142.300619,7.92017546 143.254246,7.92017546 144.195604,7.95586676 C148.334679,7.92463687 152.469293,8.32616398 156.53364,9.10579578 C157.422576,9.20617756 158.268014,9.54189884 159.161412,9.64562667 C160.78202,10.0683455 162.411551,10.4654112 164.00539,10.9751275 C164.98244,11.3275791 166.00968,11.510497 166.985614,11.8596025 C167.82659,12.129518 168.650836,12.4652393 169.460582,12.808768 C170.201177,13.1969109 170.980808,13.5147865 171.670097,14.0033112 C172.248965,14.3992615 172.920407,14.8565563 173.08548,15.5882279 C173.233822,15.9462562 172.915946,16.2027874 172.693991,16.4202813 C172.275733,16.7214266 171.769363,16.8474615 171.307607,17.0571479 C171.312068,17.0917238 171.325453,17.1619911 171.334375,17.196567 C171.865283,17.2791031 172.370538,17.0738782 172.902562,17.0571479 C173.233822,17.1876442 173.325281,17.6795149 173.059827,17.9237772 C172.724105,18.4769923 172.131853,18.7915219 171.574176,19.0737062 C170.907195,19.4406574 170.162139,19.6280367 169.447198,19.8756451 C165.134128,21.205146 160.84671,21.6880939 156.752249,22.9428661 C156.451104,23.0086719 156.302762,23.2830488 156.094191,23.4748895 C155.815353,23.7448049 155.623512,24.0849876 155.42721,24.4151321 C154.756883,25.3520287 154.033018,26.2454265 153.266771,27.1087098 C152.944434,27.3830867 152.577483,27.8058055 152.107919,27.6262337 C151.754352,27.5269672 151.601549,27.1600161 151.566973,26.8298716 C151.536858,25.9097053 151.493359,24.9861929 151.575896,24.067142 C150.512964,24.2277528 149.454494,24.4508234 148.373717,24.4943222 C147.601893,24.5422824 146.849029,24.6984318 146.081666,24.7820833 C145.110194,24.8902726 144.143183,25.0910361 143.158326,25.1044203 C141.25888,25.0954975 139.35051,25.2917997 137.455526,25.0642676 C137.307184,25.5349466 136.984847,25.9097053 136.697085,26.2978481 C136.308943,26.7372972 136.086987,27.3351265 135.57281,27.6440793 C135.215897,27.8180744 134.950443,27.4656228 134.827754,27.1778617 C134.736295,27.0685571 134.65822,26.7596043 134.448534,26.8332176 C133.111225,27.7656528 132.340516,29.1252682 130.702063,30.1145864 C130.484569,30.2584669 130.174501,30.2495441 129.983775,30.0666262 C129.561056,29.5658327 129.58671,28.8731984 129.735052,28.2675617 C129.96593,26.5510333 129.865548,25.7580172 130.754484,24.3158657 C130.214653,24.2020997 129.661438,24.1842541 129.111569,24.1151022 C127.618111,23.8106108 126.105693,23.6488846 124.585466,23.5317725 C123.321771,23.4180065 122.041346,23.2484728 120.768728,23.4269293 C120.385047,23.4570438 120.076094,23.6834605 119.744834,23.8407253 C119.130274,24.124025 118.551406,24.4630923 117.989268,24.837851 C117.53532,25.1434577 117.022257,25.3431059 116.559386,25.6264056 C115.719525,26.1193916 114.842857,26.5465719 113.967305,26.9559065 C113.11406,27.251475 112.325505,27.7054237 111.488991,28.0444911 C111.135424,28.1839102 110.700436,28.1883716 110.376984,27.9798006 C109.950919,27.5782735 109.823768,26.9815596 109.631928,26.4506515 C109.409972,25.744633 109.074251,25.068729 108.9616,24.332596 C108.879064,23.5273111 108.879064,22.7164494 108.982792,21.9100491 C109.014022,21.7104009 108.952678,21.5140988 108.874603,21.3311809 C109.014022,21.1739161 109.10102,20.9084621 109.375396,20.9698065 C109.985495,20.9385766 110.604516,20.8515791 111.122039,20.5035889 C110.630169,20.2771722 110.090338,20.2202892 109.567237,20.1065232 C108.879064,19.9581812 108.181969,19.8890293 107.484873,19.8187621 C106.482171,19.7194957 105.480584,19.8455306 104.486804,19.9760269 C103.98601,20.058563 103.537638,20.3162096 103.040191,20.4377831 C102.160177,20.6552769 101.332585,21.0300355 100.443649,21.2397219 C99.5335209,21.4527544 98.6925447,21.8754732 97.7991469,22.1543114 C97.0931284,22.3684592 96.3837638,22.6339133 95.6465154,22.7030652 C94.6404669,22.8212926 93.6344185,22.9428661 92.6227932,23.0610935 C92.157691,23.068901 91.6992809,23.0432479 91.2375247,23.0131333 C91.3769438,22.6684892 91.5431314,22.3238451 91.53867,21.9457404 C92.0874237,19.9581812 92.6540231,18.2985359 93.2418142,16.3767825 C93.2942358,16.0064853 93.1414324,15.6540337 93.1068565,15.2926593 C92.043925,12.808768 92.2268429,10.9137831 92.2056512,8.1164776 C92.2703416,7.77294885 92.7588663,7.7551032 93.0377046,7.78075633 C94.6148138,7.96032817 96.1740774,8.39531587 97.5983833,9.09687296 C98.5007039,9.49393865 99.4108321,9.89435041 100.239539,10.4341813 C101.359354,11.0442794 102.326365,11.9677918 103.576676,12.3258201 C104.60057,12.5957356 105.645656,12.8176908 106.713049,12.8355365 C107.820594,12.8310751 108.935947,12.8433439 110.024532,12.6436957 C109.436741,12.429548 108.783144,12.3693189 108.237736,12.0514433 C107.963359,11.8941785 108.09051,11.4848439 108.277889,11.3063874 C108.664917,10.8267856 109.336359,10.831247 109.894036,10.7877482 C110.390368,10.7565183 110.865508,10.9483591 111.340649,11.0665865 C112.234046,11.3186563 113.105137,11.7848739 114.063225,11.6677618 C114.878549,11.5372655 115.710602,11.5372655 116.533733,11.4056538 C117.370247,11.2706961 118.211224,11.1926214 119.043277,11.0141649 C119.618799,11.0141649 120.188745,10.9483591 120.746421,10.8178628 C121.635358,10.6695208 122.537678,10.6003689 123.41323,10.3817597 C124.589928,10.1341513 125.79674,10.0772683 126.976783,9.85085164 C127.696186,9.69358686 128.441242,9.62443496 129.14726,9.41028717 C128.514855,9.21844644 127.856797,9.13591032 127.221046,8.96637665 C126.772674,8.80018904 126.306456,8.69199979 125.86143,8.51800471 C125.852507,8.26928097 125.961812,8.03840289 126.083386,7.82871651 C126.362224,7.49745664 126.777135,7.31900015 127.077165,7.01450876 C128.715619,5.20206001 132.240135,1.41097489 132.349439,0.871144003 L132.353901,0.871144003 Z" id="Fill-1-Copy"></path>
                        <path d="M223.485106,0.871144003 C223.572103,0.749570518 223.707061,0.596767146 223.885517,0.713879219 C225.053292,1.05852332 225.972343,1.90396095 226.90924,2.64009399 C227.484762,3.08065845 228.020131,3.55914492 228.525386,4.06886128 C229.697622,5.13625418 230.786207,6.28729855 231.958443,7.35469145 C232.129092,7.48518776 232.289703,7.66364425 232.511658,7.71606585 C233.431824,7.92017546 234.385451,7.92017546 235.326809,7.95586676 C239.465884,7.92463687 243.600498,8.32616398 247.664845,9.10579578 C248.553781,9.20617756 249.399219,9.54189884 250.292617,9.64562667 C251.913225,10.0683455 253.542756,10.4654112 255.136595,10.9751275 C256.113645,11.3275791 257.140885,11.510497 258.116819,11.8596025 C258.957795,12.129518 259.782041,12.4652393 260.591787,12.808768 C261.332382,13.1969109 262.112013,13.5147865 262.801302,14.0033112 C263.38017,14.3992615 264.051612,14.8565563 264.216685,15.5882279 C264.365027,15.9462562 264.047151,16.2027874 263.825196,16.4202813 C263.406938,16.7214266 262.900568,16.8474615 262.438812,17.0571479 C262.443273,17.0917238 262.456657,17.1619911 262.46558,17.196567 C262.996488,17.2791031 263.501743,17.0738782 264.033767,17.0571479 C264.365027,17.1876442 264.456486,17.6795149 264.191032,17.9237772 C263.85531,18.4769923 263.263058,18.7915219 262.705381,19.0737062 C262.0384,19.4406574 261.293344,19.6280367 260.578403,19.8756451 C256.265333,21.205146 251.977915,21.6880939 247.883454,22.9428661 C247.582309,23.0086719 247.433967,23.2830488 247.225396,23.4748895 C246.946558,23.7448049 246.754717,24.0849876 246.558415,24.4151321 C245.888087,25.3520287 245.164223,26.2454265 244.397976,27.1087098 C244.075639,27.3830867 243.708688,27.8058055 243.239124,27.6262337 C242.885557,27.5269672 242.732754,27.1600161 242.698178,26.8298716 C242.668063,25.9097053 242.624564,24.9861929 242.707101,24.067142 C241.644169,24.2277528 240.585699,24.4508234 239.504922,24.4943222 C238.733097,24.5422824 237.980234,24.6984318 237.212871,24.7820833 C236.241399,24.8902726 235.274388,25.0910361 234.289531,25.1044203 C232.390085,25.0954975 230.481715,25.2917997 228.586731,25.0642676 C228.438389,25.5349466 228.116052,25.9097053 227.82829,26.2978481 C227.440148,26.7372972 227.218192,27.3351265 226.704015,27.6440793 C226.347102,27.8180744 226.081648,27.4656228 225.958959,27.1778617 C225.8675,27.0685571 225.789425,26.7596043 225.579739,26.8332176 C224.24243,27.7656528 223.471721,29.1252682 221.833268,30.1145864 C221.615774,30.2584669 221.305706,30.2495441 221.11498,30.0666262 C220.692261,29.5658327 220.717915,28.8731984 220.866257,28.2675617 C221.097135,26.5510333 220.996753,25.7580172 221.885689,24.3158657 C221.345858,24.2020997 220.792643,24.1842541 220.242774,24.1151022 C218.749316,23.8106108 217.236898,23.6488846 215.716671,23.5317725 C214.452976,23.4180065 213.172551,23.2484728 211.899933,23.4269293 C211.516252,23.4570438 211.207299,23.6834605 210.876039,23.8407253 C210.261479,24.124025 209.682611,24.4630923 209.120473,24.837851 C208.666525,25.1434577 208.153462,25.3431059 207.690591,25.6264056 C206.85073,26.1193916 205.974062,26.5465719 205.09851,26.9559065 C204.245265,27.251475 203.45671,27.7054237 202.620196,28.0444911 C202.266629,28.1839102 201.831641,28.1883716 201.508188,27.9798006 C201.082124,27.5782735 200.954973,26.9815596 200.763133,26.4506515 C200.541177,25.744633 200.205456,25.068729 200.092805,24.332596 C200.010269,23.5273111 200.010269,22.7164494 200.113997,21.9100491 C200.145227,21.7104009 200.083883,21.5140988 200.005808,21.3311809 C200.145227,21.1739161 200.232225,20.9084621 200.506601,20.9698065 C201.1167,20.9385766 201.735721,20.8515791 202.253244,20.5035889 C201.761374,20.2771722 201.221543,20.2202892 200.698442,20.1065232 C200.010269,19.9581812 199.313174,19.8890293 198.616078,19.8187621 C197.613376,19.7194957 196.611788,19.8455306 195.618009,19.9760269 C195.117215,20.058563 194.668843,20.3162096 194.171396,20.4377831 C193.291382,20.6552769 192.46379,21.0300355 191.574854,21.2397219 C190.664726,21.4527544 189.82375,21.8754732 188.930352,22.1543114 C188.224333,22.3684592 187.514969,22.6339133 186.77772,22.7030652 C185.771672,22.8212926 184.765623,22.9428661 183.753998,23.0610935 C183.288896,23.068901 182.830486,23.0432479 182.36873,23.0131333 C182.508149,22.6684892 182.674336,22.3238451 182.669875,21.9457404 C183.218629,19.9581812 183.785228,18.2985359 184.373019,16.3767825 C184.425441,16.0064853 184.272637,15.6540337 184.238061,15.2926593 C183.17513,12.808768 183.358048,10.9137831 183.336856,8.1164776 C183.401547,7.77294885 183.890071,7.7551032 184.16891,7.78075633 C185.746019,7.96032817 187.305282,8.39531587 188.729588,9.09687296 C189.631909,9.49393865 190.542037,9.89435041 191.370744,10.4341813 C192.490559,11.0442794 193.45757,11.9677918 194.707881,12.3258201 C195.731775,12.5957356 196.776861,12.8176908 197.844254,12.8355365 C198.951799,12.8310751 200.067152,12.8433439 201.155737,12.6436957 C200.567946,12.429548 199.914349,12.3693189 199.368941,12.0514433 C199.094564,11.8941785 199.221715,11.4848439 199.409094,11.3063874 C199.796122,10.8267856 200.467564,10.831247 201.025241,10.7877482 C201.521573,10.7565183 201.996713,10.9483591 202.471854,11.0665865 C203.365251,11.3186563 204.236342,11.7848739 205.19443,11.6677618 C206.009754,11.5372655 206.841807,11.5372655 207.664937,11.4056538 C208.501452,11.2706961 209.342429,11.1926214 210.174482,11.0141649 C210.750004,11.0141649 211.31995,10.9483591 211.877626,10.8178628 C212.766562,10.6695208 213.668883,10.6003689 214.544435,10.3817597 C215.721133,10.1341513 216.927945,10.0772683 218.107988,9.85085164 C218.827391,9.69358686 219.572447,9.62443496 220.278465,9.41028717 C219.64606,9.21844644 218.988002,9.13591032 218.352251,8.96637665 C217.903879,8.80018904 217.437661,8.69199979 216.992635,8.51800471 C216.983712,8.26928097 217.093017,8.03840289 217.214591,7.82871651 C217.493429,7.49745664 217.90834,7.31900015 218.20837,7.01450876 C219.846824,5.20206001 223.37134,1.41097489 223.480644,0.871144003 L223.485106,0.871144003 Z" id="Fill-1-Copy-2"></path>
                        <path d="M314.616311,0.871144003 C314.703308,0.749570518 314.838266,0.596767146 315.016722,0.713879219 C316.184497,1.05852332 317.103548,1.90396095 318.040444,2.64009399 C318.615967,3.08065845 319.151336,3.55914492 319.656591,4.06886128 C320.828827,5.13625418 321.917412,6.28729855 323.089648,7.35469145 C323.260297,7.48518776 323.420908,7.66364425 323.642863,7.71606585 C324.563029,7.92017546 325.516656,7.92017546 326.458014,7.95586676 C330.597089,7.92463687 334.731703,8.32616398 338.79605,9.10579578 C339.684986,9.20617756 340.530424,9.54189884 341.423822,9.64562667 C343.04443,10.0683455 344.673961,10.4654112 346.2678,10.9751275 C347.244849,11.3275791 348.27209,11.510497 349.248024,11.8596025 C350.089,12.129518 350.913246,12.4652393 351.722992,12.808768 C352.463587,13.1969109 353.243218,13.5147865 353.932507,14.0033112 C354.511375,14.3992615 355.182817,14.8565563 355.34789,15.5882279 C355.496232,15.9462562 355.178356,16.2027874 354.956401,16.4202813 C354.538143,16.7214266 354.031773,16.8474615 353.570017,17.0571479 C353.574478,17.0917238 353.587862,17.1619911 353.596785,17.196567 C354.127693,17.2791031 354.632948,17.0738782 355.164972,17.0571479 C355.496232,17.1876442 355.58769,17.6795149 355.322236,17.9237772 C354.986515,18.4769923 354.394263,18.7915219 353.836586,19.0737062 C353.169605,19.4406574 352.424549,19.6280367 351.709608,19.8756451 C347.396537,21.205146 343.10912,21.6880939 339.014659,22.9428661 C338.713514,23.0086719 338.565172,23.2830488 338.356601,23.4748895 C338.077763,23.7448049 337.885922,24.0849876 337.68962,24.4151321 C337.019292,25.3520287 336.295428,26.2454265 335.529181,27.1087098 C335.206844,27.3830867 334.839893,27.8058055 334.370329,27.6262337 C334.016762,27.5269672 333.863959,27.1600161 333.829383,26.8298716 C333.799268,25.9097053 333.755769,24.9861929 333.838305,24.067142 C332.775374,24.2277528 331.716904,24.4508234 330.636127,24.4943222 C329.864302,24.5422824 329.111439,24.6984318 328.344076,24.7820833 C327.372604,24.8902726 326.405593,25.0910361 325.420736,25.1044203 C323.521289,25.0954975 321.61292,25.2917997 319.717935,25.0642676 C319.569594,25.5349466 319.247256,25.9097053 318.959495,26.2978481 C318.571353,26.7372972 318.349397,27.3351265 317.835219,27.6440793 C317.478307,27.8180744 317.212852,27.4656228 317.090164,27.1778617 C316.998705,27.0685571 316.92063,26.7596043 316.710944,26.8332176 C315.373635,27.7656528 314.602926,29.1252682 312.964473,30.1145864 C312.746979,30.2584669 312.436911,30.2495441 312.246185,30.0666262 C311.823466,29.5658327 311.84912,28.8731984 311.997461,28.2675617 C312.22834,26.5510333 312.127958,25.7580172 313.016894,24.3158657 C312.477063,24.2020997 311.923848,24.1842541 311.373979,24.1151022 C309.880521,23.8106108 308.368103,23.6488846 306.847876,23.5317725 C305.584181,23.4180065 304.303756,23.2484728 303.031138,23.4269293 C302.647457,23.4570438 302.338504,23.6834605 302.007244,23.8407253 C301.392684,24.124025 300.813816,24.4630923 300.251678,24.837851 C299.79773,25.1434577 299.284667,25.3431059 298.821796,25.6264056 C297.981935,26.1193916 297.105267,26.5465719 296.229715,26.9559065 C295.37647,27.251475 294.587915,27.7054237 293.7514,28.0444911 C293.397834,28.1839102 292.962846,28.1883716 292.639393,27.9798006 C292.213329,27.5782735 292.086178,26.9815596 291.894338,26.4506515 C291.672382,25.744633 291.336661,25.068729 291.22401,24.332596 C291.141474,23.5273111 291.141474,22.7164494 291.245202,21.9100491 C291.276432,21.7104009 291.215088,21.5140988 291.137013,21.3311809 C291.276432,21.1739161 291.36343,20.9084621 291.637806,20.9698065 C292.247905,20.9385766 292.866925,20.8515791 293.384449,20.5035889 C292.892579,20.2771722 292.352748,20.2202892 291.829647,20.1065232 C291.141474,19.9581812 290.444379,19.8890293 289.747283,19.8187621 C288.74458,19.7194957 287.742993,19.8455306 286.749214,19.9760269 C286.24842,20.058563 285.800048,20.3162096 285.302601,20.4377831 C284.422587,20.6552769 283.594995,21.0300355 282.706059,21.2397219 C281.795931,21.4527544 280.954955,21.8754732 280.061557,22.1543114 C279.355538,22.3684592 278.646174,22.6339133 277.908925,22.7030652 C276.902877,22.8212926 275.896828,22.9428661 274.885203,23.0610935 C274.420101,23.068901 273.961691,23.0432479 273.499935,23.0131333 C273.639354,22.6684892 273.805541,22.3238451 273.80108,21.9457404 C274.349834,19.9581812 274.916433,18.2985359 275.504224,16.3767825 C275.556646,16.0064853 275.403842,15.6540337 275.369266,15.2926593 C274.306335,12.808768 274.489253,10.9137831 274.468061,8.1164776 C274.532752,7.77294885 275.021276,7.7551032 275.300114,7.78075633 C276.877224,7.96032817 278.436487,8.39531587 279.860793,9.09687296 C280.763114,9.49393865 281.673242,9.89435041 282.501949,10.4341813 C283.621764,11.0442794 284.588775,11.9677918 285.839086,12.3258201 C286.86298,12.5957356 287.908066,12.8176908 288.975459,12.8355365 C290.083004,12.8310751 291.198357,12.8433439 292.286942,12.6436957 C291.699151,12.429548 291.045554,12.3693189 290.500146,12.0514433 C290.225769,11.8941785 290.35292,11.4848439 290.540299,11.3063874 C290.927326,10.8267856 291.598769,10.831247 292.156446,10.7877482 C292.652778,10.7565183 293.127918,10.9483591 293.603059,11.0665865 C294.496456,11.3186563 295.367547,11.7848739 296.325635,11.6677618 C297.140958,11.5372655 297.973012,11.5372655 298.796142,11.4056538 C299.632657,11.2706961 300.473633,11.1926214 301.305687,11.0141649 C301.881209,11.0141649 302.451154,10.9483591 303.008831,10.8178628 C303.897767,10.6695208 304.800088,10.6003689 305.67564,10.3817597 C306.852338,10.1341513 308.05915,10.0772683 309.239193,9.85085164 C309.958596,9.69358686 310.703652,9.62443496 311.40967,9.41028717 C310.777265,9.21844644 310.119207,9.13591032 309.483456,8.96637665 C309.035084,8.80018904 308.568866,8.69199979 308.12384,8.51800471 C308.114917,8.26928097 308.224222,8.03840289 308.345796,7.82871651 C308.624634,7.49745664 309.039545,7.31900015 309.339575,7.01450876 C310.978029,5.20206001 314.502544,1.41097489 314.611849,0.871144003 L314.616311,0.871144003 Z" id="Fill-1-Copy-3"></path>
                        <path d="M405.747515,0.871144003 C405.834513,0.749570518 405.969471,0.596767146 406.147927,0.713879219 C407.315702,1.05852332 408.234753,1.90396095 409.171649,2.64009399 C409.747172,3.08065845 410.282541,3.55914492 410.787796,4.06886128 C411.960032,5.13625418 413.048617,6.28729855 414.220853,7.35469145 C414.391502,7.48518776 414.552113,7.66364425 414.774068,7.71606585 C415.694234,7.92017546 416.647861,7.92017546 417.589219,7.95586676 C421.728294,7.92463687 425.862908,8.32616398 429.927255,9.10579578 C430.816191,9.20617756 431.661629,9.54189884 432.555027,9.64562667 C434.175635,10.0683455 435.805166,10.4654112 437.399005,10.9751275 C438.376054,11.3275791 439.403295,11.510497 440.379229,11.8596025 C441.220205,12.129518 442.044451,12.4652393 442.854197,12.808768 C443.594791,13.1969109 444.374423,13.5147865 445.063711,14.0033112 C445.64258,14.3992615 446.314022,14.8565563 446.479095,15.5882279 C446.627437,15.9462562 446.309561,16.2027874 446.087606,16.4202813 C445.669348,16.7214266 445.162978,16.8474615 444.701222,17.0571479 C444.705683,17.0917238 444.719067,17.1619911 444.72799,17.196567 C445.258898,17.2791031 445.764153,17.0738782 446.296177,17.0571479 C446.627437,17.1876442 446.718895,17.6795149 446.453441,17.9237772 C446.11772,18.4769923 445.525468,18.7915219 444.967791,19.0737062 C444.30081,19.4406574 443.555754,19.6280367 442.840813,19.8756451 C438.527742,21.205146 434.240325,21.6880939 430.145864,22.9428661 C429.844719,23.0086719 429.696377,23.2830488 429.487806,23.4748895 C429.208967,23.7448049 429.017127,24.0849876 428.820825,24.4151321 C428.150497,25.3520287 427.426633,26.2454265 426.660386,27.1087098 C426.338049,27.3830867 425.971097,27.8058055 425.501534,27.6262337 C425.147967,27.5269672 424.995164,27.1600161 424.960588,26.8298716 C424.930473,25.9097053 424.886974,24.9861929 424.96951,24.067142 C423.906579,24.2277528 422.848109,24.4508234 421.767332,24.4943222 C420.995507,24.5422824 420.242644,24.6984318 419.475281,24.7820833 C418.503809,24.8902726 417.536798,25.0910361 416.551941,25.1044203 C414.652494,25.0954975 412.744125,25.2917997 410.84914,25.0642676 C410.700798,25.5349466 410.378461,25.9097053 410.0907,26.2978481 C409.702557,26.7372972 409.480602,27.3351265 408.966424,27.6440793 C408.609511,27.8180744 408.344057,27.4656228 408.221369,27.1778617 C408.12991,27.0685571 408.051835,26.7596043 407.842149,26.8332176 C406.50484,27.7656528 405.734131,29.1252682 404.095678,30.1145864 C403.878184,30.2584669 403.568116,30.2495441 403.37739,30.0666262 C402.954671,29.5658327 402.980324,28.8731984 403.128666,28.2675617 C403.359545,26.5510333 403.259163,25.7580172 404.148099,24.3158657 C403.608268,24.2020997 403.055053,24.1842541 402.505184,24.1151022 C401.011726,23.8106108 399.499308,23.6488846 397.979081,23.5317725 C396.715386,23.4180065 395.434961,23.2484728 394.162343,23.4269293 C393.778662,23.4570438 393.469709,23.6834605 393.138449,23.8407253 C392.523889,24.124025 391.945021,24.4630923 391.382883,24.837851 C390.928934,25.1434577 390.415872,25.3431059 389.953001,25.6264056 C389.11314,26.1193916 388.236472,26.5465719 387.36092,26.9559065 C386.507675,27.251475 385.71912,27.7054237 384.882605,28.0444911 C384.529039,28.1839102 384.094051,28.1883716 383.770598,27.9798006 C383.344534,27.5782735 383.217383,26.9815596 383.025543,26.4506515 C382.803587,25.744633 382.467866,25.068729 382.355215,24.332596 C382.272679,23.5273111 382.272679,22.7164494 382.376407,21.9100491 C382.407637,21.7104009 382.346293,21.5140988 382.268218,21.3311809 C382.407637,21.1739161 382.494634,20.9084621 382.769011,20.9698065 C383.379109,20.9385766 383.99813,20.8515791 384.515654,20.5035889 C384.023784,20.2771722 383.483953,20.2202892 382.960852,20.1065232 C382.272679,19.9581812 381.575584,19.8890293 380.878488,19.8187621 C379.875785,19.7194957 378.874198,19.8455306 377.880419,19.9760269 C377.379625,20.058563 376.931253,20.3162096 376.433806,20.4377831 C375.553792,20.6552769 374.7262,21.0300355 373.837264,21.2397219 C372.927136,21.4527544 372.08616,21.8754732 371.192762,22.1543114 C370.486743,22.3684592 369.777379,22.6339133 369.04013,22.7030652 C368.034082,22.8212926 367.028033,22.9428661 366.016408,23.0610935 C365.551306,23.068901 365.092896,23.0432479 364.63114,23.0131333 C364.770559,22.6684892 364.936746,22.3238451 364.932285,21.9457404 C365.481039,19.9581812 366.047638,18.2985359 366.635429,16.3767825 C366.687851,16.0064853 366.535047,15.6540337 366.500471,15.2926593 C365.43754,12.808768 365.620458,10.9137831 365.599266,8.1164776 C365.663957,7.77294885 366.152481,7.7551032 366.431319,7.78075633 C368.008429,7.96032817 369.567692,8.39531587 370.991998,9.09687296 C371.894319,9.49393865 372.804447,9.89435041 373.633154,10.4341813 C374.752969,11.0442794 375.71998,11.9677918 376.970291,12.3258201 C377.994185,12.5957356 379.039271,12.8176908 380.106664,12.8355365 C381.214209,12.8310751 382.329562,12.8433439 383.418147,12.6436957 C382.830356,12.429548 382.176759,12.3693189 381.631351,12.0514433 C381.356974,11.8941785 381.484125,11.4848439 381.671504,11.3063874 C382.058531,10.8267856 382.729974,10.831247 383.287651,10.7877482 C383.783983,10.7565183 384.259123,10.9483591 384.734263,11.0665865 C385.627661,11.3186563 386.498752,11.7848739 387.45684,11.6677618 C388.272163,11.5372655 389.104217,11.5372655 389.927347,11.4056538 C390.763862,11.2706961 391.604838,11.1926214 392.436892,11.0141649 C393.012414,11.0141649 393.582359,10.9483591 394.140036,10.8178628 C395.028972,10.6695208 395.931293,10.6003689 396.806845,10.3817597 C397.983543,10.1341513 399.190355,10.0772683 400.370398,9.85085164 C401.089801,9.69358686 401.834857,9.62443496 402.540875,9.41028717 C401.90847,9.21844644 401.250412,9.13591032 400.614661,8.96637665 C400.166289,8.80018904 399.700071,8.69199979 399.255045,8.51800471 C399.246122,8.26928097 399.355427,8.03840289 399.477,7.82871651 C399.755839,7.49745664 400.17075,7.31900015 400.47078,7.01450876 C402.109234,5.20206001 405.633749,1.41097489 405.743054,0.871144003 L405.747515,0.871144003 Z" id="Fill-1-Copy-4"></path>
                    </g>
                </g>
            </g>
        </g>
    </g>
</svg>