<svg xmlns="http://www.w3.org/2000/svg" width="447" height="30"><title>RATING</title><desc>Created with Sketch.</desc><g fill="none"><g fill="#D6D3D2"><g><g><g><path d="M41.22.55c.1-.12.22-.28.4-.16 1.17.34 2.1 1.18 3.03 1.92.57.44 1.1.92 1.6 1.43 1.2 1.06 2.27 2.2 3.45 3.28.17.13.33.3.55.36.92.2 1.87.2 2.8.23 4.15-.03 8.3.37 12.35 1.15.9.1 1.74.44 2.63.54 1.62.43 3.25.82 4.84 1.33.98.35 2 .54 2.98.9.85.26 1.67.6 2.48.94.74.37 1.52.7 2.2 1.18.6.4 1.26.85 1.42 1.6.15.34-.17.6-.4.82-.4.3-.9.42-1.37.63 0 .04 0 .1.02.14.53.1 1.04-.12 1.57-.14.33.13.42.63.16.87-.34.55-.93.87-1.5 1.15-.65.37-1.4.56-2.1.8-4.33 1.33-8.6 1.82-12.7 3.07-.3.07-.46.34-.67.53-.28.27-.47.6-.66.94-.67.93-1.4 1.82-2.16 2.7-.33.26-.7.68-1.16.5-.36-.1-.5-.46-.54-.8-.03-.9-.08-1.84 0-2.76-1.06.16-2.12.4-3.2.43-.77.05-1.52.2-2.3.3-.96.1-1.93.3-2.9.3-1.9 0-3.82.2-5.72-.03-.14.47-.47.85-.75 1.23-.4.44-.6 1.04-1.13 1.35-.36.18-.62-.18-.74-.47-.1-.1-.17-.4-.38-.34-1.34.94-2.1 2.3-3.75 3.3-.22.14-.53.13-.72-.06-.42-.5-.4-1.2-.25-1.8.23-1.7.13-2.5 1.02-3.95-.54-.12-1.1-.14-1.64-.2-1.5-.3-3-.47-4.53-.6-1.26-.1-2.54-.27-3.8-.1-.4.03-.7.26-1.04.42-.6.28-1.18.62-1.74 1-.46.3-.97.5-1.43.78-.84.5-1.72.92-2.6 1.33-.85.3-1.64.75-2.47 1.1-.36.13-.8.14-1.1-.07-.44-.4-.57-1-.76-1.53-.22-.7-.56-1.38-.67-2.12-.08-.8-.08-1.6.02-2.4.03-.2-.03-.4-.1-.6.13-.15.22-.4.5-.35.6-.03 1.22-.12 1.74-.47-.5-.23-1.04-.28-1.56-.4-.7-.14-1.4-.2-2.1-.28-1-.1-2 .02-2.98.15-.5.1-.95.34-1.45.46-.87.23-1.7.6-2.6.82-.9.2-1.74.63-2.63.9-.7.23-1.42.5-2.15.56-1 .12-2.02.24-3.03.36-.47 0-.93-.02-1.4-.05.15-.35.3-.7.3-1.08.56-1.98 1.12-3.64 1.7-5.57.06-.37-.1-.72-.12-1.08C.9 12.5 1.1 10.6 1.08 7.8c.06-.35.55-.37.83-.34 1.58.18 3.14.6 4.57 1.3.9.4 1.8.8 2.64 1.35 1.13.62 2.1 1.54 3.35 1.9 1.02.27 2.06.5 3.13.5 1.1 0 2.22.02 3.3-.18-.57-.2-1.23-.27-1.77-.6-.27-.15-.14-.56.05-.74.38-.48 1.06-.47 1.6-.52.5-.03.98.17 1.46.28.9.26 1.77.72 2.73.6.82-.13 1.65-.13 2.47-.26.84-.13 1.68-.2 2.5-.4.6 0 1.16-.05 1.72-.2.88-.13 1.8-.2 2.66-.42 1.18-.25 2.4-.3 3.57-.53.7-.16 1.46-.23 2.17-.44-.64-.2-1.3-.3-1.93-.46-.46-.16-.92-.27-1.37-.44 0-.25.1-.48.22-.7.28-.33.7-.5 1-.8 1.63-1.82 5.16-5.6 5.27-6.15z"/><path d="M132.35.55c.1-.12.23-.28.4-.16 1.17.34 2.1 1.18 3.03 1.92.57.44 1.1.92 1.6 1.43 1.2 1.06 2.28 2.2 3.45 3.28.17.13.33.3.55.36.92.2 1.87.2 2.82.23 4.13-.03 8.27.37 12.33 1.15.9.1 1.74.44 2.63.54 1.62.43 3.25.82 4.85 1.33.98.35 2 .54 3 .9.83.26 1.65.6 2.46.94.74.37 1.52.7 2.2 1.18.6.4 1.26.85 1.43 1.6.13.34-.18.6-.4.82-.42.3-.93.42-1.4.63 0 .04.03.1.03.14.54.1 1.04-.12 1.57-.14.33.13.43.63.16.87-.34.55-.93.87-1.5 1.15-.65.37-1.4.56-2.1.8-4.33 1.33-8.6 1.82-12.7 3.07-.3.07-.46.34-.67.53-.28.27-.48.6-.67.94-.67.93-1.4 1.82-2.16 2.7-.33.26-.7.68-1.16.5-.35-.1-.5-.46-.53-.8-.03-.9-.08-1.84 0-2.76-1.06.16-2.12.4-3.2.43-.77.05-1.52.2-2.3.3-.96.1-1.93.3-2.9.3-1.9 0-3.82.2-5.7-.03-.16.47-.5.85-.77 1.23-.4.44-.6 1.04-1.13 1.35-.35.18-.62-.18-.74-.47-.1-.1-.17-.4-.38-.34-1.34.94-2.1 2.3-3.75 3.3-.22.14-.53.13-.72-.06-.42-.5-.4-1.2-.24-1.8.23-1.7.13-2.5 1-3.95-.53-.12-1.08-.14-1.63-.2-1.48-.3-3-.47-4.5-.6-1.28-.1-2.56-.27-3.83-.1-.38.03-.7.26-1.03.42-.6.28-1.2.62-1.75 1-.46.3-.98.5-1.44.78-.84.5-1.72.92-2.6 1.33-.85.3-1.63.75-2.47 1.1-.36.13-.8.14-1.12-.07-.43-.4-.56-1-.75-1.53-.22-.7-.56-1.38-.67-2.12-.08-.8-.08-1.6.02-2.4.03-.2-.03-.4-.1-.6.13-.15.22-.4.5-.35.6-.03 1.22-.12 1.74-.47-.5-.23-1.03-.28-1.55-.4-.7-.14-1.4-.2-2.1-.28-1-.1-2 .02-2.98.15-.5.1-.96.34-1.46.46-.88.23-1.7.6-2.6.82-.9.2-1.75.63-2.64.9-.7.23-1.42.5-2.15.56-1 .12-2.02.24-3.03.36-.46 0-.92-.02-1.38-.05.14-.35.3-.7.3-1.08.55-1.98 1.1-3.64 1.7-5.57.05-.37-.1-.72-.13-1.08-1.06-2.48-.87-4.38-.9-7.18.07-.35.56-.37.84-.34 1.57.18 3.13.6 4.56 1.3.9.4 1.8.8 2.64 1.35 1.12.62 2.1 1.54 3.34 1.9 1.02.27 2.07.5 3.13.5 1.12 0 2.24.02 3.32-.18-.58-.2-1.24-.27-1.78-.6-.28-.15-.15-.56.04-.74.38-.48 1.06-.47 1.6-.52.5-.03 1 .17 1.46.28.9.26 1.77.72 2.72.6.82-.13 1.65-.13 2.47-.26.84-.13 1.68-.2 2.5-.4.6 0 1.16-.05 1.72-.2.9-.13 1.8-.2 2.66-.42 1.2-.25 2.4-.3 3.58-.53.72-.16 1.46-.23 2.17-.44-.64-.2-1.3-.3-1.93-.46-.45-.16-.9-.27-1.36-.44 0-.25.1-.48.22-.7.28-.33.7-.5 1-.8 1.64-1.82 5.16-5.6 5.27-6.15z"/><path d="M223.5.55c.07-.12.2-.28.4-.16 1.15.34 2.07 1.18 3 1.92.58.44 1.12.92 1.63 1.43 1.17 1.06 2.26 2.2 3.43 3.28.17.13.33.3.55.36.93.2 1.9.2 2.83.23 4.14-.03 8.27.37 12.33 1.15.9.1 1.74.44 2.63.54 1.6.43 3.24.82 4.84 1.33.97.35 2 .54 2.98.9.84.26 1.66.6 2.47.94.73.37 1.5.7 2.2 1.18.58.4 1.25.85 1.42 1.6.15.34-.17.6-.4.82-.4.3-.92.42-1.38.63 0 .04.02.1.03.14.53.1 1.03-.12 1.56-.14.34.13.43.63.16.87-.34.55-.94.87-1.5 1.15-.66.37-1.4.56-2.12.8-4.3 1.33-8.6 1.82-12.7 3.07-.3.07-.45.34-.65.53-.28.27-.48.6-.67.94-.67.93-1.4 1.82-2.16 2.7-.32.26-.7.68-1.16.5-.35-.1-.5-.46-.54-.8-.03-.9-.08-1.84 0-2.76-1.06.16-2.1.4-3.2.43-.77.05-1.52.2-2.3.3-.96.1-1.93.3-2.9.3-1.9 0-3.82.2-5.7-.03-.16.47-.48.85-.77 1.23-.4.44-.6 1.04-1.13 1.35-.35.18-.62-.18-.74-.47-.1-.1-.17-.4-.38-.34-1.34.94-2.1 2.3-3.75 3.3-.2.14-.52.13-.72-.06-.4-.5-.38-1.2-.23-1.8.23-1.7.13-2.5 1.02-3.95-.55-.12-1.1-.14-1.66-.2-1.5-.3-3-.47-4.52-.6-1.27-.1-2.55-.27-3.82-.1-.38.03-.7.26-1.02.42-.62.28-1.2.62-1.76 1-.45.3-.97.5-1.43.78-.85.5-1.73.92-2.6 1.33-.85.3-1.64.75-2.48 1.1-.35.13-.8.14-1.1-.07-.44-.4-.57-1-.76-1.53-.22-.7-.55-1.38-.67-2.12-.1-.8-.1-1.6 0-2.4.05-.2-.02-.4-.1-.6.15-.15.23-.4.5-.35.62-.03 1.24-.12 1.75-.47-.5-.23-1.03-.28-1.55-.4-.7-.14-1.4-.2-2.08-.28-1-.1-2 .02-3 .15-.5.1-.95.34-1.45.46-.88.23-1.7.6-2.6.82-.9.2-1.75.63-2.64.9-.7.23-1.42.5-2.15.56-1 .12-2 .24-3.03.36-.46 0-.92-.02-1.38-.05.14-.35.3-.7.3-1.08.55-1.98 1.12-3.64 1.7-5.57.06-.37-.1-.72-.13-1.08-1.06-2.48-.88-4.38-.9-7.18.06-.35.55-.37.83-.34 1.58.18 3.14.6 4.56 1.3.9.4 1.8.8 2.64 1.35 1.12.62 2.1 1.54 3.34 1.9 1.03.27 2.08.5 3.14.5 1.1 0 2.23.02 3.32-.18-.6-.2-1.25-.27-1.8-.6-.27-.15-.14-.56.05-.74.4-.48 1.07-.47 1.63-.52.5-.03.97.17 1.44.28.9.26 1.77.72 2.72.6.8-.13 1.64-.13 2.46-.26.84-.13 1.68-.2 2.5-.4.6 0 1.16-.05 1.72-.2.9-.13 1.8-.2 2.66-.42 1.18-.25 2.4-.3 3.57-.53.73-.16 1.47-.23 2.18-.44-.63-.2-1.3-.3-1.93-.46-.45-.16-.9-.27-1.36-.44-.02-.25.1-.48.2-.7.3-.33.7-.5 1-.8 1.65-1.82 5.17-5.6 5.28-6.15z"/><path d="M314.62.55c.08-.12.22-.28.4-.16 1.16.34 2.08 1.18 3.02 1.92.58.44 1.1.92 1.62 1.43 1.17 1.06 2.26 2.2 3.43 3.28.16.13.32.3.54.36.92.2 1.88.2 2.82.23 4.14-.03 8.27.37 12.34 1.15.88.1 1.73.44 2.62.54 1.62.43 3.25.82 4.85 1.33.97.35 2 .54 2.98.9.84.26 1.66.6 2.47.94.74.37 1.52.7 2.2 1.18.6.4 1.26.85 1.43 1.6.15.34-.17.6-.4.82-.4.3-.92.42-1.38.63 0 .04.02.1.03.14.53.1 1.03-.12 1.56-.14.34.13.43.63.16.87-.33.55-.93.87-1.48 1.15-.67.37-1.42.56-2.13.8-4.3 1.33-8.6 1.82-12.7 3.07-.3.07-.43.34-.64.53-.28.27-.47.6-.67.94-.68.93-1.4 1.82-2.17 2.7-.32.26-.7.68-1.16.5-.35-.1-.5-.46-.54-.8-.03-.9-.07-1.84 0-2.76-1.05.16-2.1.4-3.2.43-.77.05-1.52.2-2.3.3-.96.1-1.92.3-2.9.3-1.9 0-3.82.2-5.7-.03-.16.47-.48.85-.77 1.23-.4.44-.6 1.04-1.12 1.35-.36.18-.63-.18-.75-.47-.1-.1-.18-.4-.4-.34-1.33.94-2.1 2.3-3.74 3.3-.2.14-.52.13-.7-.06-.44-.5-.4-1.2-.26-1.8.23-1.7.13-2.5 1.02-3.95-.54-.12-1.1-.14-1.65-.2-1.5-.3-3-.47-4.52-.6-1.27-.1-2.55-.27-3.82-.1-.38.03-.7.26-1.02.42-.6.28-1.2.62-1.75 1-.45.3-.97.5-1.43.78-.84.5-1.7.92-2.6 1.33-.84.3-1.63.75-2.47 1.1-.35.13-.8.14-1.1-.07-.44-.4-.56-1-.76-1.53-.23-.7-.56-1.38-.68-2.12-.08-.8-.08-1.6.03-2.4.03-.2-.03-.4-.1-.6.13-.15.2-.4.5-.35.6-.03 1.22-.12 1.73-.47-.5-.23-1.03-.28-1.55-.4-.7-.14-1.4-.2-2.08-.28-1-.1-2 .02-3 .15-.5.1-.95.34-1.45.46-.88.23-1.7.6-2.6.82-.9.2-1.75.63-2.64.9-.7.23-1.4.5-2.15.56-1 .12-2 .24-3 .36-.48 0-.94-.02-1.4-.05.14-.35.3-.7.3-1.08.55-1.98 1.12-3.64 1.7-5.57.06-.37-.1-.72-.13-1.08-1.06-2.48-.88-4.38-.9-7.18.06-.35.55-.37.83-.34 1.58.18 3.14.6 4.56 1.3.9.4 1.8.8 2.64 1.35 1.12.62 2.1 1.54 3.34 1.9 1.02.27 2.07.5 3.14.5 1.1 0 2.22.02 3.3-.18-.58-.2-1.23-.27-1.78-.6-.27-.15-.15-.56.04-.74.4-.48 1.06-.47 1.62-.52.5-.03.97.17 1.44.28.9.26 1.77.72 2.73.6.8-.13 1.64-.13 2.47-.26.83-.13 1.67-.2 2.5-.4.58 0 1.15-.05 1.7-.2.9-.13 1.8-.2 2.68-.42 1.17-.25 2.38-.3 3.56-.53.72-.16 1.46-.23 2.17-.44-.62-.2-1.28-.3-1.92-.46-.44-.16-.9-.27-1.36-.44 0-.25.1-.48.23-.7.27-.33.7-.5 1-.8 1.63-1.82 5.15-5.6 5.26-6.15h.02z"/><path d="M405.75.55c.08-.12.22-.28.4-.16 1.17.34 2.08 1.18 3.02 1.92.58.44 1.1.92 1.62 1.43 1.16 1.06 2.25 2.2 3.42 3.28.17.13.33.3.55.36.92.2 1.88.2 2.82.23 4.13-.03 8.26.37 12.33 1.15.9.1 1.73.44 2.63.54 1.62.43 3.25.82 4.84 1.33.98.35 2 .54 2.98.9.84.26 1.66.6 2.47.94.74.37 1.52.7 2.2 1.18.6.4 1.26.85 1.43 1.6.15.34-.17.6-.4.82-.4.3-.92.42-1.38.63 0 .04.02.1.03.14.53.1 1.03-.12 1.57-.14.33.13.42.63.15.87-.33.55-.92.87-1.48 1.15-.67.37-1.4.56-2.13.8-4.3 1.33-8.6 1.82-12.7 3.07-.3.07-.44.34-.65.53-.3.27-.48.6-.68.94-.67.93-1.4 1.82-2.16 2.7-.32.26-.7.68-1.16.5-.35-.1-.5-.46-.54-.8-.03-.9-.07-1.84 0-2.76-1.05.16-2.1.4-3.2.43-.76.05-1.52.2-2.28.3-.98.1-1.94.3-2.93.3-1.9 0-3.8.2-5.7-.03-.15.47-.47.85-.76 1.23-.4.44-.62 1.04-1.13 1.35-.36.18-.63-.18-.75-.47-.1-.1-.17-.4-.38-.34-1.34.94-2.1 2.3-3.74 3.3-.22.14-.53.13-.72-.06-.43-.5-.4-1.2-.25-1.8.23-1.7.13-2.5 1.02-3.95-.54-.12-1.1-.14-1.64-.2-1.5-.3-3-.47-4.52-.6-1.26-.1-2.55-.27-3.82-.1-.38.03-.7.26-1.02.42-.62.28-1.2.62-1.76 1-.45.3-.96.5-1.43.78-.84.5-1.7.92-2.6 1.33-.84.3-1.63.75-2.47 1.1-.35.13-.8.14-1.1-.07-.44-.4-.56-1-.75-1.53-.23-.7-.56-1.38-.67-2.12-.1-.8-.1-1.6.02-2.4.03-.2-.03-.4-.1-.6.13-.15.2-.4.5-.35.6-.03 1.22-.12 1.74-.47-.5-.23-1.04-.28-1.56-.4-.7-.14-1.38-.2-2.08-.28-1-.1-2 .02-3 .15-.5.1-.95.34-1.45.46-.88.23-1.7.6-2.6.82-.9.2-1.74.63-2.64.9-.7.23-1.42.5-2.16.56-1 .12-2 .24-3.02.36-.47 0-.93-.02-1.4-.05.15-.35.32-.7.3-1.08.56-1.98 1.13-3.64 1.72-5.57.05-.37-.1-.72-.14-1.08-1.06-2.48-.88-4.38-.9-7.18.06-.35.55-.37.83-.34 1.58.18 3.14.6 4.56 1.3.9.4 1.8.8 2.63 1.35 1.12.62 2.1 1.54 3.34 1.9 1.02.27 2.07.5 3.14.5 1.1 0 2.23.02 3.32-.18-.6-.2-1.24-.27-1.8-.6-.26-.15-.14-.56.05-.74.4-.48 1.06-.47 1.62-.52.48-.03.96.17 1.43.28.9.26 1.77.72 2.73.6.8-.13 1.64-.13 2.47-.26.83-.13 1.67-.2 2.5-.4.58 0 1.15-.05 1.7-.2.9-.13 1.8-.2 2.68-.42 1.18-.25 2.4-.3 3.57-.53.72-.16 1.46-.23 2.17-.44-.63-.2-1.3-.3-1.93-.46-.43-.16-.9-.27-1.34-.44 0-.25.1-.48.22-.7.28-.33.7-.5 1-.8 1.63-1.82 5.15-5.6 5.26-6.15z"/></g></g></g></g></g></svg>