<?xml version="1.0" encoding="UTF-8" standalone="no"?>
<svg width="20px" height="18px" viewBox="0 0 20 18" version="1.1" xmlns="http://www.w3.org/2000/svg" xmlns:xlink="http://www.w3.org/1999/xlink" xmlns:sketch="http://www.bohemiancoding.com/sketch/ns">
    <!-- Generator: Sketch 3.4 (15575) - http://www.bohemiancoding.com/sketch -->
    <title>Page 1</title>
    <desc>Created with Sketch.</desc>
    <defs></defs>
    <g id="Page-1" stroke="none" stroke-width="1" fill="none" fill-rule="evenodd" sketch:type="MSPage">
        <g sketch:type="MSLayerGroup" fill="#FFFFFF">
            <path d="M9.15780822,7.67590909 C7.41534247,5.97872727 5.77150685,4.30390909 4.02821918,2.74118182 C3.69643836,2.44390909 2.96657534,2.58654545 2.24849315,2.50772727 C2.34164384,1.30827273 3.36684932,0.811909091 4.19205479,0.193909091 C4.23260274,0.163090909 4.79780822,0.674454545 4.76767123,0.724363636 C4.21452055,1.65327273 5.0460274,1.99745455 5.49342466,2.47063636 C6.89863014,3.96409091 8.32630137,5.43436364 9.88547945,7.06009091 C11.719726,5.18727273 13.3635616,3.51681818 14.9926027,1.83136364 C15.1326027,1.68654545 15.1991781,1.43918182 15.2290411,1.23054545 C15.2750685,0.901363636 15.2589041,0.562363636 15.269589,0.228 C15.64,0.373909091 16.0465753,0.463363636 16.3687671,0.680727273 C16.7208219,0.918272727 17.0419178,1.239 17.2827397,1.58727273 C17.4465753,1.82590909 17.4487671,2.17554545 17.5224658,2.47581818 C17.2345205,2.50663636 16.940274,2.51209091 16.6578082,2.574 C16.2969863,2.65172727 15.8421918,2.66863636 15.6079452,2.89663636 C13.0339726,5.40763636 10.4838356,7.941 7.96876712,10.5095455 C7.70547945,10.779 7.51616438,11.3852727 7.63479452,11.7103636 C8.00739726,12.7221818 7.73342466,13.3988182 6.9509589,14.0839091 C5.94273973,14.9680909 4.97534247,15.915 4.10328767,16.9314545 C3.27589041,17.8933636 2.50958904,17.7676364 1.61068493,17.1199091 C-0.251506849,15.7786364 -0.358630137,14.7400909 1.23835616,13.1312727 C1.98191781,12.3823636 2.77726027,11.6803636 3.47287671,10.89 C4.16958904,10.1004545 4.87808219,9.63272727 5.9739726,10.0930909 C6.20821918,10.191 6.65671233,10.0846364 6.85890411,9.90654545 C7.60821918,9.24927273 8.29726027,8.52272727 9.15780822,7.67590909 L9.15780822,7.67590909 Z" id="Fill-1" sketch:type="MSShapeGroup"></path>
            <path d="M10.6208219,8.84236364 C10.7427397,8.73163636 10.6945205,8.61327273 11.1665753,8.18181818 C11.6758904,8.81563636 12.3265753,9.29618182 12.8167123,9.74045455 C13.0778082,9.97909091 13.6183562,10.1770909 13.910411,10.0685455 C14.9594521,9.67336364 15.6164384,10.0982727 16.2884932,10.8324545 C17.1928767,11.8189091 18.1356164,12.7797273 19.1394521,13.6641818 C20.0235616,14.4460909 19.9410959,15.1759091 19.3128767,16.0300909 C17.9164384,17.9296364 16.8610959,18.0286364 15.2076712,16.3849091 C14.5964384,15.7786364 14.0013699,15.1532727 13.3723288,14.5663636 C12.4871233,13.7419091 11.7616438,13.029 12.189589,11.529 C12.3663014,10.9069091 11.2950685,9.93218182 10.6208219,8.84236364 L10.6208219,8.84236364 Z" id="Fill-2" sketch:type="MSShapeGroup"></path>
        </g>
    </g>
</svg>