<svg xmlns="http://www.w3.org/2000/svg" width="20" height="20"><title>Slice 1</title><desc>Created with Sketch.</desc><g fill="none"><path fill="#fff" d="M3.1 16.78h-.02c-1.03 0-2.02-.68-2.93-2-.26-.37-.17-.87.18-1.13.35-.26.84-.17 1.1.2.4.6 1.04 1.3 1.66 1.3.6 0 1.23-.7 1.65-1.3.92-1.34 1.9-2 2.95-2 1.03 0 2 .65 2.92 1.96 0 .02.02.03.02.04.42.6 1.04 1.32 1.66 1.32.62 0 1.25-.72 1.67-1.32.92-1.33 1.9-2 2.94-2h.02c1.03 0 2.02.67 2.93 2 .26.36.17.87-.18 1.12-.35.26-.84.18-1.1-.2-.4-.6-1.04-1.3-1.65-1.3-.62 0-1.25.7-1.67 1.32-.92 1.32-1.9 2-2.95 2-1.02 0-2-.67-2.92-1.98 0 0 0-.02-.02-.03-.42-.6-1.04-1.32-1.66-1.32-.62 0-1.25.72-1.67 1.33-.92 1.32-1.9 2-2.94 2zm0-4.92h-.02c-1.03 0-2.02-.68-2.93-2C-.1 9.5-.02 9 .33 8.73c.35-.26.84-.17 1.1.2.4.6 1.04 1.3 1.66 1.3.6 0 1.23-.7 1.65-1.3.92-1.34 1.9-2 2.94-2 1.02 0 2 .65 2.92 1.96 0 0 0 0 .02.02.42.6 1.04 1.32 1.66 1.32.62 0 1.25-.72 1.66-1.32.93-1.33 1.92-2 2.95-2 1.05 0 2.03.67 2.95 2 .25.36.17.87-.18 1.13-.36.26-.85.17-1.1-.2-.42-.6-1.04-1.3-1.66-1.3-.6 0-1.24.7-1.66 1.3-.92 1.34-1.9 2-2.94 2-1.03 0-2-.66-2.92-1.97 0 0-.02 0-.02-.02-.42-.6-1.05-1.32-1.66-1.32-.62 0-1.25.72-1.67 1.32-.92 1.32-1.9 2-2.94 2zm0-4.92h-.02c-1.03 0-2.02-.68-2.93-2-.26-.36-.17-.87.18-1.13.35-.25.84-.16 1.1.2.4.6 1.04 1.32 1.66 1.32.6 0 1.23-.7 1.65-1.32.92-1.33 1.9-2 2.95-2 1.03 0 2 .67 2.92 1.98 0 0 .02 0 .02.02.42.6 1.04 1.32 1.66 1.32.62 0 1.25-.72 1.67-1.32.92-1.33 1.9-2 2.94-2h.02c1.03 0 2.02.67 2.93 2 .26.36.17.87-.18 1.13-.35.26-.84.17-1.1-.2-.4-.6-1.04-1.3-1.65-1.3-.62 0-1.25.7-1.67 1.3-.93 1.34-1.92 2-2.95 2-1.03 0-2-.66-2.92-1.97 0 0 0 0-.02-.02-.42-.6-1.04-1.32-1.66-1.32-.62 0-1.25.72-1.67 1.32-.92 1.33-1.9 2-2.94 2z"/></g></svg>