<?xml version="1.0" encoding="UTF-8" standalone="no"?>
<svg width="20px" height="20px" viewBox="0 0 20 20" version="1.1" xmlns="http://www.w3.org/2000/svg" xmlns:xlink="http://www.w3.org/1999/xlink" xmlns:sketch="http://www.bohemiancoding.com/sketch/ns">
    <!-- Generator: Sketch 3.3.1 (12002) - http://www.bohemiancoding.com/sketch -->
    <title>Slice 1</title>
    <desc>Created with Sketch.</desc>
    <defs></defs>
    <g id="Page-1" stroke="none" stroke-width="1" fill="none" fill-rule="evenodd" sketch:type="MSPage">
        <g id="Imported-Layers" sketch:type="MSLayerGroup" transform="translate(0.000000, 4.000000)">
            <path d="M9.98216216,0.167837838 C10.0032432,0.138378378 10.0359459,0.101351351 10.0791892,0.12972973 C10.3621622,0.213243243 10.5848649,0.418108108 10.8118919,0.596486486 C10.9513514,0.703243243 11.0810811,0.819189189 11.2035135,0.942702703 C11.4875676,1.20135135 11.7513514,1.48027027 12.0354054,1.73891892 C12.0767568,1.77054054 12.1156757,1.81378378 12.1694595,1.82648649 C12.3924324,1.87594595 12.6235135,1.87594595 12.8516216,1.88459459 C13.8545946,1.87702703 14.8564865,1.97432432 15.8413514,2.16324324 C16.0567568,2.18756757 16.2616216,2.26891892 16.4781081,2.29405405 C16.8708108,2.39648649 17.2656757,2.4927027 17.6518919,2.61621622 C17.8886486,2.70162162 18.1375676,2.74594595 18.3740541,2.83054054 C18.5778378,2.89594595 18.7775676,2.9772973 18.9737838,3.06054054 C19.1532432,3.15459459 19.3421622,3.23162162 19.5091892,3.35 C19.6494595,3.44594595 19.8121622,3.55675676 19.8521622,3.73405405 C19.8881081,3.82081081 19.8110811,3.88297297 19.7572973,3.93567568 C19.6559459,4.00864865 19.5332432,4.03918919 19.4213514,4.09 C19.4224324,4.09837838 19.4256757,4.11540541 19.4278378,4.12378378 C19.5564865,4.14378378 19.6789189,4.09405405 19.8078378,4.09 C19.8881081,4.12162162 19.9102703,4.24081081 19.8459459,4.3 C19.7645946,4.43405405 19.6210811,4.51027027 19.4859459,4.57864865 C19.3243243,4.66756757 19.1437838,4.71297297 18.9705405,4.77297297 C17.9254054,5.09513514 16.8864865,5.21216216 15.8943243,5.51621622 C15.8213514,5.53216216 15.7854054,5.59864865 15.7348649,5.64513514 C15.6672973,5.71054054 15.6208108,5.79297297 15.5732432,5.87297297 C15.4108108,6.1 15.2354054,6.31648649 15.0497297,6.52567568 C14.9716216,6.59216216 14.8827027,6.69459459 14.7689189,6.65108108 C14.6832432,6.62702703 14.6462162,6.53810811 14.6378378,6.45810811 C14.6305405,6.23513514 14.62,6.01135135 14.64,5.78864865 C14.3824324,5.82756757 14.1259459,5.88162162 13.8640541,5.89216216 C13.677027,5.90378378 13.4945946,5.94162162 13.3086486,5.96189189 C13.0732432,5.98810811 12.8389189,6.03675676 12.6002703,6.04 C12.14,6.03783784 11.6775676,6.08540541 11.2183784,6.03027027 C11.1824324,6.14432432 11.1043243,6.23513514 11.0345946,6.32918919 C10.9405405,6.43567568 10.8867568,6.58054054 10.7621622,6.65540541 C10.6756757,6.69756757 10.6113514,6.61216216 10.5816216,6.54243243 C10.5594595,6.51594595 10.5405405,6.44108108 10.4897297,6.45891892 C10.1656757,6.68486486 9.97891892,7.01432432 9.58189189,7.25405405 C9.52918919,7.28891892 9.45405405,7.28675676 9.40783784,7.24243243 C9.30540541,7.12108108 9.31162162,6.95324324 9.34756757,6.80648649 C9.40351351,6.39054054 9.37918919,6.19837838 9.59459459,5.84891892 C9.46378378,5.82135135 9.32972973,5.81702703 9.19648649,5.80027027 C8.83459459,5.72648649 8.46810811,5.6872973 8.09972973,5.65891892 C7.79351351,5.63135135 7.48324324,5.59027027 7.17486486,5.63351351 C7.08189189,5.64081081 7.00702703,5.69567568 6.92675676,5.73378378 C6.77783784,5.80243243 6.63756757,5.88459459 6.50135135,5.97540541 C6.39135135,6.04945946 6.26702703,6.09783784 6.15486486,6.16648649 C5.95135135,6.28594595 5.73891892,6.38945946 5.52675676,6.48864865 C5.32,6.56027027 5.12891892,6.67027027 4.92621622,6.75243243 C4.84054054,6.78621622 4.73513514,6.7872973 4.65675676,6.73675676 C4.55351351,6.63945946 4.5227027,6.49486486 4.47621622,6.36621622 C4.42243243,6.19513514 4.34108108,6.03135135 4.31378378,5.85297297 C4.29378378,5.65783784 4.29378378,5.46135135 4.31891892,5.26594595 C4.32648649,5.21756757 4.31162162,5.17 4.2927027,5.12567568 C4.32648649,5.08756757 4.34756757,5.02324324 4.41405405,5.03810811 C4.56189189,5.03054054 4.71189189,5.00945946 4.8372973,4.92513514 C4.71810811,4.87027027 4.5872973,4.85648649 4.46054054,4.82891892 C4.29378378,4.79297297 4.12486486,4.77621622 3.95594595,4.75918919 C3.71297297,4.73513514 3.47027027,4.76567568 3.22945946,4.7972973 C3.10810811,4.8172973 2.99945946,4.87972973 2.87891892,4.90918919 C2.66567568,4.96189189 2.46513514,5.0527027 2.24972973,5.10351351 C2.02918919,5.15513514 1.82540541,5.25756757 1.60891892,5.32513514 C1.43783784,5.37702703 1.26594595,5.44135135 1.0872973,5.45810811 C0.843513514,5.48675676 0.59972973,5.51621622 0.354594595,5.54486486 C0.241891892,5.54675676 0.130810811,5.54054054 0.0189189189,5.53324324 C0.0527027027,5.44972973 0.092972973,5.36621622 0.0918918919,5.27459459 C0.224864865,4.79297297 0.362162162,4.39081081 0.504594595,3.92513514 C0.517297297,3.83540541 0.48027027,3.75 0.471891892,3.66243243 C0.214324324,3.06054054 0.258648649,2.60135135 0.253513514,1.92351351 C0.269189189,1.84027027 0.387567568,1.83594595 0.455135135,1.84216216 C0.837297297,1.88567568 1.21513514,1.99108108 1.56027027,2.16108108 C1.77891892,2.2572973 1.99945946,2.35432432 2.20027027,2.48513514 C2.47162162,2.63297297 2.70594595,2.85675676 3.00891892,2.94351351 C3.25702703,3.00891892 3.51027027,3.0627027 3.76891892,3.06702703 C4.0372973,3.06594595 4.30756757,3.06891892 4.57135135,3.02054054 C4.42891892,2.96864865 4.27054054,2.95405405 4.13837838,2.87702703 C4.07189189,2.83891892 4.1027027,2.73972973 4.14810811,2.69648649 C4.24189189,2.58027027 4.40459459,2.58135135 4.53972973,2.57081081 C4.66,2.56324324 4.77513514,2.60972973 4.89027027,2.63837838 C5.10675676,2.69945946 5.31783784,2.81243243 5.55,2.78405405 C5.74756757,2.75243243 5.94918919,2.75243243 6.14864865,2.72054054 C6.35135135,2.68783784 6.55513514,2.66891892 6.75675676,2.62567568 C6.89621622,2.62567568 7.03432432,2.60972973 7.16945946,2.57810811 C7.38486486,2.54216216 7.60351351,2.52540541 7.81567568,2.47243243 C8.10081081,2.41243243 8.39324324,2.39864865 8.67918919,2.34378378 C8.85351351,2.30567568 9.03405405,2.28891892 9.20513514,2.23702703 C9.05189189,2.19054054 8.89243243,2.17054054 8.73837838,2.12945946 C8.62972973,2.08918919 8.51675676,2.06297297 8.40891892,2.02081081 C8.40675676,1.96054054 8.43324324,1.90459459 8.4627027,1.85378378 C8.53027027,1.77351351 8.63081081,1.73027027 8.70351351,1.65648649 C9.10054054,1.2172973 9.95459459,0.298648649 9.98108108,0.167837838 L9.98216216,0.167837838 Z" id="Fill-1" fill="#FFFFFF" sketch:type="MSShapeGroup"></path>
            <path d="M9.98216216,0.167837838 C10.0032432,0.138378378 10.0359459,0.101351351 10.0791892,0.12972973 C10.3621622,0.213243243 10.5848649,0.418108108 10.8118919,0.596486486 C10.9513514,0.703243243 11.0810811,0.819189189 11.2035135,0.942702703 C11.4875676,1.20135135 11.7513514,1.48027027 12.0354054,1.73891892 C12.0767568,1.77054054 12.1156757,1.81378378 12.1694595,1.82648649 C12.3924324,1.87594595 12.6235135,1.87594595 12.8516216,1.88459459 C13.8545946,1.87702703 14.8564865,1.97432432 15.8413514,2.16324324 C16.0567568,2.18756757 16.2616216,2.26891892 16.4781081,2.29405405 C16.8708108,2.39648649 17.2656757,2.4927027 17.6518919,2.61621622 C17.8886486,2.70162162 18.1375676,2.74594595 18.3740541,2.83054054 C18.5778378,2.89594595 18.7775676,2.9772973 18.9737838,3.06054054 C19.1532432,3.15459459 19.3421622,3.23162162 19.5091892,3.35 C19.6494595,3.44594595 19.8121622,3.55675676 19.8521622,3.73405405 C19.8881081,3.82081081 19.8110811,3.88297297 19.7572973,3.93567568 C19.6559459,4.00864865 19.5332432,4.03918919 19.4213514,4.09 C19.4224324,4.09837838 19.4256757,4.11540541 19.4278378,4.12378378 C19.5564865,4.14378378 19.6789189,4.09405405 19.8078378,4.09 C19.8881081,4.12162162 19.9102703,4.24081081 19.8459459,4.3 C19.7645946,4.43405405 19.6210811,4.51027027 19.4859459,4.57864865 C19.3243243,4.66756757 19.1437838,4.71297297 18.9705405,4.77297297 C17.9254054,5.09513514 16.8864865,5.21216216 15.8943243,5.51621622 C15.8213514,5.53216216 15.7854054,5.59864865 15.7348649,5.64513514 C15.6672973,5.71054054 15.6208108,5.79297297 15.5732432,5.87297297 C15.4108108,6.1 15.2354054,6.31648649 15.0497297,6.52567568 C14.9716216,6.59216216 14.8827027,6.69459459 14.7689189,6.65108108 C14.6832432,6.62702703 14.6462162,6.53810811 14.6378378,6.45810811 C14.6305405,6.23513514 14.62,6.01135135 14.64,5.78864865 C14.3824324,5.82756757 14.1259459,5.88162162 13.8640541,5.89216216 C13.677027,5.90378378 13.4945946,5.94162162 13.3086486,5.96189189 C13.0732432,5.98810811 12.8389189,6.03675676 12.6002703,6.04 C12.14,6.03783784 11.6775676,6.08540541 11.2183784,6.03027027 C11.1824324,6.14432432 11.1043243,6.23513514 11.0345946,6.32918919 C10.9405405,6.43567568 10.8867568,6.58054054 10.7621622,6.65540541 C10.6756757,6.69756757 10.6113514,6.61216216 10.5816216,6.54243243 C10.5594595,6.51594595 10.5405405,6.44108108 10.4897297,6.45891892 C10.1656757,6.68486486 9.97891892,7.01432432 9.58189189,7.25405405 C9.52918919,7.28891892 9.45405405,7.28675676 9.40783784,7.24243243 C9.30540541,7.12108108 9.31162162,6.95324324 9.34756757,6.80648649 C9.40351351,6.39054054 9.37918919,6.19837838 9.59459459,5.84891892 C9.46378378,5.82135135 9.32972973,5.81702703 9.19648649,5.80027027 C8.83459459,5.72648649 8.46810811,5.6872973 8.09972973,5.65891892 C7.79351351,5.63135135 7.48324324,5.59027027 7.17486486,5.63351351 C7.08189189,5.64081081 7.00702703,5.69567568 6.92675676,5.73378378 C6.77783784,5.80243243 6.63756757,5.88459459 6.50135135,5.97540541 C6.39135135,6.04945946 6.26702703,6.09783784 6.15486486,6.16648649 C5.95135135,6.28594595 5.73891892,6.38945946 5.52675676,6.48864865 C5.32,6.56027027 5.12891892,6.67027027 4.92621622,6.75243243 C4.84054054,6.78621622 4.73513514,6.7872973 4.65675676,6.73675676 C4.55351351,6.63945946 4.5227027,6.49486486 4.47621622,6.36621622 C4.42243243,6.19513514 4.34108108,6.03135135 4.31378378,5.85297297 C4.29378378,5.65783784 4.29378378,5.46135135 4.31891892,5.26594595 C4.32648649,5.21756757 4.31162162,5.17 4.2927027,5.12567568 C4.32648649,5.08756757 4.34756757,5.02324324 4.41405405,5.03810811 C4.56189189,5.03054054 4.71189189,5.00945946 4.8372973,4.92513514 C4.71810811,4.87027027 4.5872973,4.85648649 4.46054054,4.82891892 C4.29378378,4.79297297 4.12486486,4.77621622 3.95594595,4.75918919 C3.71297297,4.73513514 3.47027027,4.76567568 3.22945946,4.7972973 C3.10810811,4.8172973 2.99945946,4.87972973 2.87891892,4.90918919 C2.66567568,4.96189189 2.46513514,5.0527027 2.24972973,5.10351351 C2.02918919,5.15513514 1.82540541,5.25756757 1.60891892,5.32513514 C1.43783784,5.37702703 1.26594595,5.44135135 1.0872973,5.45810811 C0.843513514,5.48675676 0.59972973,5.51621622 0.354594595,5.54486486 C0.241891892,5.54675676 0.130810811,5.54054054 0.0189189189,5.53324324 C0.0527027027,5.44972973 0.092972973,5.36621622 0.0918918919,5.27459459 C0.224864865,4.79297297 0.362162162,4.39081081 0.504594595,3.92513514 C0.517297297,3.83540541 0.48027027,3.75 0.471891892,3.66243243 C0.214324324,3.06054054 0.258648649,2.60135135 0.253513514,1.92351351 C0.269189189,1.84027027 0.387567568,1.83594595 0.455135135,1.84216216 C0.837297297,1.88567568 1.21513514,1.99108108 1.56027027,2.16108108 C1.77891892,2.2572973 1.99945946,2.35432432 2.20027027,2.48513514 C2.47162162,2.63297297 2.70594595,2.85675676 3.00891892,2.94351351 C3.25702703,3.00891892 3.51027027,3.0627027 3.76891892,3.06702703 C4.0372973,3.06594595 4.30756757,3.06891892 4.57135135,3.02054054 C4.42891892,2.96864865 4.27054054,2.95405405 4.13837838,2.87702703 C4.07189189,2.83891892 4.1027027,2.73972973 4.14810811,2.69648649 C4.24189189,2.58027027 4.40459459,2.58135135 4.53972973,2.57081081 C4.66,2.56324324 4.77513514,2.60972973 4.89027027,2.63837838 C5.10675676,2.69945946 5.31783784,2.81243243 5.55,2.78405405 C5.74756757,2.75243243 5.94918919,2.75243243 6.14864865,2.72054054 C6.35135135,2.68783784 6.55513514,2.66891892 6.75675676,2.62567568 C6.89621622,2.62567568 7.03432432,2.60972973 7.16945946,2.57810811 C7.38486486,2.54216216 7.60351351,2.52540541 7.81567568,2.47243243 C8.10081081,2.41243243 8.39324324,2.39864865 8.67918919,2.34378378 C8.85351351,2.30567568 9.03405405,2.28891892 9.20513514,2.23702703 C9.05189189,2.19054054 8.89243243,2.17054054 8.73837838,2.12945946 C8.62972973,2.08918919 8.51675676,2.06297297 8.40891892,2.02081081 C8.40675676,1.96054054 8.43324324,1.90459459 8.4627027,1.85378378 C8.53027027,1.77351351 8.63081081,1.73027027 8.70351351,1.65648649 C9.10054054,1.2172973 9.95459459,0.298648649 9.98108108,0.167837838 L9.98216216,0.167837838 Z" id="Stroke-2" stroke="#FFFFFF" stroke-width="0.00434155" sketch:type="MSShapeGroup"></path>
        </g>
    </g>
</svg>