<?xml version="1.0" encoding="UTF-8" standalone="no"?>
<svg width="20px" height="14px" viewBox="0 0 20 14" version="1.1" xmlns="http://www.w3.org/2000/svg" xmlns:xlink="http://www.w3.org/1999/xlink" xmlns:sketch="http://www.bohemiancoding.com/sketch/ns">
    <!-- Generator: Sketch 3.4 (15575) - http://www.bohemiancoding.com/sketch -->
    <title>Page 1</title>
    <desc>Created with Sketch.</desc>
    <defs></defs>
    <g id="Page-1" stroke="none" stroke-width="1" fill="none" fill-rule="evenodd" sketch:type="MSPage">
        <path d="M10.9095341,4.54537634 C10.9095341,7.02508961 12.8954839,9.03913978 15.3640143,9.08817204 C14.215914,10.2139068 12.6445878,10.9083871 10.9095341,10.9083871 L10.9095341,13.6358423 C15.9297491,13.6358423 20,9.5655914 20,4.54537634 C20,2.03526882 17.9647312,0 15.4546237,0 C12.9448029,0 10.9095341,2.03526882 10.9095341,4.54537634 Z M0,4.54537634 C0,7.02508961 1.98594982,9.03913978 4.45448029,9.08817204 C3.30637993,10.2139068 1.73505376,10.9083871 0,10.9083871 L0,13.6358423 C5.02136201,13.6358423 9.09046595,9.5655914 9.09046595,4.54537634 C9.09046595,2.03526882 7.05634409,0 4.54537634,0 C2.03526882,0 0,2.03526882 0,4.54537634 Z" fill="#FFFFFF" sketch:type="MSShapeGroup"></path>
    </g>
</svg>