<svg xmlns="http://www.w3.org/2000/svg" width="20" height="20"><title>Slice 1</title><desc>Created with Sketch.</desc><g fill="none"><g><path fill="#fff" d="M9.98 4.17c.02-.03.06-.07.1-.04.28.08.5.3.73.47.15.1.28.22.4.34.3.26.55.54.84.8.04.03.08.07.13.1.22.04.45.04.68.04 1 0 2 .1 3 .28.2.03.4.1.63.13.4.1.8.2 1.17.32.24.08.5.13.72.2.2.08.4.16.6.24.18.1.37.17.54.3.15.1.3.2.35.37.04.1-.04.15-.1.2-.1.08-.22.1-.33.16 0 0 0 .02 0 .02.14.02.26-.03.4-.03.07.02.1.14.03.2-.1.13-.23.2-.36.28-.18.1-.36.13-.53.2-1.04.32-2.08.43-3.08.74-.08 0-.1.08-.17.13-.06.06-.1.14-.16.22-.16.23-.33.45-.52.66-.08.06-.17.16-.28.12-.1-.02-.12-.1-.13-.2 0-.2-.02-.44 0-.66-.26.03-.5.08-.78.1-.18 0-.37.04-.55.06-.23.03-.46.08-.7.08-.46 0-.92.05-1.38 0-.04.1-.12.2-.2.3-.08.1-.13.24-.26.32-.08.04-.15-.05-.18-.12-.02-.02-.04-.1-.1-.08-.3.22-.5.55-.9.8-.05.03-.13.03-.17-.02-.1-.12-.1-.3-.05-.43.05-.4.03-.6.24-.95-.14-.03-.27-.03-.4-.05-.37-.07-.73-.1-1.1-.14-.3-.03-.62-.07-.93-.03-.1 0-.16.07-.24.1-.15.07-.3.15-.43.25-.1.07-.23.12-.35.2-.2.1-.4.2-.62.3-.2.08-.4.2-.6.27-.1.04-.2.04-.27 0-.1-.1-.14-.26-.18-.38-.06-.17-.14-.34-.17-.52 0-.2 0-.4.02-.58 0-.05 0-.1-.03-.14.03-.04.05-.1.1-.1.16 0 .3-.02.44-.1-.12-.06-.25-.07-.38-.1-.17-.04-.34-.05-.5-.07-.25-.02-.5 0-.73.04-.12.02-.23.08-.35.1-.2.06-.4.15-.63.2-.22.06-.42.16-.64.23-.16.05-.33.1-.5.13-.26.03-.5.06-.75.08-.1 0-.22 0-.33 0 .03-.1.07-.17.07-.27.12-.48.26-.88.4-1.34.02-.1-.02-.18-.03-.27C.2 7.06.27 6.6.25 5.92c.02-.08.14-.08.2-.08.4.05.77.15 1.1.32.23.1.45.2.65.33.27.13.5.36.8.44.26.07.5.12.77.13.27 0 .54 0 .8-.05-.14-.05-.3-.07-.43-.14-.07-.04-.04-.14 0-.18.1-.12.26-.12.4-.13.12 0 .24.04.35.07.2.06.42.17.65.14.2-.03.4-.03.6-.06.2-.03.4-.05.6-.1.15 0 .28 0 .42-.04.2-.04.43-.05.65-.1.28-.07.57-.08.86-.14.17-.03.35-.05.53-.1-.15-.05-.3-.07-.46-.1-.1-.05-.22-.08-.33-.12 0-.06.03-.12.06-.17.07-.08.17-.12.24-.2.4-.43 1.25-1.35 1.28-1.48z"/><path stroke="#fff" stroke-width=".004" d="M9.98 4.17c.02-.03.06-.07.1-.04.28.08.5.3.73.47.15.1.28.22.4.34.3.26.55.54.84.8.04.03.08.07.13.1.22.04.45.04.68.04 1 0 2 .1 3 .28.2.03.4.1.63.13.4.1.8.2 1.17.32.24.08.5.13.72.2.2.08.4.16.6.24.18.1.37.17.54.3.15.1.3.2.35.37.04.1-.04.15-.1.2-.1.08-.22.1-.33.16 0 0 0 .02 0 .02.14.02.26-.03.4-.03.07.02.1.14.03.2-.1.13-.23.2-.36.28-.18.1-.36.13-.53.2-1.04.32-2.08.43-3.08.74-.08 0-.1.08-.17.13-.06.06-.1.14-.16.22-.16.23-.33.45-.52.66-.08.06-.17.16-.28.12-.1-.02-.12-.1-.13-.2 0-.2-.02-.44 0-.66-.26.03-.5.08-.78.1-.18 0-.37.04-.55.06-.23.03-.46.08-.7.08-.46 0-.92.05-1.38 0-.04.1-.12.2-.2.3-.08.1-.13.24-.26.32-.08.04-.15-.05-.18-.12-.02-.02-.04-.1-.1-.08-.3.22-.5.55-.9.8-.05.03-.13.03-.17-.02-.1-.12-.1-.3-.05-.43.05-.4.03-.6.24-.95-.14-.03-.27-.03-.4-.05-.37-.07-.73-.1-1.1-.14-.3-.03-.62-.07-.93-.03-.1 0-.16.07-.24.1-.15.07-.3.15-.43.25-.1.07-.23.12-.35.2-.2.1-.4.2-.62.3-.2.08-.4.2-.6.27-.1.04-.2.04-.27 0-.1-.1-.14-.26-.18-.38-.06-.17-.14-.34-.17-.52 0-.2 0-.4.02-.58 0-.05 0-.1-.03-.14.03-.04.05-.1.1-.1.16 0 .3-.02.44-.1-.12-.06-.25-.07-.38-.1-.17-.04-.34-.05-.5-.07-.25-.02-.5 0-.73.04-.12.02-.23.08-.35.1-.2.06-.4.15-.63.2-.22.06-.42.16-.64.23-.16.05-.33.1-.5.13-.26.03-.5.06-.75.08-.1 0-.22 0-.33 0 .03-.1.07-.17.07-.27.12-.48.26-.88.4-1.34.02-.1-.02-.18-.03-.27C.2 7.06.27 6.6.25 5.92c.02-.08.14-.08.2-.08.4.05.77.15 1.1.32.23.1.45.2.65.33.27.13.5.36.8.44.26.07.5.12.77.13.27 0 .54 0 .8-.05-.14-.05-.3-.07-.43-.14-.07-.04-.04-.14 0-.18.1-.12.26-.12.4-.13.12 0 .24.04.35.07.2.06.42.17.65.14.2-.03.4-.03.6-.06.2-.03.4-.05.6-.1.15 0 .28 0 .42-.04.2-.04.43-.05.65-.1.28-.07.57-.08.86-.14.17-.03.35-.05.53-.1-.15-.05-.3-.07-.46-.1-.1-.05-.22-.08-.33-.12 0-.06.03-.12.06-.17.07-.08.17-.12.24-.2.4-.43 1.25-1.35 1.28-1.48z"/></g></g></svg>