<svg xmlns="http://www.w3.org/2000/svg" width="20" height="20"><title>REPORT BTN</title><desc>Created with Sketch.</desc><g fill="none"><g><g><g transform="translate(0 0)"><circle cx="10" cy="10" r="10" fill="#46A0CE"/><path fill="#fff" d="M13.5 6.25C13.5 5 12.5 4 11.25 4 10 4 9 5 9 6.25c0 .98.63 1.8 1.5 2.12V13c0 .83-.67 1.5-1.5 1.5s-1.5-.67-1.5-1.5H9l-3-3v3c0 1.66 1.34 3 3 3s3-1.34 3-3V8.37c.87-.3 1.5-1.14 1.5-2.12zM11.7 7.9c-.66 0-1.2-.54-1.2-1.2 0-.66.54-1.2 1.2-1.2.66 0 1.2.54 1.2 1.2 0 .66-.54 1.2-1.2 1.2z"/></g></g></g></g></svg>