<svg xmlns="http://www.w3.org/2000/svg" width="36" height="36"><title>Oval 7 Copy 5 + Imported Layers</title><desc>Created with Sketch.</desc><g fill="none"><g><g transform="translate(0 0)"><circle cx="18" cy="18" r="18" fill="#999490"/><path fill="#fff" d="M27.96 17.04c-.07-.06-1.6-1.4-4.78-.67-2.27.5-3.53.76-4.67.67.3-.05.6-.12.9-.18.92-.18 1.8-.36 2.25-.4 1.12-.05 2.8-.68 3.13-.83.18-.1.4-.1.58-.13.2-.03.3-.04.34-.13.03-.06.04-.12 0-.2-.05-.13-.26-.26-.6-.38-.54-.18-1.97.13-3.8.55-.73.17-1.37.37-1.94.55-.77.24-1.37.43-1.86.43-.43 0-1.67.1-2.86.23-.26 0-.5 0-.75.02l3.2-2.22c.1-.06.12-.18.06-.27-.06-.1-.18-.12-.27-.06l-1.48.93 2.83-2.37c.08-.07.1-.2.02-.28-.05-.05-.12-.08-.18-.07l.15-.14c.08-.06.1-.2.02-.27-.08-.08-.2-.1-.28 0l-.43.35c.02-.06 0-.14-.05-.2-.07-.06-.2-.07-.27 0l-4.1 3.76 2.47-4.18c.05-.1.02-.22-.07-.27-.1-.07-.2-.04-.27.05L13.2 14.7l1.43-3.42c.04-.1 0-.2-.1-.26-.1-.04-.22 0-.26.1-.14.3-.3.64-.44.98.24-.64.48-1.27.7-1.83.03-.1-.02-.22-.12-.26-.1-.03-.2.02-.24.12 0 0-.1.27-.27.67.03-.16.06-.24.06-.25.04-.1-.02-.2-.12-.24-.1-.03-.2.02-.25.12-.06.15-.96 2.57-1.62 4.4.24-1.88.54-4.37.56-4.52 0-.1-.06-.2-.17-.22-.1 0-.2.06-.22.16l-.02.16c-.02-.08-.1-.14-.17-.15-.1 0-.2.06-.22.17 0 .02-.08.57-.18 1.33-.03-.03-.08-.05-.12-.05-.1 0-.2.06-.22.17l-.16 1.32c.02-1.32.03-2.47.03-2.5 0-.1-.1-.18-.2-.18s-.15 0-.18.2h-.02s0 .05 0 .15c-.02.17-.03.42-.04.8l-.14 2.92c-.07-.63-.14-1.15-.15-1.24-.02-.1-.1-.18-.2-.18-.05 0-.1.02-.14.06-.04.04-.05.1-.05.16 0 .1.04.64.08 1.28-.2-.85-.3-1.32-.4-1.58 0-.08 0-.13 0-.15h-.03c-.07-.17-.1-.17-.18-.17-.06 0-.1.03-.15.07-.04.04-.05.1-.04.17.03.2.46 2.44.67 3.58-.27.03-.57.13-.8.4l-.07.05c-.02.03-.05.06-.07.1-.02 0-.02-.02-.02-.02-.06 0-.12 0-.18-.02-.1 0-.22-.03-.35 0-.17.03-.36.2-.42.37-.04.12-.05.38.03.5.1.16.3.24.44.26 0 0 .08.02.17.02.08 0 .2 0 .27-.05.02.03.04.06.06.1.17.2.4.28.63.35-.26.83-.62 1.98-.75 2.35-.05.15-.08.2-.02.3.04.05.1.08.16.08.07 0 .13-.03.17-.1 0 0 0-.03.05-.14.1-.28.38-.95.64-1.6-.17.87-.36 1.93-.5 2.77-.03.12.04.22.14.24.1.02.2-.04.23-.15l.6-2.5c-.02.74-.04 1.4-.04 1.42 0 .06.02.1.06.14.03.04.08.06.13.06.08 0 .13 0 .17-.2h.03s0-.04 0-.1c.05-.26.1-.7.2-1.52l.05-.4.74 3.97c.02.1.1.17.2.17 0 0 0 0 .02 0 .1-.03.18-.12.17-.23-.04-.3-.27-1.94-.47-3.32.35.96.72 1.95.75 2.03.04.1.15.16.25.13.1-.04.15-.14.12-.25l-.74-2.5 2.18 3.05c.06.1.18.1.27.05.1-.06.1-.18.06-.27l-1.75-2.68 1.46 1.4c.08.06.2.06.28-.02.06-.06.08-.16.03-.23l.97.82c.08.06.2.05.28-.03.07-.08.06-.2-.02-.27-.05-.05-.7-.65-1.4-1.3.7.46 1.3.86 1.37.9.1.06.2.04.27-.05.06-.1.04-.2-.05-.27-.06-.05-.9-.68-1.7-1.25.24.1.42.15.44.16.1.02.2-.02.25-.1.05-.1.02-.2-.07-.26l-.1-.07c.17-.03.33-.08.5-.14.18-.07.3-.16.4-.26.04-.02.08-.05.1-.08.07-.05.12-.1.15-.17l5.38.1s.03 0 .1 0c.48 0 2.9.13 3.07 2.55.05.67-.12 1.2-.5 1.6-.66.74-1.86.83-2.4.84l.43-.5c.05-.05.05-.13 0-.18-.04-.04-.1-.06-.16-.02 0 0-.72.43-1.48.6-.9.2-1.94.28-2 .28-.08 0-.14.05-.14.12 0 .07.05.13.12.14.02 0 2.57.3 3.8.3.07 0 .14 0 .2 0 1.18-.05 2.93-1.03 2.93-3 0-.63-.18-2.78-2.54-3.33-.3-.07-.74-.13-1.28-.18 1.77-.34 2.93-.4 4.1-.37 1.27.02 2.33.1 2.34.1.06 0 .1-.04.13-.1 0-.04 0-.1-.04-.14z"/></g></g></g></svg>