<svg xmlns="http://www.w3.org/2000/svg" width="24" height="21"><title>Imported Layers</title><desc>Created with Sketch.</desc><g fill="none"><g fill="#665F5A"><g><g><path d="M7.46 16.2c-1.26 0-2.28 1.03-2.28 2.3 0 1.26 1.02 2.28 2.28 2.28 1.3 0 2.3-1 2.3-2.27 0-1.3-1-2.3-2.3-2.3z"/><path d="M19.63 16.2c-1.27 0-2.3 1.03-2.3 2.3 0 1.26 1.03 2.28 2.3 2.28 1.26 0 2.28-1.02 2.28-2.27 0-1.3-1-2.3-2.27-2.3z"/><path d="M23.23 3.55c-.18-.22-.45-.35-.94-.35H5.2L4.34.77c-.14-.36-.5-.6-.9-.6h-2.4C.54.16.1.56.1 1.1c0 .52.42.94.94.94H2.8l4.46 12.08c.14.37.5.6.88.6.04 0 .08 0 .12 0l12.54-1.5c.4-.05.72-.34.8-.73l1.82-8.16c.06-.27 0-.57-.2-.8z"/></g></g></g></g></svg>