<svg xmlns="http://www.w3.org/2000/svg" width="36" height="36"><title>Oval 7 Copy 2 + Imported Layers</title><desc>Created with Sketch.</desc><g fill="none"><g><g transform="translate(0 0)"><circle cx="18" cy="18" r="18" fill="#999490"/><path fill="#fff" d="M25.97 24.76c-.16-.27-.5-.86-.92-1.55-.57-.96-1.28-2.16-1.74-2.92-.46-.78-1.42-1.35-2.26-1.85-.67-.4-1.3-.77-1.53-1.15-.15-.26-.67-1.1-1.34-2.2 1.77-2.92 4.33-7.13 4.48-7.4.13-.2.07-.48-.15-.6-.22-.14-.5-.08-.63.14-.04.06-2.45 4-4.25 6.97-1.8-2.97-4.2-6.92-4.24-6.98-.13-.22-.4-.28-.62-.15-.22.12-.3.4-.16.62.16.24 2.7 4.45 4.48 7.37-.66 1.1-1.18 1.95-1.34 2.2-.23.4-.86.77-1.53 1.16-.83.5-1.8 1.07-2.26 1.85-.46.76-1.17 1.96-1.74 2.93-.4.7-.76 1.3-.92 1.56-.2.3-.37.66-.23 1.07.13.4.53.77 1.3 1.23.74.46 1.26.64 1.67.58.44-.07.67-.4.85-.7.16-.26.53-.85.95-1.53.6-.94 1.34-2.12 1.8-2.88.48-.78.54-1.9.6-2.87.04-.77.08-1.5.32-1.9.14-.22.54-.9 1.1-1.8.53.9.94 1.58 1.08 1.8.23.4.27 1.13.32 1.9.05.98.1 2.1.6 2.87.45.76 1.2 1.94 1.8 2.9.4.67.78 1.26.94 1.52.18.3.42.63.85.7.4.06.93-.12 1.7-.58.74-.46 1.14-.84 1.27-1.23.14-.4-.04-.77-.23-1.07z"/></g></g></g></svg>