<svg xmlns="http://www.w3.org/2000/svg" width="63" height="44"><title>Imported Layers</title><desc>Created with Sketch.</desc><g fill="none"><g fill="#444"><path d="M47.55 19.75c-7.04 1.6-10.94 2.35-14.47 2.08.9-.17 1.84-.36 2.75-.55 2.86-.58 5.57-1.14 7-1.2 3.47-.2 8.68-2.15 9.7-2.64.54-.25 1.26-.34 1.78-.4.6-.07.94-.12 1.08-.4.1-.17.1-.37.02-.57-.2-.45-.83-.86-1.9-1.22-1.67-.54-6.1.42-11.74 1.73-2.3.53-4.28 1.15-6.03 1.7-2.4.75-4.27 1.33-5.8 1.34-1.32 0-5.15.35-8.83.72-.82 0-1.6.03-2.33.05l9.95-6.87c.28-.2.35-.57.16-.84-.18-.3-.55-.37-.83-.2l-4.56 2.92 8.76-7.36c.26-.22.3-.6.08-.86-.14-.17-.36-.24-.57-.2l.5-.46c.25-.23.28-.6.05-.86-.22-.25-.6-.27-.85-.05l-1.3 1.13c.06-.2 0-.42-.14-.58-.23-.24-.6-.26-.86-.03l-12.7 11.63L24.1 4.82c.17-.28.07-.65-.2-.83-.3-.18-.67-.1-.85.2l-6.44 10.33 4.42-10.56c.13-.3 0-.66-.32-.8-.3-.13-.66 0-.8.3-.43.96-.9 1.98-1.37 3.03.75-1.98 1.5-3.93 2.16-5.68.12-.3-.04-.66-.35-.78-.3-.12-.66.03-.78.34-.03.03-.35.82-.85 2.07.15-.46.23-.72.24-.74.1-.3-.08-.64-.4-.75-.3-.1-.64.05-.76.36-.17.47-2.95 7.95-5 13.62.75-5.82 1.68-13.52 1.74-14 .04-.3-.2-.6-.52-.66-.32-.05-.63.17-.7.5l-.07.47c-.07-.23-.27-.42-.52-.45-.33-.04-.63.2-.68.52 0 .06-.24 1.75-.57 4.14-.1-.1-.23-.17-.38-.18-.32-.03-.62.2-.66.53L10 9.87c.05-4.04.1-7.6.1-7.67 0-.32-.28-.6-.6-.6-.34 0-.48 0-.58.6-.04.03-.05.2-.05.5-.05.53-.08 1.3-.13 2.47l-.42 9.04c-.24-1.9-.44-3.5-.47-3.78-.05-.34-.3-.57-.6-.57-.2 0-.35.07-.47.2-.1.12-.16.33-.14.5.02.3.13 1.98.26 3.96-.62-2.62-.97-4.08-1.2-4.88-.05-.25-.08-.4-.1-.48-.26-.53-.38-.53-.6-.53-.18 0-.35.1-.47.23-.1.14-.16.36-.12.54.1.57 1.42 7.57 2.08 11.1-.82.1-1.76.38-2.5 1.2l-.18.2c-.08.07-.16.16-.24.25-.2 0-.4-.04-.6-.08-.3-.06-.66-.13-1.05-.05-.54.1-1.13.62-1.3 1.17-.13.35-.15 1.15.1 1.54.28.5.88.75 1.35.83 0 0 .24.04.53.04.26 0 .58-.03.83-.15.07.1.12.2.2.27.52.64 1.27.9 1.96 1.1-.8 2.58-1.94 6.15-2.33 7.3-.17.46-.24.65-.06.92.12.16.3.26.5.26s.4-.1.5-.27c.06-.06.1-.12.2-.47.34-.86 1.17-2.93 2-4.97-.5 2.72-1.1 6-1.56 8.6-.05.33.16.64.48.7.32.08.64-.12.72-.44l1.85-7.72c-.06 2.28-.1 4.34-.1 4.4 0 .17.05.32.16.44.13.1.28.17.44.17.26 0 .4 0 .54-.6.07-.02.07-.14.08-.34.14-.77.32-2.17.63-4.7l.13-1.2 2.3 12.3c.05.3.3.5.6.5.42-.08.64-.38.6-.7-.13-.94-.86-6.07-1.47-10.32 1.1 2.96 2.24 6.04 2.33 6.28.1.3.44.46.75.36.3-.1.48-.43.4-.75l-2.32-7.77 6.73 9.47c.2.27.57.34.84.15.27-.2.35-.56.17-.84l-5.45-8.34 4.52 4.3c.24.22.62.22.85 0 .2-.2.22-.5.1-.74l2.96 2.56c.26.2.64.2.86-.06.22-.25.2-.62-.04-.85-.18-.15-2.2-2-4.4-4 2.2 1.42 4.1 2.66 4.3 2.77.27.18.63.1.82-.16.2-.26.13-.63-.14-.83-.18-.13-2.84-2.1-5.32-3.88.78.27 1.35.48 1.4.5.3.1.63-.03.77-.3.14-.3.04-.63-.22-.8l-.35-.2c.57-.1 1.06-.26 1.56-.45.56-.22.9-.5 1.28-.8.1-.07.2-.15.32-.23.2-.15.33-.33.43-.52l16.66.37s.1 0 .3 0c1.5 0 9 .37 9.53 7.86.15 2.07-.36 3.75-1.5 4.98-2.1 2.27-5.8 2.56-7.45 2.58l1.3-1.56c.14-.15.14-.37 0-.52-.12-.15-.34-.2-.5-.1-.03.03-2.23 1.34-4.6 1.88-2.82.63-6.02.87-6.22.87-.2 0-.4.17-.4.38-.02.22.14.4.36.43.08 0 7.98.92 11.75.92.24 0 .46 0 .67 0 3.65-.15 9.07-3.18 9.07-9.25 0-2-.56-8.67-7.86-10.37-.9-.2-2.25-.4-3.92-.55 5.47-1.04 9.08-1.22 12.65-1.15 4 .07 7.27.3 7.3.3.2 0 .34-.1.4-.25.06-.17.02-.36-.1-.47-.2-.18-4.92-4.34-14.82-2.08z"/></g></g></svg>