<svg xmlns="http://www.w3.org/2000/svg" width="21" height="21"><title>Imported Layers</title><desc>Created with Sketch.</desc><g fill="none"><g fill="#444"><g><path d="M1.97 7.43c0 2.28.9 4.42 2.5 6.03l-1.4 1.4C1.1 12.85 0 10.22 0 7.42S1.1 1.98 3.08 0l1.4 1.4C2.85 3 1.97 5.14 1.97 7.42zm5.5-3.02L6.1 3.03C4.9 4.2 4.25 5.76 4.25 7.42c0 1.67.65 3.24 1.83 4.4l1.38-1.38c-.8-.8-1.25-1.87-1.25-3.02 0-1.13.45-2.2 1.25-3zM17.93 0l-1.4 1.4c1.62 1.6 2.5 3.75 2.5 6.03 0 2.28-.88 4.42-2.5 6.03l1.4 1.4c2-2 3.08-4.63 3.08-7.43S19.9 1.98 17.92 0zM10.5 5.46c-1.1 0-1.97.88-1.97 1.97 0 .72.4 1.35 1 1.7V21h1.95V9.12c.6-.34 1-.97 1-1.7 0-1.08-.9-1.96-1.98-1.96zm4.4-2.44l-1.4 1.4c.82.8 1.27 1.87 1.27 3 0 1.15-.45 2.22-1.25 3.02l1.4 1.4c1.17-1.18 1.82-2.75 1.82-4.4 0-1.68-.65-3.24-1.83-4.42z"/></g></g></g></svg>