<svg xmlns="http://www.w3.org/2000/svg" width="36" height="36"><title>Oval 7 + Imported Layers</title><desc>Created with Sketch.</desc><g fill="none"><g><g transform="translate(0 0)"><circle cx="18" cy="18" r="18" fill="#999490"/><g><path fill="#fff" d="M18.48 13.23c.02-.04.07-.1.13-.05.4.1.7.38 1 .63.18.15.36.3.52.47.4.35.74.73 1.13 1.08.05.04.1.1.18.12.3.06.6.06.92.07 1.35 0 2.7.13 4.04.38.28.03.55.14.85.18.53.14 1.06.27 1.58.43.32.12.66.18.97.3.28.08.55.2.8.3.26.13.5.23.74.4.2.12.4.27.46.5.05.13-.06.2-.13.28-.13.1-.3.15-.45.22 0 0 0 .04 0 .05.18.02.35-.04.52-.05.1.04.14.2.05.3-.12.17-.3.27-.5.36-.2.12-.46.18-.7.26-1.4.44-2.8.6-4.14 1-.1.03-.15.12-.22.18-.1.1-.15.2-.22.3-.22.32-.45.6-.7.9-.1.08-.23.22-.38.16-.12-.03-.17-.15-.18-.26 0-.3-.02-.6 0-.9-.34.05-.7.12-1.04.13-.26.02-.5.07-.75.1-.32.03-.64.1-.96.1-.6 0-1.24.07-1.86 0-.04.14-.15.27-.24.4-.13.14-.2.33-.37.43-.12.06-.2-.05-.24-.15-.04-.03-.07-.13-.14-.1-.44.3-.7.74-1.22 1.06-.08.04-.18.04-.24-.02-.14-.17-.13-.4-.08-.6.07-.55.04-.8.33-1.28-.17-.04-.35-.05-.53-.07-.5-.1-1-.15-1.5-.2-.4-.03-.82-.08-1.23-.02-.14.02-.24.1-.35.14-.2.1-.4.2-.57.33-.15.1-.32.16-.47.25-.27.17-.55.3-.84.44-.28.1-.54.24-.8.36-.13.04-.27.04-.37-.03-.15-.14-.2-.33-.26-.5-.07-.24-.18-.46-.22-.7-.02-.26-.02-.53 0-.8.02-.06 0-.12-.02-.18.04-.05.07-.14.16-.12.2 0 .4-.04.57-.15-.16-.08-.34-.1-.5-.13-.23-.05-.46-.07-.7-.1-.32-.03-.65 0-.97.06-.16.02-.3.1-.47.15-.3.07-.57.2-.86.26-.3.06-.58.2-.87.3-.23.06-.46.15-.7.17-.33.04-.66.08-1 .12-.14 0-.3-.02-.44-.03.04-.1.1-.23.1-.35.17-.65.36-1.2.55-1.82.02-.12-.03-.24-.04-.36-.35-.8-.3-1.43-.3-2.34.02-.12.18-.12.27-.1.53.05 1.04.2 1.5.42.3.13.6.26.87.43.37.2.68.5 1.1.62.33.1.67.16 1.02.17.35 0 .72 0 1.07-.06-.2-.07-.4-.1-.58-.2-.1-.05-.06-.18 0-.24.13-.16.35-.16.53-.17.16 0 .32.05.47.1.3.07.58.23.9.2.26-.05.53-.05.8-.1.27-.04.55-.07.82-.13.2 0 .38-.02.56-.06.3-.05.58-.07.87-.14.4-.08.78-.1 1.17-.18.23-.05.48-.07.7-.14-.2-.06-.42-.1-.62-.15-.15-.05-.3-.08-.45-.14 0-.08.03-.16.07-.23.1-.1.23-.16.33-.26.54-.6 1.7-1.84 1.72-2z"/><path stroke="#fff" stroke-width=".004" d="M18.48 13.23c.02-.04.07-.1.13-.05.4.1.7.38 1 .63.18.15.36.3.52.47.4.35.74.73 1.13 1.08.05.04.1.1.18.12.3.06.6.06.92.07 1.35 0 2.7.13 4.04.38.28.03.55.14.85.18.53.14 1.06.27 1.58.43.32.12.66.18.97.3.28.08.55.2.8.3.26.13.5.23.74.4.2.12.4.27.46.5.05.13-.06.2-.13.28-.13.1-.3.15-.45.22 0 0 0 .04 0 .05.18.02.35-.04.52-.05.1.04.14.2.05.3-.12.17-.3.27-.5.36-.2.12-.46.18-.7.26-1.4.44-2.8.6-4.14 1-.1.03-.15.12-.22.18-.1.1-.15.2-.22.3-.22.32-.45.6-.7.9-.1.08-.23.22-.38.16-.12-.03-.17-.15-.18-.26 0-.3-.02-.6 0-.9-.34.05-.7.12-1.04.13-.26.02-.5.07-.75.1-.32.03-.64.1-.96.1-.6 0-1.24.07-1.86 0-.04.14-.15.27-.24.4-.13.14-.2.33-.37.43-.12.06-.2-.05-.24-.15-.04-.03-.07-.13-.14-.1-.44.3-.7.74-1.22 1.06-.08.04-.18.04-.24-.02-.14-.17-.13-.4-.08-.6.07-.55.04-.8.33-1.28-.17-.04-.35-.05-.53-.07-.5-.1-1-.15-1.5-.2-.4-.03-.82-.08-1.23-.02-.14.02-.24.1-.35.14-.2.1-.4.2-.57.33-.15.1-.32.16-.47.25-.27.17-.55.3-.84.44-.28.1-.54.24-.8.36-.13.04-.27.04-.37-.03-.15-.14-.2-.33-.26-.5-.07-.24-.18-.46-.22-.7-.02-.26-.02-.53 0-.8.02-.06 0-.12-.02-.18.04-.05.07-.14.16-.12.2 0 .4-.04.57-.15-.16-.08-.34-.1-.5-.13-.23-.05-.46-.07-.7-.1-.32-.03-.65 0-.97.06-.16.02-.3.1-.47.15-.3.07-.57.2-.86.26-.3.06-.58.2-.87.3-.23.06-.46.15-.7.17-.33.04-.66.08-1 .12-.14 0-.3-.02-.44-.03.04-.1.1-.23.1-.35.17-.65.36-1.2.55-1.82.02-.12-.03-.24-.04-.36-.35-.8-.3-1.43-.3-2.34.02-.12.18-.12.27-.1.53.05 1.04.2 1.5.42.3.13.6.26.87.43.37.2.68.5 1.1.62.33.1.67.16 1.02.17.35 0 .72 0 1.07-.06-.2-.07-.4-.1-.58-.2-.1-.05-.06-.18 0-.24.13-.16.35-.16.53-.17.16 0 .32.05.47.1.3.07.58.23.9.2.26-.05.53-.05.8-.1.27-.04.55-.07.82-.13.2 0 .38-.02.56-.06.3-.05.58-.07.87-.14.4-.08.78-.1 1.17-.18.23-.05.48-.07.7-.14-.2-.06-.42-.1-.62-.15-.15-.05-.3-.08-.45-.14 0-.08.03-.16.07-.23.1-.1.23-.16.33-.26.54-.6 1.7-1.84 1.72-2z"/></g></g></g></g></svg>