<?xml version="1.0" encoding="UTF-8" standalone="no"?>
<svg width="27px" height="24px" viewBox="0 0 27 24" version="1.1" xmlns="http://www.w3.org/2000/svg" xmlns:xlink="http://www.w3.org/1999/xlink" xmlns:sketch="http://www.bohemiancoding.com/sketch/ns">
    <!-- Generator: Sketch 3.5.1 (25234) - http://www.bohemiancoding.com/sketch -->
    <title>BYOB ICON</title>
    <desc>Created with Sketch.</desc>
    <defs></defs>
    <g id="Boats" stroke="none" stroke-width="1" fill="none" fill-rule="evenodd" sketch:type="MSPage">
        <g sketch:type="MSArtboardGroup" transform="translate(-34.000000, -84.000000)" id="SUBHEADER" fill="#444444">
            <g sketch:type="MSLayerGroup" transform="translate(-310.000000, 64.000000)">
                <g id="BYOB-ICON" transform="translate(358.000000, 32.000000) scale(1, -1) translate(-358.000000, -32.000000) translate(344.000000, 20.000000)" sketch:type="MSShapeGroup">
                    <path d="M12.505145,10.392 C10.125778,8.09427692 7.88109211,5.82683077 5.50060274,3.71113846 C5.04755031,3.30867692 4.05090978,3.50178462 3.07035616,3.39507692 C3.19755503,1.7712 4.59749079,1.0992 5.7243231,0.262523077 C5.77969202,0.2208 6.55148984,0.913107692 6.51033727,0.980676923 C5.75500047,2.23827692 6.89043741,2.70424615 7.50136608,3.34486154 C9.42019839,5.36676923 11.3697081,7.35729231 13.4987926,9.55827692 C16.003488,7.02276923 18.2481738,4.76123077 20.4726575,2.47938462 C20.6638299,2.28332308 20.7547397,1.94843077 20.7955182,1.66596923 C20.8583694,1.22030769 20.8362966,0.761353846 20.8508871,0.308676923 C21.3566897,0.506215385 21.9118753,0.627323077 22.3518337,0.9216 C22.8325706,1.2432 23.2710326,1.67741538 23.5998791,2.14892308 C23.8235994,2.472 23.8265923,2.94535385 23.9272291,3.35187692 C23.534035,3.3936 23.1322362,3.40098462 22.7465243,3.4848 C22.2538158,3.59003077 21.632786,3.61292308 21.3129183,3.9216 C17.7981143,7.32110769 14.3158583,10.7508923 10.8814889,14.2283077 C10.521965,14.5931077 10.2634521,15.4139077 10.4254436,15.8540308 C10.934239,17.2238769 10.5601247,18.1399385 9.49165423,19.0674462 C8.11491356,20.2644923 6.79391592,21.5464615 5.60311006,22.9225846 C4.47328484,24.2248615 3.4268871,24.0546462 2.19941804,23.1777231 C-0.343436939,21.3618462 -0.489715635,19.9558154 1.69099669,17.7777231 C2.70634294,16.7638154 3.79239679,15.8134154 4.74227303,14.7433846 C5.69364573,13.6744615 6.66110534,13.0412308 8.15756259,13.6644923 C8.47743033,13.7970462 9.08985546,13.6530462 9.36595182,13.4119385 C10.3891545,12.5220923 11.330052,11.5384615 12.505145,10.392 L12.505145,10.392 Z" id="Fill-1"></path>
                    <path d="M14.5029154,11.9712 C14.6693963,11.8212923 14.6035522,11.6610462 15.2481512,11.0769231 C15.9436297,11.9350154 16.8321512,12.5856 17.5014417,13.1870769 C17.8579726,13.5101538 18.5961001,13.7782154 18.994906,13.6312615 C20.4273897,13.0962462 21.3245158,13.6715077 22.2422182,14.6654769 C23.4771696,16.0009846 24.7644969,17.3017846 26.1352518,18.4992 C27.3425187,19.5577846 27.2299103,20.5458462 26.3720661,21.7022769 C24.4652055,24.2739692 23.0241171,24.408 20.7663373,22.1826462 C19.9316882,21.3618462 19.119112,20.5152 18.2601455,19.7206154 C17.0513821,18.6044308 16.0607274,17.6392615 16.645094,15.6084923 C16.8863977,14.7662769 15.4236108,13.4466462 14.5029154,11.9712 L14.5029154,11.9712 Z" id="Fill-2"></path>
                </g>
            </g>
        </g>
    </g>
</svg>