<?xml version="1.0" encoding="UTF-8" standalone="no"?>
<svg width="34px" height="34px" viewBox="0 0 34 34" version="1.1" xmlns="http://www.w3.org/2000/svg" xmlns:xlink="http://www.w3.org/1999/xlink" xmlns:sketch="http://www.bohemiancoding.com/sketch/ns">
    <!-- Generator: Sketch 3.4 (15575) - http://www.bohemiancoding.com/sketch -->
    <title>Shape</title>
    <desc>Created with Sketch.</desc>
    <defs></defs>
    <g id="Page-1" stroke="none" stroke-width="1" fill="none" fill-rule="evenodd" sketch:type="MSPage">
        <g id="Unknown" sketch:type="MSLayerGroup" fill="#FFFFFF">
            <g id="Group" sketch:type="MSShapeGroup">
                <g id="Shape">
                    <path d="M17,34 C26.4,34 34,26.4 34,17 C34,7.6 26.4,0 17,0 C7.6,0 0,7.6 0,17 C0,26.4 7.6,34 17,34 L17,34 Z M23.55,12.5 C23.55,9.3 20.79,6.8 16.77,6.8 C15.39,6.8 14.31,7.04 13.5,7.37 L13.32,11.24 C14.1,10.94 15.45,10.67 16.42,10.67 C18.24,10.67 19.38,11.24 19.38,12.23 C19.38,13.01 18.63,13.23 17.13,13.63 C15.27,14.15 14.13,15.05 14.13,16.61 C14.13,17.91 15.06,19.35 16.63,19.98 C16.89,19.98 19.56,19.53 19.56,19.53 C19.23,19.2 17.91,18.18 17.91,17.83 C18.13,17.31 18.88,17.07 20.08,16.71 C22,16.08 23.56,14.91 23.56,12.51 L23.55,12.5 Z M20.22,23.9 C20.22,22.28 19.08,21.38 17.37,21.38 C15.69,21.38 14.55,22.28 14.55,23.9 C14.55,25.55 15.69,26.45 17.37,26.45 C19.07,26.45 20.22,25.55 20.22,23.9 L20.22,23.9 Z"></path>
                </g>
            </g>
        </g>
    </g>
</svg>