<svg xmlns="http://www.w3.org/2000/svg" width="36" height="36"><title>Oval 7 Copy 3 + Imported Layers</title><desc>Created with Sketch.</desc><g fill="none"><g><g transform="translate(0 0)"><circle cx="18" cy="18" r="18" fill="#999490"/><g fill="#fff"><path d="M17.7 12.92c-2.86 0-5.17 2.3-5.17 5.15 0 2.85 2.3 5.16 5.16 5.16 2.83 0 5.14-2.3 5.14-5.16 0-2.84-2.3-5.15-5.15-5.15zm.77 5.52c0 .32-.27.6-.6.6h-2.86c-.32 0-.6-.28-.6-.6 0-.33.28-.6.6-.6h2.3v-3.7c0-.34.25-.6.58-.6.33 0 .6.26.6.6v4.3z"/><path d="M24.22 12.6c-.17-.28-.38-.75-.46-1.05l-.74-2.85c-.08-.3-.4-.55-.72-.55h-.13c-.3 0-.57.26-.57.57v1.1c0 .3-.25.48-.54.37 0 0-1.96-.75-3.37-.75-1.42 0-3.38.74-3.38.74-.3.1-.54-.07-.54-.38v-1.1c0-.3-.26-.57-.58-.57h-.13c-.32 0-.64.25-.72.55l-.74 2.85c-.07.3-.27.77-.45 1.03 0 0-2.1 3.17-2.1 5.5 0 2.3 2.1 5.48 2.1 5.48.18.26.38.73.46 1.04l.75 2.84c.08.3.4.56.72.56h.13c.32 0 .58-.26.58-.57v-1.1c0-.3.24-.48.53-.37 0 0 1.98.74 3.4.74 1.4 0 3.36-.74 3.36-.74.3-.1.53.06.53.37v1.1c0 .3.25.57.57.57h.13c.32 0 .64-.25.72-.56l.74-2.84c.08-.3.28-.77.46-1.04 0 0 2.1-3.17 2.1-5.5 0-2.3-2.1-5.47-2.1-5.47zM17.7 24.4c-3.5 0-6.34-2.83-6.34-6.33s2.84-6.32 6.33-6.32c3.48 0 6.3 2.83 6.3 6.32 0 3.5-2.82 6.33-6.3 6.33z"/><path d="M27.03 16.35h.86c.46 0 .85.52.85 1.15v1.15c0 .63-.4 1.15-.86 1.15h-.87v-3.45z"/></g></g></g></g></svg>