<svg xmlns="http://www.w3.org/2000/svg" width="36" height="36"><title>Oval 7 Copy + Imported Layers</title><desc>Created with Sketch.</desc><g fill="none"><g><g transform="translate(0 0)"><circle cx="18" cy="18" r="18" fill="#999490"/><path fill="#fff" d="M23.98 20.88c0-.03 0-.05 0-.08 0 0 0-.02 0-.02 0-.2-.03-.4-.05-.6-.54-4.1-4.74-9.77-5.73-11.06-.13-.17-.3-.16-.44.03-1.03 1.34-5.17 6.95-5.7 11.03-.03.2-.05.4-.06.6 0 0 0 0 0 .02 0 .03 0 .05 0 .08 0 .04 0 .08 0 .13s0 .1 0 .13c.07 3.25 2.72 5.87 6 5.87 3.3 0 5.98-2.68 5.98-6 0-.03 0-.08 0-.12zm-10.02.28c0-.02 0-.05 0-.07 0-.03 0-.06 0-.08 0-.02 0-.03 0-.05 0-.12.02-.24.04-.35.1-.77.44-1.64.85-2.5.3-.64 1-.23.9.23-.04.25-.16 1.55-.16 2.66 0 1.13.65 1.9.98 2.37.33.46-.3 1-.8.72-1.05-.57-1.8-1.67-1.82-2.94z"/></g></g></g></svg>