<?xml version="1.0" encoding="UTF-8" standalone="no"?>
<svg width="29px" height="29px" viewBox="0 0 29 29" version="1.1" xmlns="http://www.w3.org/2000/svg" xmlns:xlink="http://www.w3.org/1999/xlink" xmlns:sketch="http://www.bohemiancoding.com/sketch/ns">
    <!-- Generator: Sketch 3.4 (15575) - http://www.bohemiancoding.com/sketch -->
    <title>Page 1</title>
    <desc>Created with Sketch.</desc>
    <defs></defs>
    <g id="Page-1" stroke="none" stroke-width="1" fill="none" fill-rule="evenodd" sketch:type="MSPage">
        <g sketch:type="MSLayerGroup" fill="#655F5B">
            <path d="M20.8043478,0.315217391 L17.6521739,0.315217391 C14.1225797,0.315217391 11.1902174,4.28653623 10.1823623,9.96044928 C9.83562319,9.83394203 9.48930435,9.77173913 9.14130435,9.77173913 L5.73611594,9.77173913 L5.67391304,9.77173913 C2.64824638,9.92934783 0.315217391,14.0271739 0.315217391,19.2282609 C0.315217391,24.4293478 2.64824638,28.5271739 5.67391304,28.6847826 L5.73611594,28.6847826 L9.10852174,28.6847826 C10.6219855,28.6847826 11.9454783,27.6437246 12.9222319,25.9432319 C14.2469855,27.6769275 15.8873768,28.6847826 17.6521739,28.6847826 L20.8043478,28.6847826 C25.2173913,28.6847826 28.6847826,22.4426377 28.6847826,14.5 C28.6847826,6.55736232 25.2173913,0.315217391 20.8043478,0.315217391 L20.8043478,0.315217391 Z M22.7578551,2.55284058 C22.9469855,2.67934783 23.1356957,2.83695652 23.326087,2.99456522 L22.3182319,2.99456522 C22.1917246,2.83695652 22.0652174,2.67934783 21.9403913,2.55284058 L22.7578551,2.55284058 Z M10.9061014,15.4456522 C10.8438986,15.2258406 10.7795942,14.9728261 10.7173913,14.7530145 L12.166971,14.7530145 L12.2295942,14.7530145 C12.2917971,14.9728261 12.3872029,15.2258406 12.4494058,15.4456522 L10.9061014,15.4456522 Z M12.5775942,16.2336957 L12.6397971,16.2336957 C12.7024203,16.5178116 12.7352029,16.8019275 12.7974058,17.083942 L11.2213188,17.083942 C11.1902174,16.8002464 11.1263333,16.5161304 11.0948116,16.2336957 L12.5775942,16.2336957 Z M10.4332754,13.9960725 C10.3710725,13.8384638 10.3067681,13.6497536 10.2445652,13.4921449 L11.6008406,13.4921449 C11.631942,13.4921449 11.6630435,13.4921449 11.6958261,13.4606232 C11.7912319,13.6182319 11.8534348,13.8073623 11.9488406,13.964971 L10.4332754,13.964971 L10.4332754,13.9960725 Z M10.9061014,12.4199855 L10.9687246,12.4199855 C11.0309275,12.514971 11.1263333,12.6086957 11.1885362,12.7041014 L9.83268116,12.7041014 C9.77005797,12.6086957 9.73727536,12.514971 9.67507246,12.4199855 L10.9061014,12.4199855 Z M9.1102029,11.3478261 C9.42542029,11.3478261 9.77173913,11.4432319 10.0869565,11.631942 L9.14130435,11.631942 C9.04589855,11.5365362 8.98369565,11.4432319 8.88828986,11.3478261 L9.1102029,11.3478261 Z M5.83152174,27.1086957 C3.6872029,27.1086957 1.89130435,23.5147971 1.89130435,19.2282609 C1.89130435,14.9417246 3.6872029,11.3478261 5.83152174,11.3478261 C7.97584058,11.3478261 9.77173913,14.9417246 9.77173913,19.2282609 C9.77173913,23.5147971 7.97584058,27.1086957 5.83152174,27.1086957 L5.83152174,27.1086957 Z M9.1102029,27.1086957 L8.92149275,27.1086957 C9.01647826,27.0132899 9.07910145,26.9199855 9.17408696,26.8245797 L10.1197391,26.8245797 C9.77173913,27.0132899 9.45652174,27.1086957 9.1102029,27.1086957 L9.1102029,27.1086957 Z M11.0015072,26.0365362 L10.9388841,26.0365362 L9.70953623,26.0365362 C9.77173913,25.9415507 9.80452174,25.8478261 9.86714493,25.7524203 L11.223,25.7524203 C11.1280145,25.8478261 11.0637101,25.9432319 11.0015072,26.0365362 L11.0015072,26.0365362 Z M11.6941449,24.9975797 C11.6630435,24.9975797 11.631942,24.966058 11.5991594,24.966058 L10.2428841,24.966058 C10.3055072,24.8084493 10.3693913,24.6508406 10.4315942,24.4621304 L11.9126957,24.4621304 C11.8517536,24.6491594 11.7895507,24.8067681 11.6941449,24.9975797 L11.6941449,24.9975797 Z M12.2312754,23.7035072 L12.1686522,23.7035072 L10.7173913,23.7035072 C10.7795942,23.4836957 10.8438986,23.2622029 10.9061014,23.0108696 L12.451087,23.0108696 C12.3888841,23.2306812 12.3245797,23.4836957 12.2312754,23.7035072 L12.2312754,23.7035072 Z M12.6397971,22.2228261 L12.5775942,22.2228261 L11.0637101,22.2228261 C11.1263333,21.9387101 11.1591159,21.6545942 11.1902174,21.3725797 L12.7663043,21.3725797 C12.7352029,21.6545942 12.7041014,21.9387101 12.6397971,22.2228261 L12.6397971,22.2228261 Z M12.8617101,20.5845362 L12.8617101,20.5845362 L11.2856232,20.5845362 C11.3167246,20.2693188 11.3167246,19.9541014 11.3478261,19.6388841 L12.923913,19.6388841 C12.923913,19.9541014 12.8928116,20.2693188 12.8617101,20.5845362 L12.8617101,20.5845362 Z M11.3478261,18.8508406 C11.3478261,18.5356232 11.3167246,18.2204058 11.2856232,17.9051884 L12.8301884,17.9051884 L12.8301884,17.9051884 C12.8617101,18.2204058 12.8617101,18.5356232 12.8928116,18.881942 L11.3478261,18.881942 L11.3478261,18.8508406 Z M17.6521739,27.1086957 C16.1714928,27.1086957 14.7841159,26.0365362 13.7119565,24.2406377 C14.2158841,22.791058 14.5,21.0884638 14.5,19.2282609 C14.5,15.541058 13.3656377,12.3888841 11.631942,10.8438986 C12.451087,5.70501449 14.8774203,1.89130435 17.6521739,1.89130435 C21.0573623,1.89130435 23.9565217,7.66062319 23.9565217,14.5 C23.9565217,21.3393768 21.0573623,27.1086957 17.6521739,27.1086957 L17.6521739,27.1086957 Z M22.7578551,26.4471594 L21.9387101,26.4471594 C22.0652174,26.2895507 22.1917246,26.1630435 22.3165507,26.0054348 L23.326087,26.0054348 C23.1373768,26.1630435 22.9797681,26.3206522 22.7578551,26.4471594 L22.7578551,26.4471594 Z M24.083029,25.2173913 L22.8843623,25.2173913 C23.041971,24.9332754 23.2306812,24.6491594 23.3882899,24.3671449 L24.7117826,24.3671449 C24.4915507,24.6823623 24.2717391,24.9643768 24.083029,25.2173913 L24.083029,25.2173913 Z M25.1219855,23.5791014 L23.735029,23.5791014 C23.9237391,23.2012609 24.0813478,22.791058 24.2078551,22.3804348 L25.6574348,22.3804348 C25.5015072,22.791058 25.3127971,23.1995797 25.1219855,23.5791014 L25.1219855,23.5791014 Z M25.9743333,21.5923913 L24.4932319,21.5923913 C24.6508406,21.1195652 24.7773478,20.6156377 24.9038551,20.1117101 L26.4173188,20.1117101 C26.2895507,20.6156377 26.131942,21.1195652 25.9743333,21.5923913 L25.9743333,21.5923913 Z M26.6047681,19.3236667 L25.0597826,19.3236667 C25.1551884,18.7554348 25.2484928,18.1888841 25.3438986,17.589971 L26.8888841,17.589971 C26.8245797,18.1872029 26.7312754,18.7554348 26.6047681,19.3236667 L26.6047681,19.3236667 Z M26.9821884,16.8019275 L25.4061014,16.8019275 C25.4687246,16.1714928 25.5015072,15.541058 25.5015072,14.8791014 L27.0775942,14.8791014 C27.1086957,15.541058 27.0464928,16.1714928 26.9821884,16.8019275 L26.9821884,16.8019275 Z M27.1086957,14.1225797 L25.5326087,14.1225797 C25.5326087,13.4606232 25.5015072,12.8301884 25.4372029,12.1997536 L27.0132899,12.1997536 C27.0464928,12.8285072 27.1086957,13.458942 27.1086957,14.1225797 L27.1086957,14.1225797 Z M26.9199855,11.410029 L25.375,11.410029 C25.3127971,10.8111159 25.2173913,10.2445652 25.0908841,9.67633333 L26.6358696,9.67633333 C26.7312754,10.2445652 26.8245797,10.8127971 26.9199855,11.410029 L26.9199855,11.410029 Z M26.416058,8.88828986 L24.9021739,8.88828986 C24.7756667,8.38436232 24.6491594,7.88043478 24.4915507,7.4076087 L25.9726522,7.4076087 C26.131942,7.88043478 26.2895507,8.38436232 26.416058,8.88828986 L26.416058,8.88828986 Z M25.6902174,6.61956522 L24.2406377,6.61956522 C24.083029,6.20894203 23.9254203,5.80042029 23.7678116,5.42089855 L25.1551884,5.42089855 C25.3127971,5.80042029 25.5015072,6.20894203 25.6902174,6.61956522 L25.6902174,6.61956522 Z M23.3571884,4.63285507 C23.1995797,4.34915942 23.041971,4.06504348 22.8532609,3.7826087 L24.0519275,3.7826087 C24.2717391,4.03562319 24.4621304,4.31763768 24.6508406,4.63285507 L23.3571884,4.63285507 Z" id="Fill-1" sketch:type="MSShapeGroup"></path>
            <path d="M19.6388841,10.1823623 C19.8586957,10.1823623 20.049087,9.99323188 20.049087,9.77173913 C20.049087,9.55192754 19.8603768,9.36111594 19.6388841,9.36111594 L18.0627971,9.36111594 L18.0627971,8.19565217 C18.0627971,7.97584058 17.8736667,7.78502899 17.6521739,7.78502899 C17.4323623,7.78502899 17.2415507,7.97415942 17.2415507,8.19565217 L17.2415507,9.39431884 L17.1465652,9.39431884 C16.1055072,9.39431884 15.2863623,10.5925652 15.2863623,12.1686522 C15.2863623,13.7447391 16.1055072,14.9434058 17.1465652,14.9434058 L17.2415507,14.9434058 L17.2415507,18.8836232 L15.6654638,18.8836232 C15.4456522,18.8836232 15.2552609,19.0723333 15.2552609,19.2938261 C15.2552609,19.514058 15.443971,19.7044493 15.6654638,19.7044493 L17.2415507,19.7044493 L17.2415507,20.8043478 C17.2415507,21.0241594 17.4306812,21.214971 17.6521739,21.214971 C17.8719855,21.214971 18.0627971,21.0258406 18.0627971,20.8043478 L18.0627971,19.6056812 L18.1577826,19.6056812 C19.1988406,19.6056812 20.0179855,18.4074348 20.0179855,16.8313478 C20.0179855,15.2552609 19.1988406,14.0565942 18.1577826,14.0565942 L18.0627971,14.0565942 L18.0627971,10.1823623 L19.6388841,10.1823623 Z M17.2747536,14.1225797 L17.1793478,14.1225797 C16.6754203,14.1225797 16.1071884,13.3030145 16.1071884,12.1358696 C16.1071884,10.9704058 16.6754203,10.1491594 17.1793478,10.1491594 L17.2747536,10.1491594 L17.2747536,14.1225797 Z M18.1561014,14.9106232 C18.660029,14.9106232 19.2282609,15.7297681 19.2282609,16.896913 C19.2282609,18.0627971 18.660029,18.8836232 18.1561014,18.8836232 L18.0611159,18.8836232 L18.0611159,14.9106232 L18.1561014,14.9106232 Z" id="Fill-2" sketch:type="MSShapeGroup"></path>
            <path d="M7.25,20.0785072 C7.03018841,20.0474058 6.83937681,20.173913 6.77717391,20.3937246 C6.71497101,20.7404638 6.61956522,21.0556812 6.49305797,21.3082754 C6.36655072,21.5612899 6.24046377,21.75 6.11563768,21.8437246 C5.98913043,21.9387101 5.8954058,22.0013333 5.80042029,22.0013333 C5.3275942,22.0013333 4.69715942,20.9602754 4.69715942,19.2265797 C4.69715942,17.4928841 5.35869565,16.4522464 5.80042029,16.4522464 C5.8954058,16.4522464 6.02023188,16.5144493 6.11563768,16.6098551 C6.24214493,16.735942 6.39975362,16.9250725 6.49305797,17.1448841 C6.61956522,17.3978986 6.71328986,17.7131159 6.77717391,18.0594348 C6.80827536,18.2481449 6.96588406,18.3746522 7.1545942,18.3746522 L7.25,18.3746522 C7.46981159,18.3435507 7.59631884,18.1216377 7.56521739,17.9018261 C7.46981159,17.4912029 7.37650725,17.1137826 7.21889855,16.7985652 C7.06128986,16.4522464 6.87257971,16.1992319 6.65066667,16.0105217 C6.49305797,15.8840145 6.36655072,15.7902899 6.20894203,15.7264058 L6.20894203,14.4655362 C6.20894203,14.2457246 6.02023188,14.054913 5.79873913,14.054913 C5.57850725,14.054913 5.35869565,14.2801884 5.35869565,14.5 L5.35869565,15.7608696 C4.47524638,16.076087 3.84481159,17.4634638 3.84481159,19.2282609 C3.84481159,20.993058 4.47524638,22.3804348 5.35869565,22.6956522 L5.35869565,23.9565217 C5.35869565,24.1763333 5.5474058,24.3671449 5.76931884,24.3671449 C5.98913043,24.3671449 6.17952174,24.1780145 6.17952174,23.9565217 L6.17952174,22.6956522 C6.33713043,22.6334493 6.49473913,22.5380435 6.62124638,22.4115362 C6.84105797,22.2228261 7.03144928,21.9387101 7.18905797,21.6234928 C7.34666667,21.3082754 7.47317391,20.9308551 7.5357971,20.5202319 C7.59631884,20.3315217 7.43871014,20.1117101 7.25,20.0785072 L7.25,20.0785072 Z" id="Fill-3" sketch:type="MSShapeGroup"></path>
        </g>
    </g>
</svg>