<?xml version="1.0" encoding="UTF-8" standalone="no"?>
<svg width="36px" height="36px" viewBox="0 0 36 36" version="1.1" xmlns="http://www.w3.org/2000/svg" xmlns:xlink="http://www.w3.org/1999/xlink" xmlns:sketch="http://www.bohemiancoding.com/sketch/ns">
    <!-- Generator: Sketch 3.3.1 (12002) - http://www.bohemiancoding.com/sketch -->
    <title>Oval 7 Copy 3 + Imported Layers</title>
    <desc>Created with Sketch.</desc>
    <defs></defs>
    <g id="Water" stroke="none" stroke-width="1" fill="none" fill-rule="evenodd" sketch:type="MSPage">
        <g sketch:type="MSArtboardGroup" transform="translate(-413.000000, -1566.000000)" id="THE-STATS">
            <g sketch:type="MSLayerGroup" transform="translate(413.000000, 1148.000000)">
                <g id="Oval-7-Copy-3-+-Imported-Layers" transform="translate(0.000000, 418.000000)" sketch:type="MSShapeGroup">
                    <circle id="Oval-7-Copy-3" fill="#999490" cx="18" cy="18" r="18"></circle>
                    <g id="Imported-Layers" transform="translate(9.000000, 8.000000)" fill="#FFFFFF">
                        <path d="M8.68676471,4.91852941 C5.84441176,4.91852941 3.53176471,7.23117647 3.53176471,10.0735294 C3.53176471,12.9158824 5.84441176,15.2285294 8.68676471,15.2285294 C11.5291176,15.2285294 13.8417647,12.9158824 13.8417647,10.0735294 C13.8417647,7.23117647 11.5291176,4.91852941 8.68676471,4.91852941 L8.68676471,4.91852941 Z M9.47147059,10.4364706 C9.47147059,10.7641176 9.205,11.0294118 8.87882353,11.0294118 L6.00529412,11.0294118 C5.67794118,11.0294118 5.41235294,10.7641176 5.41235294,10.4364706 C5.41235294,10.1091176 5.67794118,9.84382353 6.00529412,9.84382353 L8.28705882,9.84382353 L8.28705882,6.12588235 C8.28705882,5.79852941 8.55235294,5.53294118 8.87970588,5.53294118 C9.20735294,5.53294118 9.47264706,5.79852941 9.47264706,6.12588235 L9.47264706,10.4364706 L9.47147059,10.4364706 Z" id="Fill-1"></path>
                        <path d="M15.2205882,4.58529412 C15.0470588,4.32088235 14.8391176,3.85441176 14.76,3.54882353 L14.0235294,0.703235294 C13.9441176,0.397647059 13.6202941,0.147058824 13.3041176,0.147058824 L13.1708824,0.147058824 C12.855,0.147058824 12.5964706,0.405588235 12.5964706,0.721470588 L12.5964706,1.81529412 C12.5964706,2.13117647 12.3541176,2.29882353 12.0588235,2.18852941 C12.0588235,2.18852941 10.0952941,1.45235294 8.68794118,1.45235294 C7.28058824,1.45235294 5.31705882,2.18852941 5.31705882,2.18852941 C5.02058824,2.3 4.77941176,2.13117647 4.77941176,1.81529412 L4.77941176,0.721470588 C4.77705882,0.405588235 4.51852941,0.147058824 4.20264706,0.147058824 L4.06941176,0.147058824 C3.75352941,0.147058824 3.42941176,0.397647059 3.35029412,0.703235294 L2.61264706,3.54764706 C2.53323529,3.85352941 2.32647059,4.32 2.15176471,4.58411765 C2.15176471,4.58411765 0.0644117647,7.755 0.0644117647,10.0723529 C0.0644117647,12.3897059 2.15176471,15.5605882 2.15176471,15.5605882 C2.32529412,15.825 2.53323529,16.2914706 2.61264706,16.5970588 L3.35029412,19.4417647 C3.42941176,19.7494118 3.75352941,20 4.06941176,20 L4.20264706,20 C4.51852941,20 4.77705882,19.7414706 4.77705882,19.4255882 L4.77705882,18.3317647 C4.77705882,18.0158824 5.01941176,17.8482353 5.31470588,17.9594118 C5.31470588,17.9594118 7.27823529,18.6958824 8.68558824,18.6958824 C10.0929412,18.6958824 12.0564706,17.9594118 12.0564706,17.9594118 C12.3517647,17.8482353 12.5941176,18.0170588 12.5941176,18.3317647 L12.5941176,19.4255882 C12.5941176,19.7414706 12.8526471,20 13.1685294,20 L13.3020588,20 C13.6179412,20 13.9417647,19.7494118 14.0211765,19.4438235 L14.7588235,16.5994118 C14.8379412,16.2926471 15.0447059,15.8261765 15.2194118,15.5629412 C15.2194118,15.5629412 17.3070588,12.3920588 17.3070588,10.0747059 C17.3082353,7.75617647 15.2205882,4.58529412 15.2205882,4.58529412 L15.2205882,4.58529412 Z M8.68676471,16.3958824 C5.19529412,16.3958824 2.36441176,13.565 2.36441176,10.0735294 C2.36441176,6.58205882 5.19529412,3.75117647 8.68676471,3.75117647 C12.1782353,3.75117647 15.0091176,6.58205882 15.0091176,10.0735294 C15.0091176,13.565 12.1782353,16.3958824 8.68676471,16.3958824 L8.68676471,16.3958824 Z" id="Fill-2"></path>
                        <path d="M18.0261765,8.34911765 L18.8891176,8.34911765 C19.3635294,8.34911765 19.7505882,8.86617647 19.7505882,9.49911765 L19.7505882,10.6491176 C19.7505882,11.2808824 19.3623529,11.7991176 18.8891176,11.7991176 L18.0261765,11.7991176 L18.0261765,8.34911765 Z" id="Fill-3"></path>
                    </g>
                </g>
            </g>
        </g>
    </g>
</svg>