<?xml version="1.0" encoding="UTF-8" standalone="no"?>
<svg width="36px" height="36px" viewBox="0 0 36 36" version="1.1" xmlns="http://www.w3.org/2000/svg" xmlns:xlink="http://www.w3.org/1999/xlink" xmlns:sketch="http://www.bohemiancoding.com/sketch/ns">
    <!-- Generator: Sketch 3.3.1 (12002) - http://www.bohemiancoding.com/sketch -->
    <title>Oval 7 Copy 4 + Imported Layers</title>
    <desc>Created with Sketch.</desc>
    <defs></defs>
    <g id="Water" stroke="none" stroke-width="1" fill="none" fill-rule="evenodd" sketch:type="MSPage">
        <g sketch:type="MSArtboardGroup" transform="translate(-413.000000, -1673.000000)" id="THE-STATS">
            <g sketch:type="MSLayerGroup" transform="translate(413.000000, 1148.000000)">
                <g id="Oval-7-Copy-4-+-Imported-Layers" transform="translate(0.000000, 525.000000)" sketch:type="MSShapeGroup">
                    <circle id="Oval-7-Copy-4" fill="#999490" cx="18" cy="18" r="18"></circle>
                    <g id="Imported-Layers" transform="translate(9.000000, 8.000000)" fill="#FFFFFF">
                        <path d="M17.82,10.0854795 L13.5958904,5.17671233 C13.5958904,5.14767123 13.5671233,5.17671233 13.5391781,5.17671233 L9.48630137,12.0547945 C9.48630137,12.0547945 9.45753425,12.0835616 9.45753425,12.0547945 L1.26712329,10.3424658 C1.23835616,10.3424658 1.23835616,10.3424658 1.23835616,10.3712329 L1.23835616,16.4789041 C1.23835616,16.4789041 1.23835616,16.5079452 1.26712329,16.5079452 L9.45753425,19.9882192 L9.5430137,19.9882192 L10.8561644,19.4178082 C10.8849315,19.4178082 10.8849315,19.3890411 10.8849315,19.3610959 L10.8849315,13.2534247 C10.8849315,13.2246575 10.8849315,13.2246575 10.9139726,13.1967123 L14.1961644,11.8268493 C14.2252055,11.8268493 14.2528767,11.8268493 14.2528767,11.8835616 L14.2528767,17.9054795 C14.2528767,17.9345205 14.2819178,17.9621918 14.309589,17.9621918 L17.82,16.4780822 L17.8487671,16.4490411 L17.82,10.0854795 C17.8479452,10.1145205 17.82,10.1145205 17.82,10.0854795 L17.82,10.0854795 Z" id="Fill-1"></path>
                        <path d="M19.960274,9.40054795 L13.5958904,1.98082192 C13.5671233,1.95205479 13.5671233,1.95205479 13.5391781,1.95205479 L12.5972603,1.95205479 C12.5684932,1.95205479 12.5405479,1.92328767 12.5405479,1.89534247 L12.5405479,0.553424658 C12.5405479,0.524383562 12.569589,0.496438356 12.5972603,0.496438356 L12.7684932,0.496438356 C12.7975342,0.496438356 12.8252055,0.467671233 12.8252055,0.439726027 L12.8252055,0.0684931507 C12.8542466,0.0397260274 12.8252055,0.0117808219 12.7964384,0.0117808219 L10.7416438,0.0117808219 C10.7128767,0.0117808219 10.6849315,0.0405479452 10.6849315,0.0684931507 L10.6849315,0.439726027 C10.6849315,0.468767123 10.7136986,0.496438356 10.7416438,0.496438356 L10.9128767,0.496438356 C10.9419178,0.496438356 10.969589,0.525479452 10.969589,0.553424658 L10.969589,1.89424658 C10.969589,1.92328767 10.9408219,1.9509589 10.9128767,1.9509589 L4.69178082,1.9509589 C4.6630137,1.9509589 4.63506849,1.98 4.6060274,1.98 L0.0117808219,8.54356164 L0.0117808219,8.63013699 L0.0117808219,8.74465753 C0.0117808219,8.77342466 0.0405479452,8.83013699 0.0684931507,8.83013699 L8.80136986,10.6849315 C8.83013699,10.6849315 8.88712329,10.6849315 8.88712329,10.6561644 L13.310137,3.15068493 C13.3391781,3.0939726 13.4246575,3.0939726 13.4526027,3.15068493 L18.9030137,9.51506849 C18.9320548,9.54410959 18.9320548,9.54410959 18.959726,9.54410959 L19.8726027,9.54410959 C19.9882192,9.5430137 20.0169863,9.45753425 19.960274,9.40054795 L19.960274,9.40054795 Z" id="Fill-2"></path>
                    </g>
                </g>
            </g>
        </g>
    </g>
</svg>