<svg xmlns="http://www.w3.org/2000/svg" width="34" height="34"><title>Oval 9</title><desc>Created with Sketch.</desc><g fill="none"><g fill="#fff"><g><path d="M17 34c9.4 0 17-7.6 17-17S26.4 0 17 0 0 7.6 0 17s7.6 17 17 17zm6.55-21.5c0-3.2-2.76-5.7-6.78-5.7-1.38 0-2.46.24-3.27.57l-.18 3.87c.78-.3 2.13-.57 3.1-.57 1.82 0 2.96.57 2.96 1.56 0 .78-.75 1-2.25 1.4-1.86.52-3 1.42-3 2.98 0 1.3.93 2.74 2.5 3.37.26 0 2.93-.45 2.93-.45-.33-.33-1.65-1.35-1.65-1.7.22-.52.97-.76 2.17-1.12 1.92-.63 3.48-1.8 3.48-4.2zm-3.33 11.4c0-1.62-1.14-2.52-2.85-2.52-1.68 0-2.82.9-2.82 2.52 0 1.65 1.14 2.55 2.82 2.55 1.7 0 2.85-.9 2.85-2.55z"/></g></g></g></svg>