<?xml version="1.0" encoding="UTF-8" standalone="no"?>
<svg width="17px" height="23px" viewBox="0 0 17 23" version="1.1" xmlns="http://www.w3.org/2000/svg" xmlns:xlink="http://www.w3.org/1999/xlink" xmlns:sketch="http://www.bohemiancoding.com/sketch/ns">
    <!-- Generator: Sketch 3.3.1 (12002) - http://www.bohemiancoding.com/sketch -->
    <title>Imported Layers</title>
    <desc>Created with Sketch.</desc>
    <defs></defs>
    <g id="Water" stroke="none" stroke-width="1" fill="none" fill-rule="evenodd" sketch:type="MSPage">
        <g sketch:type="MSArtboardGroup" transform="translate(-437.000000, -500.000000)" id="HERO" fill="#FFFFFF">
            <g sketch:type="MSLayerGroup" transform="translate(-1707.000000, -11.000000)">
                <g id="LOCATION" transform="translate(2144.000000, 511.000000)" sketch:type="MSShapeGroup">
                    <path d="M8.58298667,0 C3.93146667,0 0.1472,3.78426667 0.1472,8.43578667 C0.1472,14.45044 7.36582667,22.2728933 7.67372,22.60348 C7.90862667,22.8561733 8.23798667,23 8.58421333,23 C8.92921333,23 9.25857333,22.8561733 9.49348,22.60348 C9.80137333,22.27412 17.02,14.4516667 17.02,8.43578667 C17.0187733,3.78426667 13.2345067,0 8.58298667,0 L8.58298667,0 Z M8.58298667,4.83828 C10.42176,4.83828 11.91308,6.32990667 11.91308,8.16990667 C11.91308,10.00868 10.4229867,11.5 8.58298667,11.5 C6.74421333,11.5 5.25289333,10.00868 5.25289333,8.16990667 C5.25289333,6.32990667 6.74421333,4.83828 8.58298667,4.83828 Z" id="Imported-Layers"></path>
                </g>
            </g>
        </g>
    </g>
</svg>