<?xml version="1.0" encoding="UTF-8" standalone="no"?>
<svg width="63px" height="44px" viewBox="0 0 63 44" version="1.1" xmlns="http://www.w3.org/2000/svg" xmlns:xlink="http://www.w3.org/1999/xlink" xmlns:sketch="http://www.bohemiancoding.com/sketch/ns">
    <!-- Generator: Sketch 3.4 (15575) - http://www.bohemiancoding.com/sketch -->
    <title>Imported Layers</title>
    <desc>Created with Sketch.</desc>
    <defs></defs>
    <g id="Trips" stroke="none" stroke-width="1" fill="none" fill-rule="evenodd" sketch:type="MSPage">
        <g sketch:type="MSArtboardGroup" transform="translate(-694.000000, -125.000000)" id="TITLE" fill="#444444">
            <g sketch:type="MSLayerGroup" transform="translate(527.000000, 102.000000)">
                <path d="M214.547752,42.7459378 C207.511165,44.3414045 203.613432,45.1035912 200.081085,44.8349245 C200.985458,44.6580178 201.915458,44.4670578 202.832232,44.2802312 C205.693325,43.6957778 208.396525,43.1402578 209.820045,43.0658578 C213.301138,42.8848178 218.513272,40.9280978 219.530072,40.4436712 C220.066578,40.1882312 220.786605,40.1014312 221.313192,40.0369512 C221.910045,39.9658578 222.239885,39.9236978 222.384552,39.6426312 C222.475485,39.4715112 222.482098,39.2681512 222.401085,39.0714045 C222.213432,38.6159112 221.574418,38.2058845 220.495618,37.8537245 C218.833192,37.3147378 214.392338,38.2703645 208.761085,39.5781512 C206.465432,40.1113512 204.475645,40.7313512 202.725592,41.2802578 C200.339005,42.0259112 198.456685,42.6136712 196.942232,42.6202845 C195.612125,42.6268978 191.782178,42.9749245 188.097725,43.3370045 C187.280978,43.3436178 186.495645,43.3659378 185.766525,43.3948712 L195.722072,36.5269245 C195.996525,36.3359645 196.066792,35.9647912 195.883272,35.6870312 C195.698925,35.4125778 195.327752,35.3315645 195.046685,35.5092978 L190.493405,38.4191645 L199.261032,31.0568712 C199.515645,30.8435912 199.551192,30.4591912 199.338738,30.2037512 C199.196552,30.0326312 198.976658,29.9582312 198.773298,29.9904712 L199.276738,29.5358045 C199.522258,29.3126045 199.545405,28.9282045 199.322205,28.6802045 C199.099005,28.4313778 198.718738,28.4082312 198.466605,28.6281245 L197.168738,29.7647912 C197.226605,29.5647378 197.177832,29.3382312 197.026552,29.1770312 C196.796738,28.9381245 196.418952,28.9215912 196.173432,29.1480978 L183.463432,40.7826045 L191.116712,27.8237778 C191.287832,27.5369245 191.194418,27.1657512 190.906738,26.9938045 C190.623192,26.8226845 190.251192,26.9103112 190.073458,27.1946845 L183.634552,37.5338045 L188.048952,26.9681778 C188.178738,26.6614845 188.036552,26.3060178 187.729858,26.1737512 C187.425645,26.0414845 187.071005,26.1770578 186.932125,26.4804445 C186.502258,27.4302845 186.040978,28.4503912 185.559858,29.5035645 C186.312125,27.5203912 187.054472,25.5702845 187.719938,23.8235378 C187.838978,23.5135378 187.684392,23.1613778 187.374392,23.0415112 C187.067698,22.9224712 186.712232,23.0671378 186.586578,23.3771378 C186.570045,23.4126845 186.253432,24.2013245 185.746685,25.4471112 C185.895485,24.9949245 185.982285,24.7303912 185.988898,24.7113778 C186.092232,24.3947645 185.924418,24.0558312 185.611112,23.9458845 C185.297805,23.8359378 184.955565,23.9971378 184.839005,24.3071378 C184.667885,24.7659378 181.887805,32.2547112 179.840978,37.9248178 C180.593245,32.0992978 181.523245,24.4046845 181.577805,23.9326578 C181.616658,23.6069512 181.387672,23.3068712 181.061138,23.2580978 C180.738738,23.2126312 180.428738,23.4325245 180.373352,23.7582312 L180.292338,24.2269512 C180.227858,23.9971378 180.034418,23.8136178 179.778978,23.7846845 C179.453272,23.7425245 179.146578,23.9748178 179.101112,24.3046578 C179.094498,24.3559112 178.858898,26.0547112 178.529885,28.4379912 C178.432338,28.3371378 178.300072,28.2693512 178.148792,28.2569512 C177.825565,28.2313245 177.528792,28.4636178 177.489938,28.7893245 L176.998898,32.8813245 C177.050978,28.8380978 177.092312,25.2726845 177.092312,25.2115112 C177.092312,24.8758845 176.821165,24.6014312 176.485538,24.6014312 C176.162312,24.6014312 176.017645,24.6014312 175.923405,25.2082045 C175.875458,25.2280445 175.872152,25.4024712 175.868845,25.7025512 C175.823378,26.2324445 175.787832,27.0103378 175.736578,28.1660178 L175.323245,37.2147112 C175.084338,35.3125512 174.877672,33.6980712 174.845432,33.4203112 C174.799965,33.0813778 174.541218,32.8457778 174.237832,32.8457778 C174.063405,32.8457778 173.895592,32.9193512 173.782338,33.0524445 C173.673218,33.1747912 173.624445,33.3781512 173.637672,33.5459645 C173.663298,33.8468712 173.773245,35.5349245 173.895592,37.5081778 C173.275592,34.8802045 172.926738,33.4236178 172.691138,32.6159645 C172.645672,32.3737512 172.616738,32.2092445 172.604338,32.1414578 C172.342285,31.6148712 172.216632,31.6148712 172.000045,31.6148712 C171.819005,31.6148712 171.647885,31.6958845 171.532152,31.8347645 C171.415592,31.9736445 171.373432,32.1869245 171.405672,32.3671378 C171.509005,32.9391912 172.820098,39.9402312 173.478952,43.4692712 C172.655592,43.5659912 171.718978,43.8536712 170.973325,44.6704178 L170.798898,44.8580712 C170.715405,44.9448712 170.637698,45.0324978 170.559992,45.1192978 C170.353325,45.1126845 170.165672,45.0804445 169.965618,45.0415912 C169.652312,44.9804178 169.297672,44.9126312 168.906658,44.9870312 C168.364365,45.0936712 167.769992,45.6235645 167.585645,46.1691645 C167.466605,46.5238045 167.446765,47.3215378 167.688978,47.7125512 C167.979965,48.1903645 168.580125,48.4491112 169.045538,48.5259912 C169.064552,48.5326045 169.291058,48.5681512 169.578738,48.5681512 C169.839965,48.5681512 170.156578,48.5359112 170.414498,48.4168712 C170.473192,48.5102845 170.524445,48.6070045 170.592232,48.6913245 C171.118818,49.3369512 171.871085,49.5981778 172.562178,49.8114578 C171.757832,52.3815645 170.624472,55.9502845 170.233458,57.1092712 C170.059858,57.5581512 169.988765,57.7458045 170.172285,58.0169512 C170.285538,58.1814578 170.473192,58.2814845 170.673245,58.2814845 C170.879912,58.2814845 171.073352,58.1781512 171.183298,58.0103378 C171.234552,57.9392445 171.257698,57.8813778 171.376738,57.5292178 C171.706578,56.6736178 172.539858,54.5970312 173.363218,52.5592978 C172.875485,55.2848178 172.281112,58.5625512 171.806605,61.1682045 C171.748738,61.4947378 171.955405,61.8047378 172.277805,61.8725245 C172.601032,61.9436178 172.917645,61.7402578 172.997832,61.4170312 L174.851218,53.6959645 C174.790045,55.9792178 174.735485,58.0425778 174.735485,58.1070578 C174.735485,58.2682578 174.799965,58.4236712 174.913218,58.5369245 C175.025645,58.6493512 175.181058,58.7146578 175.342258,58.7146578 C175.601005,58.7146578 175.739885,58.7113512 175.884552,58.1070578 C175.949858,58.0847378 175.952338,57.9590845 175.958952,57.7582045 C176.104445,56.9902312 176.275565,55.5948178 176.585565,53.0726578 L176.734365,51.8715112 L179.026712,64.1524712 C179.082098,64.4459378 179.336712,64.6492978 179.624392,64.6492978 C180.050952,64.5848178 180.273325,64.2814312 180.227858,63.9524178 C180.095592,63.0248978 179.372258,57.8937778 178.762178,53.6380978 C179.853378,56.5959112 180.996658,59.6768978 181.086765,59.9191112 C181.200018,60.2258045 181.538952,60.3836978 181.848952,60.2836712 C182.158952,60.1803378 182.333378,59.8480178 182.239965,59.5314045 L179.931085,51.7615645 L186.660978,61.2302045 C186.854418,61.4980445 187.225592,61.5658312 187.500045,61.3814845 C187.774498,61.1946578 187.848898,60.8226578 187.667858,60.5448978 L182.223432,52.1980445 L186.741165,56.4991912 C186.980072,56.7248712 187.357858,56.7215645 187.590978,56.4892712 C187.787725,56.2925245 187.823272,55.9949245 187.694312,55.7593245 L190.664525,58.3170312 C190.916658,58.5336178 191.297752,58.5104712 191.517645,58.2624712 C191.740018,58.0136445 191.717698,57.6358578 191.475485,57.4093512 C191.301058,57.2514578 189.292258,55.4079912 187.080098,53.3892712 C189.273245,54.8169245 191.194418,56.0602312 191.368845,56.1726578 C191.646605,56.3503912 192.014472,56.2792978 192.202125,56.0081512 C192.388952,55.7370045 192.327778,55.3691378 192.063245,55.1715645 C191.875592,55.0359912 189.221165,53.0792712 186.744472,51.2903645 C187.516578,51.5714312 188.087805,51.7780978 188.152285,51.8004178 C188.443272,51.9004445 188.772285,51.7747912 188.907858,51.4904178 C189.043432,51.2068712 188.943405,50.8671112 188.675565,50.7092178 L188.326712,50.4959378 C188.898765,50.4124445 189.388978,50.2380178 189.886632,50.0503645 C190.464472,49.8337778 190.813325,49.5560178 191.184498,49.2625512 C191.284525,49.1815378 191.391165,49.1013512 191.501112,49.0170312 C191.692072,48.8715378 191.830952,48.6938045 191.933458,48.5036712 L208.593272,48.8657512 C208.599885,48.8657512 208.706525,48.8591378 208.890045,48.8591378 C210.388792,48.8591378 217.886658,49.2402312 218.428952,56.7347912 C218.581058,58.8014578 218.071005,60.4771112 216.921112,61.7138045 C214.822205,63.9681245 211.115432,64.2648978 209.477805,64.2814312 L210.788898,62.7248178 C210.917858,62.5735378 210.917858,62.3503378 210.788898,62.1982312 C210.659938,62.0502578 210.440045,62.0114045 210.268925,62.1147378 C210.246605,62.1271378 208.053458,63.4415378 205.677618,63.9780445 C202.864472,64.6104445 199.664445,64.8493512 199.464392,64.8526578 C199.251112,64.8526578 199.070072,65.0204712 199.057672,65.2337512 C199.044445,65.4470312 199.202338,65.6346845 199.415618,65.6603112 C199.496632,65.6702312 207.398738,66.5803912 211.173298,66.5803912 C211.412205,66.5803912 211.632098,66.5770845 211.835458,66.5704712 C215.493458,66.4348978 220.912258,63.4026845 220.912258,57.3324712 C220.912258,55.3302845 220.344338,48.6648712 213.043218,46.9569778 C212.152072,46.7470045 210.785592,46.5692712 209.116552,46.4146845 C214.589912,45.3648178 218.199965,45.1804712 221.774472,45.2457778 C225.762312,45.3193512 229.040045,45.5425512 229.072285,45.5458578 C229.259938,45.5590845 229.405432,45.4582312 229.473218,45.3003378 C229.531085,45.1292178 229.488925,44.9448712 229.363272,44.8291378 C229.169005,44.6514045 224.451218,40.4949245 214.547752,42.7459378 Z" id="Imported-Layers" sketch:type="MSShapeGroup"></path>
            </g>
        </g>
    </g>
</svg>