<svg xmlns="http://www.w3.org/2000/svg" width="21" height="21"><title>Imported Layers</title><desc>Created with Sketch.</desc><g fill="none"><g fill="#665F5A" opacity=".397"><g><g><g><path d="M13.13 11.34l7.9 7.9L19.3 21l-7.9-7.9 1.73-1.76z"/><path d="M2.42 2.42c-3.2 3.2-3.2 8.34 0 11.55 3.2 3.2 8.34 3.2 11.55 0 3.2-3.2 3.2-8.35 0-11.56-3.2-3.2-8.4-3.2-11.56.02h.02zm9.76 9.87c-2.2 2.2-5.83 2.2-8.03-.02-2.2-2.2-2.2-5.82 0-8.03 2.2-2.2 5.82-2.2 8.03 0 2.2 2.2 2.2 5.83 0 8.04v-.02z"/></g></g></g></g></g></svg>