<?xml version="1.0" encoding="UTF-8" standalone="no"?>
<svg width="10px" height="21px" viewBox="0 0 10 21" version="1.1" xmlns="http://www.w3.org/2000/svg" xmlns:xlink="http://www.w3.org/1999/xlink" xmlns:sketch="http://www.bohemiancoding.com/sketch/ns">
    <!-- Generator: Sketch 3.3.1 (12002) - http://www.bohemiancoding.com/sketch -->
    <title>Imported Layers</title>
    <desc>Created with Sketch.</desc>
    <defs></defs>
    <g id="Home" stroke="none" stroke-width="1" fill="none" fill-rule="evenodd" sketch:type="MSPage">
        <g sketch:type="MSArtboardGroup" transform="translate(-1238.000000, -8528.000000)" id="FOOTER" fill="#A8A39E">
            <g sketch:type="MSLayerGroup" transform="translate(-67.000000, 8212.000000)">
                <g id="COMPANY" transform="translate(1253.000000, 94.000000)" sketch:type="MSShapeGroup">
                    <path d="M59.4064938,224.671728 L59.4064938,222.765851 C59.4064938,222.341973 59.0634709,222 58.6409927,222 C58.2171145,222 57.8751417,222.343023 57.8751417,222.765851 L57.8751417,224.610124 L54.3000033,224.610124 C53.0297687,224.610124 52,225.639543 52,226.908377 L52,240.701747 C52,241.971981 53.0297687,243 54.3000033,243 L58.8979099,243 C60.1681445,243 61.1979132,241.970581 61.1979132,240.701747 L61.1979132,226.908377 C61.195113,225.814554 60.429262,224.904144 59.4064938,224.671728 L59.4064938,224.671728 Z M55.0641043,240.623692 C55.0641043,240.835456 54.8932929,241.006617 54.6811787,241.006617 L53.9156777,241.006617 C53.7035636,241.006617 53.5327522,240.835456 53.5327522,240.623692 L53.5327522,239.858191 C53.5327522,239.646076 53.7035636,239.475265 53.9156777,239.475265 L54.6811787,239.475265 C54.8932929,239.475265 55.0641043,239.646076 55.0641043,239.858191 L55.0641043,240.623692 Z M55.0641043,238.173528 C55.0641043,238.385292 54.8932929,238.556454 54.6811787,238.556454 L53.9156777,238.556454 C53.7035636,238.556454 53.5327522,238.384242 53.5327522,238.173528 L53.5327522,237.408027 C53.5327522,237.194513 53.7035636,237.025102 53.9156777,237.025102 L54.6811787,237.025102 C54.8932929,237.025102 55.0641043,237.195913 55.0641043,237.408027 L55.0641043,238.173528 Z M55.0641043,235.721965 C55.0641043,235.934079 54.8932929,236.10489 54.6811787,236.10489 L53.9156777,236.10489 C53.7035636,236.10489 53.5327522,235.934079 53.5327522,235.721965 L53.5327522,234.955064 C53.5327522,234.74295 53.7035636,234.572138 53.9156777,234.572138 L54.6811787,234.572138 C54.8932929,234.572138 55.0641043,234.74295 55.0641043,234.955064 L55.0641043,235.721965 Z M57.3627075,240.623692 C57.3627075,240.835456 57.1915461,241.006617 56.979782,241.006617 L56.2125308,241.006617 C56.0007667,241.006617 55.8299553,240.835456 55.8299553,240.623692 L55.8299553,239.858191 C55.8299553,239.646076 56.0007667,239.475265 56.2125308,239.475265 L56.979782,239.475265 C57.1915461,239.475265 57.3627075,239.646076 57.3627075,239.858191 L57.3627075,240.623692 Z M57.3627075,238.173528 C57.3627075,238.385292 57.1915461,238.556454 56.979782,238.556454 L56.2125308,238.556454 C56.0007667,238.556454 55.8299553,238.384242 55.8299553,238.173528 L55.8299553,237.408027 C55.8299553,237.194513 56.0007667,237.025102 56.2125308,237.025102 L56.979782,237.025102 C57.1915461,237.025102 57.3627075,237.195913 57.3627075,237.408027 L57.3627075,238.173528 Z M57.3627075,235.721965 C57.3627075,235.934079 57.1915461,236.10489 56.979782,236.10489 L56.2125308,236.10489 C56.0007667,236.10489 55.8299553,235.934079 55.8299553,235.721965 L55.8299553,234.955064 C55.8299553,234.74295 56.0007667,234.572138 56.2125308,234.572138 L56.979782,234.572138 C57.1915461,234.572138 57.3627075,234.74295 57.3627075,234.955064 L57.3627075,235.721965 Z M59.6623608,240.623692 C59.6623608,240.835456 59.4915494,241.006617 59.2794353,241.006617 L58.5139343,241.006617 C58.3018201,241.006617 58.1310087,240.835456 58.1310087,240.623692 L58.1310087,239.858191 C58.1310087,239.646076 58.3018201,239.475265 58.5139343,239.475265 L59.2794353,239.475265 C59.4915494,239.475265 59.6623608,239.646076 59.6623608,239.858191 L59.6623608,240.623692 Z M59.6623608,238.173528 C59.6623608,238.385292 59.4915494,238.556454 59.2794353,238.556454 L58.5139343,238.556454 C58.3018201,238.556454 58.1310087,238.384242 58.1310087,238.173528 L58.1310087,237.408027 C58.1310087,237.194513 58.3018201,237.025102 58.5139343,237.025102 L59.2794353,237.025102 C59.4915494,237.025102 59.6623608,237.195913 59.6623608,237.408027 L59.6623608,238.173528 Z M59.6623608,235.721965 C59.6623608,235.934079 59.4915494,236.10489 59.2794353,236.10489 L58.5139343,236.10489 C58.3018201,236.10489 58.1310087,235.934079 58.1310087,235.721965 L58.1310087,234.955064 C58.1310087,234.74295 58.3018201,234.572138 58.5139343,234.572138 L59.2794353,234.572138 C59.4915494,234.572138 59.6623608,234.74295 59.6623608,234.955064 L59.6623608,235.721965 Z M59.6623608,232.04672 C59.6623608,232.470598 59.3189879,232.812571 58.8965098,232.812571 L54.2986032,232.812571 C53.874725,232.812571 53.5327522,232.469198 53.5327522,232.04672 L53.5327522,227.448463 C53.5327522,227.024585 53.8761251,226.682962 54.2986032,226.682962 L58.8965098,226.682962 C59.320388,226.682962 59.6623608,227.025985 59.6623608,227.448463 L59.6623608,232.04672 Z" id="Imported-Layers"></path>
                </g>
            </g>
        </g>
    </g>
</svg>