<?xml version="1.0" encoding="UTF-8" standalone="no"?>
<svg width="10px" height="22px" viewBox="0 0 10 22" version="1.1" xmlns="http://www.w3.org/2000/svg" xmlns:xlink="http://www.w3.org/1999/xlink" xmlns:sketch="http://www.bohemiancoding.com/sketch/ns">
    <!-- Generator: Sketch 3.3.1 (12002) - http://www.bohemiancoding.com/sketch -->
    <title>Imported Layers Copy 2</title>
    <desc>Created with Sketch.</desc>
    <defs></defs>
    <g id="Home" stroke="none" stroke-width="1" fill="none" fill-rule="evenodd" sketch:type="MSPage">
        <g sketch:type="MSArtboardGroup" transform="translate(-1278.000000, -5.000000)" id="HEADER-(feature)" fill="#FFFFFF">
            <g sketch:type="MSLayerGroup" transform="translate(0.000000, -6.000000)">
                <g id="CONTACT" transform="translate(1261.000000, 0.000000)" sketch:type="MSShapeGroup">
                    <path d="M24.4064938,14.1717281 L24.4064938,12.2658511 C24.4064938,11.8419728 24.0634709,11.5 23.6409927,11.5 C23.2171145,11.5 22.8751417,11.8430229 22.8751417,12.2658511 L22.8751417,14.110124 L19.3000033,14.110124 C18.0297687,14.110124 17,15.1395426 17,16.4083772 L17,30.2017468 C17,31.4719815 18.0297687,32.5 19.3000033,32.5 L23.8979099,32.5 C25.1681445,32.5 26.1979132,31.4705814 26.1979132,30.2017468 L26.1979132,16.4083772 C26.195113,15.3145543 25.429262,14.4041436 24.4064938,14.1717281 L24.4064938,14.1717281 Z M20.0641043,30.1236916 C20.0641043,30.3354557 19.8932929,30.5066171 19.6811787,30.5066171 L18.9156777,30.5066171 C18.7035636,30.5066171 18.5327522,30.3354557 18.5327522,30.1236916 L18.5327522,29.3581905 C18.5327522,29.1460764 18.7035636,28.975265 18.9156777,28.975265 L19.6811787,28.975265 C19.8932929,28.975265 20.0641043,29.1460764 20.0641043,29.3581905 L20.0641043,30.1236916 Z M20.0641043,27.6735282 C20.0641043,27.8852924 19.8932929,28.0564538 19.6811787,28.0564538 L18.9156777,28.0564538 C18.7035636,28.0564538 18.5327522,27.8842423 18.5327522,27.6735282 L18.5327522,26.9080272 C18.5327522,26.694513 18.7035636,26.5251017 18.9156777,26.5251017 L19.6811787,26.5251017 C19.8932929,26.5251017 20.0641043,26.6959131 20.0641043,26.9080272 L20.0641043,27.6735282 Z M20.0641043,25.2219648 C20.0641043,25.4340789 19.8932929,25.6048903 19.6811787,25.6048903 L18.9156777,25.6048903 C18.7035636,25.6048903 18.5327522,25.4340789 18.5327522,25.2219648 L18.5327522,24.4550637 C18.5327522,24.2429495 18.7035636,24.0721381 18.9156777,24.0721381 L19.6811787,24.0721381 C19.8932929,24.0721381 20.0641043,24.2429495 20.0641043,24.4550637 L20.0641043,25.2219648 Z M22.3627075,30.1236916 C22.3627075,30.3354557 22.1915461,30.5066171 21.979782,30.5066171 L21.2125308,30.5066171 C21.0007667,30.5066171 20.8299553,30.3354557 20.8299553,30.1236916 L20.8299553,29.3581905 C20.8299553,29.1460764 21.0007667,28.975265 21.2125308,28.975265 L21.979782,28.975265 C22.1915461,28.975265 22.3627075,29.1460764 22.3627075,29.3581905 L22.3627075,30.1236916 Z M22.3627075,27.6735282 C22.3627075,27.8852924 22.1915461,28.0564538 21.979782,28.0564538 L21.2125308,28.0564538 C21.0007667,28.0564538 20.8299553,27.8842423 20.8299553,27.6735282 L20.8299553,26.9080272 C20.8299553,26.694513 21.0007667,26.5251017 21.2125308,26.5251017 L21.979782,26.5251017 C22.1915461,26.5251017 22.3627075,26.6959131 22.3627075,26.9080272 L22.3627075,27.6735282 Z M22.3627075,25.2219648 C22.3627075,25.4340789 22.1915461,25.6048903 21.979782,25.6048903 L21.2125308,25.6048903 C21.0007667,25.6048903 20.8299553,25.4340789 20.8299553,25.2219648 L20.8299553,24.4550637 C20.8299553,24.2429495 21.0007667,24.0721381 21.2125308,24.0721381 L21.979782,24.0721381 C22.1915461,24.0721381 22.3627075,24.2429495 22.3627075,24.4550637 L22.3627075,25.2219648 Z M24.6623608,30.1236916 C24.6623608,30.3354557 24.4915494,30.5066171 24.2794353,30.5066171 L23.5139343,30.5066171 C23.3018201,30.5066171 23.1310087,30.3354557 23.1310087,30.1236916 L23.1310087,29.3581905 C23.1310087,29.1460764 23.3018201,28.975265 23.5139343,28.975265 L24.2794353,28.975265 C24.4915494,28.975265 24.6623608,29.1460764 24.6623608,29.3581905 L24.6623608,30.1236916 Z M24.6623608,27.6735282 C24.6623608,27.8852924 24.4915494,28.0564538 24.2794353,28.0564538 L23.5139343,28.0564538 C23.3018201,28.0564538 23.1310087,27.8842423 23.1310087,27.6735282 L23.1310087,26.9080272 C23.1310087,26.694513 23.3018201,26.5251017 23.5139343,26.5251017 L24.2794353,26.5251017 C24.4915494,26.5251017 24.6623608,26.6959131 24.6623608,26.9080272 L24.6623608,27.6735282 Z M24.6623608,25.2219648 C24.6623608,25.4340789 24.4915494,25.6048903 24.2794353,25.6048903 L23.5139343,25.6048903 C23.3018201,25.6048903 23.1310087,25.4340789 23.1310087,25.2219648 L23.1310087,24.4550637 C23.1310087,24.2429495 23.3018201,24.0721381 23.5139343,24.0721381 L24.2794353,24.0721381 C24.4915494,24.0721381 24.6623608,24.2429495 24.6623608,24.4550637 L24.6623608,25.2219648 Z M24.6623608,21.5467198 C24.6623608,21.970598 24.3189879,22.3125708 23.8965098,22.3125708 L19.2986032,22.3125708 C18.874725,22.3125708 18.5327522,21.9691979 18.5327522,21.5467198 L18.5327522,16.9484632 C18.5327522,16.524585 18.8761251,16.1829622 19.2986032,16.1829622 L23.8965098,16.1829622 C24.320388,16.1829622 24.6623608,16.5259851 24.6623608,16.9484632 L24.6623608,21.5467198 Z" id="Imported-Layers-Copy-2"></path>
                </g>
            </g>
        </g>
    </g>
</svg>