<svg xmlns="http://www.w3.org/2000/svg" width="25" height="25"><title>TAG ICON</title><desc>Created with Sketch.</desc><g fill="none"><g fill="#F7915E"><g><path d="M23.78 15.4l-8.1 8.1L4.6 12.46l-.24 1.16 11.3 11.3 8.82-8.8-.7-.7z"/><path d="M13.2 2L8.54 3C7.92 1.93 6.95.93 5.42.33c-1.54-.6-3.06-.4-4.17.58C.25 1.8-.2 3.12.12 4.4c.23.88 1.02 2.47 3.85 3.15l.23-.97c-1.72-.4-2.83-1.27-3.1-2.42-.24-.9.08-1.86.8-2.5.83-.72 1.98-.86 3.16-.4C8.7 2.7 8.7 6.88 8.7 7.06c0 .28.22.6.5.6.27 0 .5-.16.5-.4h.05v-.2c0-.1-.04-.68-.2-1.5.25.06.47.18.66.37.53.52.52 1.36 0 1.88-.52.53-1.36.53-1.88 0-.42-.4-.5-1.02-.25-1.52-.17-.83-.53-1.95-1.3-2.9l-.83.17-1.55 7.26 11.3 11.3 8.8-8.8L13.2 2z"/></g></g></g></svg>