<svg xmlns="http://www.w3.org/2000/svg" width="36" height="36"><title>Oval 7 Copy 4 + Imported Layers</title><desc>Created with Sketch.</desc><g fill="none"><g><g transform="translate(0 0)"><circle cx="18" cy="18" r="18" fill="#999490"/><g fill="#fff"><path d="M26.82 18.1l-4.22-4.92c0-.03-.03 0-.06 0l-4.05 6.87s-.04.03-.04 0l-8.2-1.7c-.02 0-.02 0-.02.02v6.1s0 .04.03.04l8.2 3.5h.07l1.32-.58c.02 0 .02-.03.02-.06v-6.1c0-.04 0-.04.03-.06l3.3-1.37c.03 0 .05 0 .05.05v6.03c0 .03.03.06.06.06l3.52-1.48.03-.03-.03-6.36c.03 0 0 0 0 0z"/><path d="M28.96 17.4L22.6 9.98c-.03-.03-.03-.03-.06-.03h-.94c-.03 0-.06-.03-.06-.05V8.55c0-.03.03-.05.06-.05h.17c.03 0 .06-.03.06-.06v-.37c.02-.03 0-.06-.03-.06h-2.06c-.03 0-.06.04-.06.07v.37c0 .03.03.06.06.06h.17c.04 0 .07.03.07.05V9.9c0 .02-.03.05-.06.05h-6.2c-.04 0-.06.03-.1.03L9 16.54v.2c0 .03.04.1.07.1l8.73 1.84c.03 0 .1 0 .1-.02l4.4-7.5c.04-.07.12-.07.15 0l5.45 6.36c.03.02.03.02.06.02h.9c.13 0 .16-.08.1-.14z"/></g></g></g></g></svg>