<?xml version="1.0" encoding="UTF-8" standalone="no"?>
<svg width="53px" height="46px" viewBox="0 0 53 46" version="1.1" xmlns="http://www.w3.org/2000/svg" xmlns:xlink="http://www.w3.org/1999/xlink" xmlns:sketch="http://www.bohemiancoding.com/sketch/ns">
    <!-- Generator: Sketch 3.5.1 (25234) - http://www.bohemiancoding.com/sketch -->
    <title>BYOB ICON</title>
    <desc>Created with Sketch.</desc>
    <defs></defs>
    <g id="Boats" stroke="none" stroke-width="1" fill="none" fill-rule="evenodd" sketch:type="MSPage">
        <g sketch:type="MSArtboardGroup" transform="translate(-692.000000, -621.000000)" id="HERO" fill="#FFFFFF">
            <g sketch:type="MSLayerGroup" transform="translate(0.000000, 129.000000)">
                <g id="HERO-CONTENT" transform="translate(395.000000, 375.000000)" sketch:type="MSShapeGroup">
                    <g id="BYOB-ICON" transform="translate(323.500000, 140.000000) scale(1, -1) translate(-323.500000, -140.000000) translate(297.000000, 117.000000)">
                        <path d="M24.1490586,19.6666854 C19.4926183,15.2063841 15.0997502,10.804856 10.4411135,6.69790978 C9.55448626,5.91665823 7.60405279,6.29151563 5.68510155,6.08437646 C5.93403075,2.932134 8.67371619,1.62765894 10.878936,0.00351583042 C10.9872934,-0.0774763019 12.4977079,1.2664197 12.417172,1.39758395 C10.9389719,3.83881583 13.161031,4.74334743 14.3566233,5.9868992 C18.1117934,9.91179227 21.9269994,13.775762 26.0936349,18.0482762 C30.9953436,13.1263915 35.3882118,8.73633123 39.7415441,4.30685001 C40.1156701,3.92625866 40.2935812,3.27617137 40.373385,2.7278618 C40.4963853,1.86275115 40.4531888,0.971837696 40.4817424,0.0931088971 C41.471602,0.476567223 42.5581047,0.71165943 43.4191069,1.28290482 C44.3599128,1.90718931 45.2179864,2.75008088 45.8615416,3.66536365 C46.2993641,4.29251512 46.3052213,5.21138161 46.5021682,6.00051734 C45.7326841,6.08150948 44.9463607,6.09584437 44.1915196,6.25854538 C43.227285,6.46281757 42.0119248,6.50725573 41.3859411,7.10645416 C34.5074417,13.7055211 27.6926389,20.3633611 20.9715506,27.1136611 C20.2679596,27.8218047 19.7620476,29.4151278 20.0790662,30.2694873 C21.074783,32.9286095 20.3426383,34.7068527 18.2516331,36.5073149 C15.5573406,38.8310007 12.9721377,41.3195377 10.6417211,43.9908446 C8.43064415,46.5188026 6.38283545,46.1883834 3.98066871,44.4861151 C-0.995718775,40.9611655 -1.28198735,38.2318023 2.98568407,34.0037263 C4.97272477,32.0355458 7.09814081,30.1906454 8.95705619,28.1135197 C10.8189001,26.0385443 12.7122263,24.8093274 15.6408051,26.0191922 C16.2667888,26.2765035 17.4653097,25.9969731 18.0056325,25.5289389 C20.0080482,23.8015846 21.8493921,21.8921771 24.1490586,19.6666854 L24.1490586,19.6666854 Z" id="Fill-1"></path>
                        <path d="M28.15625,22.2716695 C28.4820544,21.9806713 28.3531969,21.6696041 29.6146822,20.5357143 C30.9757392,22.2014286 32.7145829,23.4643325 34.0243897,24.6319093 C34.7221236,25.2590608 36.1666451,25.7794173 36.9471113,25.494153 C39.7504934,24.4555901 41.5061763,25.5722781 43.3021273,27.5017544 C45.7189369,30.0942194 48.2382468,32.6193104 50.920825,34.9437129 C53.2834559,36.9986195 53.0630803,38.9166279 51.3842725,41.1614717 C47.652531,46.1535974 44.8323097,46.4137757 40.4138165,42.0939564 C38.7804016,40.5006333 37.1901834,38.8571381 35.5091792,37.3147038 C33.1436197,35.1479851 31.2049005,33.2744149 32.3485105,29.3323199 C32.8207438,27.6974257 29.9580581,25.1357807 28.15625,22.2716695 L28.15625,22.2716695 Z" id="Fill-2"></path>
                    </g>
                </g>
            </g>
        </g>
    </g>
</svg>