<?xml version="1.0" encoding="UTF-8" standalone="no"?>
<svg width="36px" height="36px" viewBox="0 0 36 36" version="1.1" xmlns="http://www.w3.org/2000/svg" xmlns:xlink="http://www.w3.org/1999/xlink" xmlns:sketch="http://www.bohemiancoding.com/sketch/ns">
    <!-- Generator: Sketch 3.3.1 (12002) - http://www.bohemiancoding.com/sketch -->
    <title>Oval 7 + Imported Layers</title>
    <desc>Created with Sketch.</desc>
    <defs></defs>
    <g id="Water" stroke="none" stroke-width="1" fill="none" fill-rule="evenodd" sketch:type="MSPage">
        <g sketch:type="MSArtboardGroup" transform="translate(-413.000000, -1210.000000)" id="THE-STATS">
            <g sketch:type="MSLayerGroup" transform="translate(413.000000, 1148.000000)">
                <g id="Oval-7-+-Imported-Layers" transform="translate(0.000000, 62.000000)" sketch:type="MSShapeGroup">
                    <circle id="Oval-7" fill="#999490" cx="18" cy="18" r="18"></circle>
                    <g id="Imported-Layers" transform="translate(5.000000, 13.000000)">
                        <path d="M13.4759189,0.226581081 C13.5043784,0.186810811 13.548527,0.136824324 13.6069054,0.175135135 C13.9889189,0.287878378 14.2895676,0.564445946 14.5960541,0.805256757 C14.7843243,0.949378378 14.9594595,1.10590541 15.1247432,1.27264865 C15.5082162,1.62182432 15.8643243,1.99836486 16.2477973,2.34754054 C16.3036216,2.39022973 16.3561622,2.44860811 16.4287703,2.46575676 C16.7297838,2.53252703 17.0417432,2.53252703 17.3496892,2.5442027 C18.7037027,2.53398649 20.0562568,2.66533784 21.3858243,2.92037838 C21.6766216,2.95321622 21.9531892,3.06304054 22.2454459,3.09697297 C22.7755946,3.23525676 23.3086622,3.36514865 23.8300541,3.53189189 C24.1496757,3.64718919 24.4857162,3.70702703 24.804973,3.82122973 C25.0800811,3.90952703 25.3497162,4.01935135 25.6146081,4.13172973 C25.8568784,4.2587027 26.1119189,4.36268919 26.3374054,4.5225 C26.5267703,4.65202703 26.7464189,4.80162162 26.8004189,5.04097297 C26.8489459,5.15809459 26.7449595,5.24201351 26.6723514,5.31316216 C26.535527,5.41167568 26.3698784,5.45290541 26.2188243,5.5215 C26.2202838,5.53281081 26.2246622,5.5557973 26.2275811,5.56710811 C26.4012568,5.59410811 26.5665405,5.52697297 26.7405811,5.5215 C26.8489459,5.56418919 26.8788649,5.72509459 26.792027,5.805 C26.6822027,5.98597297 26.4884595,6.08886486 26.306027,6.18117568 C26.0878378,6.30121622 25.8441081,6.36251351 25.6102297,6.44351351 C24.1992973,6.87843243 22.7967568,7.03641892 21.4573378,7.44689189 C21.3588243,7.46841892 21.3102973,7.55817568 21.2420676,7.62093243 C21.1508514,7.70922973 21.0880946,7.82051351 21.0238784,7.92851351 C20.8045946,8.235 20.5677973,8.52725676 20.3171351,8.80966216 C20.2116892,8.89941892 20.0916486,9.0377027 19.9380405,8.97895946 C19.8223784,8.94648649 19.7723919,8.82644595 19.7610811,8.71844595 C19.7512297,8.41743243 19.737,8.11532432 19.764,7.81467568 C19.4162838,7.86721622 19.070027,7.94018919 18.716473,7.95441892 C18.4639865,7.97010811 18.2177027,8.02118919 17.9666757,8.04855405 C17.6488784,8.08394595 17.3325405,8.14962162 17.0103649,8.154 C16.389,8.15108108 15.7647162,8.2152973 15.1448108,8.14086486 C15.0962838,8.29483784 14.9908378,8.41743243 14.8967027,8.54440541 C14.7697297,8.68816216 14.6971216,8.88372973 14.5289189,8.9847973 C14.4121622,9.04171622 14.3253243,8.92641892 14.2851892,8.83228378 C14.2552703,8.79652703 14.2297297,8.69545946 14.1611351,8.71954054 C13.7236622,9.02456757 13.4715405,9.46933784 12.9355541,9.79297297 C12.8644054,9.84004054 12.762973,9.83712162 12.7005811,9.77728378 C12.5622973,9.61345946 12.5706892,9.38687838 12.6192162,9.18875676 C12.6947432,8.62722973 12.6619054,8.36781081 12.9527027,7.89604054 C12.7761081,7.85882432 12.5951351,7.85298649 12.4152568,7.83036486 C11.9267027,7.73075676 11.4319459,7.67785135 10.9346351,7.63954054 C10.5212432,7.60232432 10.1023784,7.54686486 9.68606757,7.60524324 C9.56055405,7.61509459 9.45948649,7.68916216 9.35112162,7.74060811 C9.15008108,7.83328378 8.96071622,7.9442027 8.77682432,8.0667973 C8.62832432,8.16677027 8.46048649,8.23208108 8.30906757,8.32475676 C8.03432432,8.48602703 7.74754054,8.62577027 7.46112162,8.75967568 C7.182,8.85636486 6.92404054,9.00486486 6.65039189,9.11578378 C6.53472973,9.16139189 6.39243243,9.16285135 6.28662162,9.09462162 C6.14724324,8.96327027 6.10564865,8.76806757 6.04289189,8.59439189 C5.97028378,8.36343243 5.86045946,8.14232432 5.82360811,7.90151351 C5.79660811,7.63808108 5.79660811,7.37282432 5.83054054,7.10902703 C5.84075676,7.04371622 5.82068919,6.9795 5.79514865,6.91966216 C5.84075676,6.86821622 5.86921622,6.78137838 5.95897297,6.80144595 C6.15855405,6.79122973 6.36105405,6.76277027 6.53035135,6.64893243 C6.36944595,6.57486486 6.19285135,6.55625676 6.02172973,6.51904054 C5.79660811,6.47051351 5.56856757,6.44789189 5.34052703,6.42490541 C5.01251351,6.39243243 4.68486486,6.43366216 4.35977027,6.47635135 C4.19594595,6.50335135 4.04927027,6.58763514 3.88654054,6.62740541 C3.59866216,6.69855405 3.32793243,6.82114865 3.03713514,6.88974324 C2.73940541,6.95943243 2.4642973,7.09771622 2.17204054,7.18893243 C1.94108108,7.25898649 1.70902703,7.34582432 1.46785135,7.36844595 C1.13874324,7.40712162 0.809635135,7.44689189 0.478702703,7.48556757 C0.326554054,7.48812162 0.176594595,7.47972973 0.0255405405,7.46987838 C0.0711486486,7.35713514 0.125513514,7.24439189 0.124054054,7.1207027 C0.303567568,6.47051351 0.488918919,5.92759459 0.681202703,5.29893243 C0.698351351,5.1777973 0.648364865,5.0625 0.637054054,4.94428378 C0.289337838,4.13172973 0.349175676,3.51182432 0.342243243,2.59674324 C0.363405405,2.48436486 0.523216216,2.47852703 0.614432432,2.48691892 C1.13035135,2.54566216 1.64043243,2.68795946 2.10636486,2.91745946 C2.40154054,3.04735135 2.69927027,3.17833784 2.97036486,3.35493243 C3.33668919,3.55451351 3.65302703,3.85662162 4.06204054,3.97374324 C4.39698649,4.06204054 4.73886486,4.13464865 5.08804054,4.14048649 C5.45035135,4.13902703 5.81521622,4.14304054 6.17132432,4.07772973 C5.97904054,4.00767568 5.76522973,3.98797297 5.58681081,3.88398649 C5.49705405,3.83254054 5.53864865,3.69863514 5.59994595,3.64025676 C5.72655405,3.48336486 5.9462027,3.48482432 6.12863514,3.47059459 C6.291,3.46037838 6.44643243,3.52313514 6.60186486,3.56181081 C6.89412162,3.64427027 7.17908108,3.79678378 7.4925,3.75847297 C7.75921622,3.71578378 8.03140541,3.71578378 8.30067568,3.67272973 C8.57432432,3.62858108 8.84943243,3.60304054 9.12162162,3.54466216 C9.30989189,3.54466216 9.49633784,3.52313514 9.67877027,3.48044595 C9.96956757,3.43191892 10.2647432,3.4092973 10.5511622,3.33778378 C10.9360946,3.25678378 11.3308784,3.23817568 11.7169054,3.16410811 C11.9522432,3.11266216 12.195973,3.09004054 12.4269324,3.01998649 C12.2200541,2.95722973 12.0047838,2.93022973 11.7968108,2.87477027 C11.6501351,2.82040541 11.4976216,2.78501351 11.3520405,2.72809459 C11.3491216,2.64672973 11.3848784,2.5712027 11.4246486,2.50260811 C11.5158649,2.39424324 11.6515946,2.33586486 11.7497432,2.23625676 C12.2857297,1.64335135 13.4387027,0.403175676 13.4744595,0.226581081 L13.4759189,0.226581081 Z" id="Fill-1" fill="#FFFFFF"></path>
                        <path d="M13.4759189,0.226581081 C13.5043784,0.186810811 13.548527,0.136824324 13.6069054,0.175135135 C13.9889189,0.287878378 14.2895676,0.564445946 14.5960541,0.805256757 C14.7843243,0.949378378 14.9594595,1.10590541 15.1247432,1.27264865 C15.5082162,1.62182432 15.8643243,1.99836486 16.2477973,2.34754054 C16.3036216,2.39022973 16.3561622,2.44860811 16.4287703,2.46575676 C16.7297838,2.53252703 17.0417432,2.53252703 17.3496892,2.5442027 C18.7037027,2.53398649 20.0562568,2.66533784 21.3858243,2.92037838 C21.6766216,2.95321622 21.9531892,3.06304054 22.2454459,3.09697297 C22.7755946,3.23525676 23.3086622,3.36514865 23.8300541,3.53189189 C24.1496757,3.64718919 24.4857162,3.70702703 24.804973,3.82122973 C25.0800811,3.90952703 25.3497162,4.01935135 25.6146081,4.13172973 C25.8568784,4.2587027 26.1119189,4.36268919 26.3374054,4.5225 C26.5267703,4.65202703 26.7464189,4.80162162 26.8004189,5.04097297 C26.8489459,5.15809459 26.7449595,5.24201351 26.6723514,5.31316216 C26.535527,5.41167568 26.3698784,5.45290541 26.2188243,5.5215 C26.2202838,5.53281081 26.2246622,5.5557973 26.2275811,5.56710811 C26.4012568,5.59410811 26.5665405,5.52697297 26.7405811,5.5215 C26.8489459,5.56418919 26.8788649,5.72509459 26.792027,5.805 C26.6822027,5.98597297 26.4884595,6.08886486 26.306027,6.18117568 C26.0878378,6.30121622 25.8441081,6.36251351 25.6102297,6.44351351 C24.1992973,6.87843243 22.7967568,7.03641892 21.4573378,7.44689189 C21.3588243,7.46841892 21.3102973,7.55817568 21.2420676,7.62093243 C21.1508514,7.70922973 21.0880946,7.82051351 21.0238784,7.92851351 C20.8045946,8.235 20.5677973,8.52725676 20.3171351,8.80966216 C20.2116892,8.89941892 20.0916486,9.0377027 19.9380405,8.97895946 C19.8223784,8.94648649 19.7723919,8.82644595 19.7610811,8.71844595 C19.7512297,8.41743243 19.737,8.11532432 19.764,7.81467568 C19.4162838,7.86721622 19.070027,7.94018919 18.716473,7.95441892 C18.4639865,7.97010811 18.2177027,8.02118919 17.9666757,8.04855405 C17.6488784,8.08394595 17.3325405,8.14962162 17.0103649,8.154 C16.389,8.15108108 15.7647162,8.2152973 15.1448108,8.14086486 C15.0962838,8.29483784 14.9908378,8.41743243 14.8967027,8.54440541 C14.7697297,8.68816216 14.6971216,8.88372973 14.5289189,8.9847973 C14.4121622,9.04171622 14.3253243,8.92641892 14.2851892,8.83228378 C14.2552703,8.79652703 14.2297297,8.69545946 14.1611351,8.71954054 C13.7236622,9.02456757 13.4715405,9.46933784 12.9355541,9.79297297 C12.8644054,9.84004054 12.762973,9.83712162 12.7005811,9.77728378 C12.5622973,9.61345946 12.5706892,9.38687838 12.6192162,9.18875676 C12.6947432,8.62722973 12.6619054,8.36781081 12.9527027,7.89604054 C12.7761081,7.85882432 12.5951351,7.85298649 12.4152568,7.83036486 C11.9267027,7.73075676 11.4319459,7.67785135 10.9346351,7.63954054 C10.5212432,7.60232432 10.1023784,7.54686486 9.68606757,7.60524324 C9.56055405,7.61509459 9.45948649,7.68916216 9.35112162,7.74060811 C9.15008108,7.83328378 8.96071622,7.9442027 8.77682432,8.0667973 C8.62832432,8.16677027 8.46048649,8.23208108 8.30906757,8.32475676 C8.03432432,8.48602703 7.74754054,8.62577027 7.46112162,8.75967568 C7.182,8.85636486 6.92404054,9.00486486 6.65039189,9.11578378 C6.53472973,9.16139189 6.39243243,9.16285135 6.28662162,9.09462162 C6.14724324,8.96327027 6.10564865,8.76806757 6.04289189,8.59439189 C5.97028378,8.36343243 5.86045946,8.14232432 5.82360811,7.90151351 C5.79660811,7.63808108 5.79660811,7.37282432 5.83054054,7.10902703 C5.84075676,7.04371622 5.82068919,6.9795 5.79514865,6.91966216 C5.84075676,6.86821622 5.86921622,6.78137838 5.95897297,6.80144595 C6.15855405,6.79122973 6.36105405,6.76277027 6.53035135,6.64893243 C6.36944595,6.57486486 6.19285135,6.55625676 6.02172973,6.51904054 C5.79660811,6.47051351 5.56856757,6.44789189 5.34052703,6.42490541 C5.01251351,6.39243243 4.68486486,6.43366216 4.35977027,6.47635135 C4.19594595,6.50335135 4.04927027,6.58763514 3.88654054,6.62740541 C3.59866216,6.69855405 3.32793243,6.82114865 3.03713514,6.88974324 C2.73940541,6.95943243 2.4642973,7.09771622 2.17204054,7.18893243 C1.94108108,7.25898649 1.70902703,7.34582432 1.46785135,7.36844595 C1.13874324,7.40712162 0.809635135,7.44689189 0.478702703,7.48556757 C0.326554054,7.48812162 0.176594595,7.47972973 0.0255405405,7.46987838 C0.0711486486,7.35713514 0.125513514,7.24439189 0.124054054,7.1207027 C0.303567568,6.47051351 0.488918919,5.92759459 0.681202703,5.29893243 C0.698351351,5.1777973 0.648364865,5.0625 0.637054054,4.94428378 C0.289337838,4.13172973 0.349175676,3.51182432 0.342243243,2.59674324 C0.363405405,2.48436486 0.523216216,2.47852703 0.614432432,2.48691892 C1.13035135,2.54566216 1.64043243,2.68795946 2.10636486,2.91745946 C2.40154054,3.04735135 2.69927027,3.17833784 2.97036486,3.35493243 C3.33668919,3.55451351 3.65302703,3.85662162 4.06204054,3.97374324 C4.39698649,4.06204054 4.73886486,4.13464865 5.08804054,4.14048649 C5.45035135,4.13902703 5.81521622,4.14304054 6.17132432,4.07772973 C5.97904054,4.00767568 5.76522973,3.98797297 5.58681081,3.88398649 C5.49705405,3.83254054 5.53864865,3.69863514 5.59994595,3.64025676 C5.72655405,3.48336486 5.9462027,3.48482432 6.12863514,3.47059459 C6.291,3.46037838 6.44643243,3.52313514 6.60186486,3.56181081 C6.89412162,3.64427027 7.17908108,3.79678378 7.4925,3.75847297 C7.75921622,3.71578378 8.03140541,3.71578378 8.30067568,3.67272973 C8.57432432,3.62858108 8.84943243,3.60304054 9.12162162,3.54466216 C9.30989189,3.54466216 9.49633784,3.52313514 9.67877027,3.48044595 C9.96956757,3.43191892 10.2647432,3.4092973 10.5511622,3.33778378 C10.9360946,3.25678378 11.3308784,3.23817568 11.7169054,3.16410811 C11.9522432,3.11266216 12.195973,3.09004054 12.4269324,3.01998649 C12.2200541,2.95722973 12.0047838,2.93022973 11.7968108,2.87477027 C11.6501351,2.82040541 11.4976216,2.78501351 11.3520405,2.72809459 C11.3491216,2.64672973 11.3848784,2.5712027 11.4246486,2.50260811 C11.5158649,2.39424324 11.6515946,2.33586486 11.7497432,2.23625676 C12.2857297,1.64335135 13.4387027,0.403175676 13.4744595,0.226581081 L13.4759189,0.226581081 Z" id="Stroke-2" stroke="#FFFFFF" stroke-width="0.00434155"></path>
                    </g>
                </g>
            </g>
        </g>
    </g>
</svg>