<svg xmlns="http://www.w3.org/2000/svg" width="10" height="21"><title>Imported Layers</title><desc>Created with Sketch.</desc><g fill="none"><g fill="#A8A39E"><g><path d="M7.4 2.67V.77C7.4.34 7.07 0 6.65 0s-.76.34-.76.77V2.6H2.3C1.03 2.6 0 3.65 0 4.9v13.8C0 19.97 1.03 21 2.3 21h4.6c1.27 0 2.3-1.03 2.3-2.3V4.9c0-1.1-.77-2-1.8-2.23zM3.07 18.62c0 .22-.17.4-.38.4h-.76c-.22 0-.4-.18-.4-.4v-.76c0-.2.18-.38.4-.38h.76c.2 0 .38.17.38.38v.76zm0-2.45c0 .22-.17.4-.38.4h-.76c-.22 0-.4-.2-.4-.4v-.76c0-.2.18-.37.4-.37h.76c.2 0 .38.17.38.38v.77zm0-2.45c0 .2-.17.38-.38.38h-.76c-.22 0-.4-.17-.4-.38v-.76c0-.22.18-.4.4-.4h.76c.2 0 .38.18.38.4v.76zm2.3 4.9c0 .22-.17.4-.38.4H4.2c-.2 0-.37-.18-.37-.4v-.76c0-.2.17-.38.38-.38H5c.2 0 .38.17.38.38v.76zm0-2.45c0 .22-.17.4-.38.4H4.2c-.2 0-.37-.2-.37-.4v-.76c0-.2.17-.37.38-.37H5c.2 0 .38.17.38.38v.77zm0-2.45c0 .2-.17.38-.38.38H4.2c-.2 0-.37-.17-.37-.38v-.76c0-.22.17-.4.38-.4H5c.2 0 .38.18.38.4v.76zm2.3 4.9c0 .22-.17.4-.38.4H6.5c-.2 0-.37-.18-.37-.4v-.76c0-.2.17-.38.38-.38h.78c.2 0 .38.17.38.38v.76zm0-2.45c0 .22-.17.4-.38.4H6.5c-.2 0-.37-.2-.37-.4v-.76c0-.2.17-.37.38-.37h.78c.2 0 .38.17.38.38v.77zm0-2.45c0 .2-.17.38-.38.38H6.5c-.2 0-.37-.17-.37-.38v-.76c0-.22.17-.4.38-.4h.78c.2 0 .38.18.38.4v.76zm0-3.67c0 .42-.34.76-.76.76H2.3c-.43 0-.77-.33-.77-.75v-4.6c0-.43.35-.77.77-.77h4.6c.42 0 .76.35.76.77v4.6z"/></g></g></g></svg>