<?xml version="1.0" encoding="UTF-8" standalone="no"?>
<svg width="21px" height="21px" viewBox="0 0 21 21" version="1.1" xmlns="http://www.w3.org/2000/svg" xmlns:xlink="http://www.w3.org/1999/xlink" xmlns:sketch="http://www.bohemiancoding.com/sketch/ns">
    <!-- Generator: Sketch 3.3.1 (12002) - http://www.bohemiancoding.com/sketch -->
    <title>Imported Layers</title>
    <desc>Created with Sketch.</desc>
    <defs></defs>
    <g id="Fishing-Report" stroke="none" stroke-width="1" fill="none" fill-rule="evenodd" sketch:type="MSPage">
        <g sketch:type="MSArtboardGroup" transform="translate(-1209.000000, -654.000000)" id="SIDEBAR" fill="#444444">
            <g sketch:type="MSLayerGroup" transform="translate(1203.000000, 259.000000)">
                <g id="STAY-TUNED" transform="translate(6.000000, 392.000000)" sketch:type="MSShapeGroup">
                    <path d="M1.96868,10.42644 C1.96868,12.70592 2.85684,14.84848 4.47104,16.46072 L3.07888,17.85316 C1.09368,15.86908 0,13.23092 0,10.42644 C0,7.62224 1.09144,4.98408 3.07552,3.00224 L4.46796,4.3944 C2.85572,6.0044 1.96868,8.14724 1.96868,10.42644 L1.96868,10.42644 Z M7.48216,7.40888 L6.09,6.01644 C4.91316,7.19552 4.2644,8.76184 4.2644,10.4256 C4.2644,12.09132 4.91316,13.65736 6.09196,14.83448 L7.4844,13.44204 C6.67716,12.63704 6.23308,11.5652 6.23308,10.42448 C6.2342,9.28796 6.67828,8.21724 7.48216,7.40888 L7.48216,7.40888 Z M17.92112,3 L16.52868,4.39244 C18.14204,6.0044 19.03104,8.14836 19.03104,10.42644 C19.03104,12.70592 18.144,14.84848 16.53316,16.46072 L17.92532,17.85316 C19.90828,15.86908 21,13.23092 21,10.42644 C21,7.61888 19.90604,4.98184 17.92112,3 L17.92112,3 Z M10.5,8.45776 C9.41276,8.45776 8.53104,9.33948 8.53104,10.42644 C8.53104,11.155 8.9292,11.78276 9.51552,12.12184 L9.51552,24 L11.4842,24 L11.4842,12.12296 C12.07052,11.78164 12.46868,11.15388 12.46868,10.4256 C12.46868,9.33948 11.58808,8.45776 10.5,8.45776 L10.5,8.45776 Z M14.90664,6.01756 L13.5142,7.40888 C14.32032,8.21612 14.76552,9.28796 14.76552,10.42644 C14.76552,11.56744 14.32256,12.63928 13.51756,13.44428 L14.91,14.83644 C16.08684,13.6596 16.73532,12.09356 16.73532,10.42756 C16.73532,8.76072 16.08572,7.19664 14.90664,6.01756 L14.90664,6.01756 Z" id="Imported-Layers"></path>
                </g>
            </g>
        </g>
    </g>
</svg>