<?xml version="1.0" encoding="UTF-8" standalone="no"?>
<svg width="34px" height="34px" viewBox="0 0 34 34" version="1.1" xmlns="http://www.w3.org/2000/svg" xmlns:xlink="http://www.w3.org/1999/xlink" xmlns:sketch="http://www.bohemiancoding.com/sketch/ns">
    <!-- Generator: Sketch 3.3.1 (12002) - http://www.bohemiancoding.com/sketch -->
    <title>Oval 9</title>
    <desc>Created with Sketch.</desc>
    <defs></defs>
    <g id="Home" stroke="none" stroke-width="1" fill="none" fill-rule="evenodd" sketch:type="MSPage">
        <g sketch:type="MSArtboardGroup" transform="translate(-469.000000, -3403.000000)" id="TRIPS" fill="#FFFFFF">
            <g sketch:type="MSLayerGroup" transform="translate(0.000000, 2075.000000)">
                <g id="DETAILS" transform="translate(430.000000, 1324.000000)" sketch:type="MSShapeGroup">
                    <path d="M56,38 C65.3888407,38 73,30.3888407 73,21 C73,11.6111593 65.3888407,4 56,4 C46.6111593,4 39,11.6111593 39,21 C39,30.3888407 46.6111593,38 56,38 Z M62.55,16.5 C62.55,13.29 59.79,10.8 55.77,10.8 C54.39,10.8 53.31,11.04 52.5,11.37 L52.32,15.24 C53.1,14.94 54.45,14.67 55.41,14.67 C57.24,14.67 58.38,15.24 58.38,16.23 C58.38,17.01 57.63,17.22 56.13,17.64 C54.27,18.15 53.13,19.05 53.13,20.61 C53.13,21.9 54.06,23.34 55.62,23.97 C55.89,23.97 58.56,23.52 58.56,23.52 C58.23,23.19 56.91,22.17 56.91,21.81 C57.12,21.3 57.87,21.06 59.07,20.7 C60.99,20.07 62.55,18.9 62.55,16.5 Z M59.22,27.9 C59.22,26.28 58.08,25.38 56.37,25.38 C54.69,25.38 53.55,26.28 53.55,27.9 C53.55,29.55 54.69,30.45 56.37,30.45 C58.08,30.45 59.22,29.55 59.22,27.9 Z" id="Oval-9"></path>
                </g>
            </g>
        </g>
    </g>
</svg>