<svg xmlns="http://www.w3.org/2000/svg" width="44" height="45"><title>Imported Layers</title><desc>Created with Sketch.</desc><g fill="none"><g fill="#fff"><g><path d="M18.57 21.37c.1.25.34.4.63.35l-.34-.93c-.24.08-.4.33-.3.57z"/><path d="M18.96 20.74l.34.93c.24-.1.4-.4.3-.64-.1-.2-.35-.34-.64-.3z"/><path d="M24.3 20.94c-.15.2-.15.5.05.68l.63-.78c-.2-.15-.5-.1-.68.1z"/><path d="M25.12 20.88l-.63.8c.23.13.52.08.67-.16.15-.2.15-.5-.05-.64z"/><path d="M21.92.5C9.88.5.08 9.77.08 21.17s9.8 20.7 21.84 20.7 21.84-9.3 21.84-20.7c0-11.4-9.8-20.7-21.84-20.7zm.68 2.24c-.24.34-.73.4-1.12.2l1.02-1.28c.3.3.34.8.1 1.08zm-1.36-.98c.24-.34.73-.4 1.12-.2l-1.02 1.28c-.3-.25-.4-.74-.1-1.08zM1.4 21.86c-.4-.24-.5-.68-.3-1.02l1.4.88c-.28.3-.77.4-1.1.14zm1.2-.3l-1.4-.87c.3-.3.72-.4 1.1-.2.4.24.5.68.3 1.07zm15.24 17.57c.34-.3.83-.24 1.12 0l-1.26 1.03c-.2-.3-.15-.74.14-1.03zM19 40.35c-.33.3-.82.25-1.1 0l1.25-1.02c.2.3.2.78-.14 1.02zm6.03.15c-.4-.2-.54-.64-.4-1.03l1.5.74c-.28.35-.72.5-1.1.3zm1.16-.44l-1.5-.73c.23-.34.67-.5 1.1-.3.4.2.53.64.4 1.03zm-4.28-1.62c-10.05 0-18.2-7.72-18.2-17.26 0-9.54 8.15-17.27 18.2-17.27 10.04 0 18.2 7.8 18.2 17.28 0 9.5-8.16 17.27-18.2 17.27zm19.75-18c.4-.14.87.06 1.07.4l-1.56.6c-.14-.4.1-.85.5-1zm.63 1.52c-.4.15-.87-.05-1.06-.4L42.8 21c.08.4-.1.83-.5.98z"/><path d="M21.92 42.3c-1.07 0-2.1-.1-3.1-.2L7.6 43.98v.54h28.64v-.53l-11.2-1.9c-1.03.14-2.05.24-3.12.24z"/><path d="M21.92 4.84c-9.5 0-17.23 7.34-17.23 16.34s7.7 16.34 17.22 16.34c9.5 0 17.23-7.3 17.23-16.34 0-9.05-7.72-16.34-17.23-16.34zm7.76 6.12c.83-.78 2.24-.78 3.06 0 .83.78.83 2.1 0 2.88-.82.8-2.23.8-3.06 0-.82-.83-.82-2.1 0-2.88zm-4.07 1.7c.7.3 1.03 1.04.73 1.72-.3.7-1.06.98-1.8.73-.67-.28-1-1-.72-1.7.3-.68 1.08-1.02 1.8-.73zm-3.4 12.68c0 .15-.14.3-.28.3-.15 0-.3-.1-.3-.3 0-.05 0-.1.06-.1-2.24-.15-3.98-1.86-3.98-4 0-2 1.6-3.73 3.64-3.97v-.83c.14.15.34.24.58.24.24 0 .44-.1.58-.24v.83c2.1.24 3.64 1.96 3.64 3.96 0 2.15-1.75 3.87-3.98 4 .05 0 .05.06.05.1zM21.35 16c0-.15.05-.3.14-.4h.88c.1.1.15.25.15.4 0 .3-.3.58-.58.58-.3 0-.58-.3-.58-.6zm.58-9.3c1.2 0 2.18.93 2.18 2.05 0 1.13-.97 2.06-2.18 2.06-1.2-.04-2.18-.92-2.18-2.1 0-1.12.97-2 2.18-2zm-6.46 11.98c-.3.7-1.06.98-1.8.74-.67-.3-1-1.03-.72-1.7.3-.7 1.07-1 1.8-.75.68.3 1.02 1.08.72 1.7zm-4.36-7.72c.82-.78 2.23-.78 3.05 0 .83.78.83 2.1 0 2.88-.82.8-2.23.8-3.05 0-.88-.83-.88-2.1 0-2.88zM8.77 23.23c-1.2 0-2.2-.93-2.2-2.05 0-1.13 1-2.05 2.2-2.05 1.2 0 2.18.93 2.18 2.05-.05 1.17-.97 2.05-2.18 2.05zm5.38 8.22c-.82.78-2.23.78-3.05 0-.83-.78-.83-2.1 0-2.88.82-.8 2.23-.8 3.05 0 .83.78.83 2.1 0 2.88zm.6-5.97c-.7.3-1.52-.05-1.8-.68-.3-.7.04-1.42.72-1.7.68-.3 1.5.03 1.8.67.3.64 0 1.42-.73 1.7zm3.38-12.76c.68-.3 1.5.05 1.8.68.3.7-.05 1.42-.73 1.7-.68.3-1.5-.03-1.8-.67-.3-.7.06-1.47.73-1.7zm-.63 15.3c.3-.68 1.07-.97 1.8-.73.68.3 1.02 1.02.73 1.7-.3.7-1.07.98-1.8.74-.68-.3-1.02-1.03-.73-1.7zM21.92 37c-1.94 0-3.5-1.52-3.5-3.33 0-1.86 1.56-3.33 3.5-3.33s3.5 1.52 3.5 3.33c0 1.8-1.56 3.33-3.5 3.33zm3.73-7.3c-.67.3-1.5-.04-1.8-.68-.28-.68.06-1.4.74-1.7.67-.3 1.5.04 1.78.68.34.68 0 1.46-.73 1.7zm3.45-12.76c.68-.3 1.5.05 1.8.7.3.67-.05 1.4-.73 1.7-.68.3-1.5-.05-1.8-.68-.34-.64 0-1.42.73-1.72zm-.73 6.8c.3-.68 1.07-.98 1.8-.73.68.28 1.02 1.02.73 1.7-.3.7-1.07.98-1.8.73-.68-.3-1.02-1.07-.73-1.7zm4.37 7.73c-.82.78-2.23.78-3.06 0-.82-.78-.82-2.1 0-2.88.83-.8 2.24-.8 3.06 0 .83.78.83 2.1 0 2.88zm4.47-10.27c0 1.13-.96 2.05-2.18 2.05-1.2 0-2.18-.93-2.18-2.05 0-1.13.97-2.05 2.18-2.05 1.22.04 2.2.92 2.2 2.05z"/><path d="M21.92 30.62c-1.75 0-3.2 1.37-3.2 3.03 0 1.66 1.45 3.03 3.2 3.03 1.75 0 3.2-1.37 3.2-3.03 0-1.66-1.45-3.03-3.2-3.03zm0 5.67c-1.5 0-2.77-1.18-2.77-2.65S20.37 31 21.92 31c1.5 0 2.76 1.18 2.76 2.65s-1.26 2.64-2.76 2.64z"/></g></g></g></svg>