<?xml version="1.0" encoding="UTF-8" standalone="no"?>
<svg width="116px" height="65px" viewBox="0 0 116 65" version="1.1" xmlns="http://www.w3.org/2000/svg" xmlns:xlink="http://www.w3.org/1999/xlink" xmlns:sketch="http://www.bohemiancoding.com/sketch/ns">
    <!-- Generator: Sketch 3.3.1 (12002) - http://www.bohemiancoding.com/sketch -->
    <title>MAP</title>
    <desc>Created with Sketch.</desc>
    <defs></defs>
    <g id="Fishing-Report" stroke="none" stroke-width="1" fill="none" fill-rule="evenodd" sketch:type="MSPage">
        <g id="Fishing-Report-(Alert)" sketch:type="MSArtboardGroup" transform="translate(-429.000000, -174.000000)">
            <g id="TITLE" sketch:type="MSLayerGroup" transform="translate(429.000000, 168.000000)">
                <g id="MAP" transform="translate(0.000000, 6.000000)" sketch:type="MSShapeGroup">
                    <path d="M53.8671875,1 C35.9155828,1 17.9639781,0 0.0123733333,0 C0.00618666667,4.7792 0,9.5584 0,14.3376 L0.12064,14.5665067 L0.332533333,14.7784 L0.615573333,15.13568 L0.731573333,15.3522133 L0.972853333,15.67856 L1.08730667,15.9028267 L1.26208,16.0714133 L1.47397333,16.31888 L1.79413333,16.5493333 L1.93333333,16.73648 L2.15141333,17.5098133 L2.51952,17.8237867 L2.67109333,18.0233067 L2.72522667,18.2228267 L3.05157333,18.4888533 L3.1784,18.676 L3.21397333,18.87552 L3.18922667,19.23744 L3.49856,19.7694933 L3.58826667,20.0463467 L3.50474667,20.2706133 L3.13509333,20.5784 L3.09952,20.8134933 L3.34698667,20.9836267 L3.50474667,21.2310933 L3.55888,21.5265067 L3.81253333,21.67808 L3.91461333,21.9085333 L3.28666667,22.07712 L3.10570667,22.2828267 L3.35317333,22.5117333 L3.73365333,22.6261867 L4.45904,23.11648 L4.85189333,23.5696533 L5.00810667,23.8047467 L5.08698667,24.0042667 L5.18442667,24.1914133 L5.44890667,24.37856 L5.93301333,24.4698133 L6.80224,24.81936 L7.07445333,25.1286933 L7.16570667,25.3328533 L7.31109333,25.55712 L7.3776,25.77984 L7.56474667,25.9623467 L7.80602667,26.216 L8.14474667,26.4866667 L8.51904,26.9645867 L8.65205333,27.29712 L9.50890667,28.2637867 L9.57541333,28.5901333 L9.85381333,28.8252267 L10.1739733,28.9891733 L10.4461867,29.35728 L10.8266667,29.6418667 L10.8808,29.8460267 L10.8328533,30.0888533 L10.8514133,30.33632 L10.92256,30.6317333 L11.00144,30.8312533 L11.4484267,31.1699733 L11.6912533,31.4298133 L11.9510933,31.5922133 L12.2944533,31.7128533 L12.3857067,31.9665067 L12.3068267,32.39648 L12.37952,32.5898133 L12.8265067,32.2928533 L13.0384,32.11808 L13.5642667,32.3176 L13.7081067,32.53568 L13.5750933,32.8852267 L13.58128,33.1094933 L13.7808,33.35696 L14.0112533,33.5085333 L14.4334933,33.5920533 L14.7660267,33.4714133 L15.12176,33.5441067 L15.5455467,33.31984 L16.25856,33.1218667 L16.5957333,33.3028267 L16.6081067,33.73744 L16.5307733,34.0514133 L16.49984,34.27568 L16.5184,34.4922133 L16.42096,34.6855467 L16.4085867,34.9036267 L16.4750933,35.09696 L16.3250667,35.31968 L15.99872,35.45888 L15.91984,35.6893333 L16.1069867,35.9306133 L16.16112,36.1533333 L16.1131733,36.4085333 L15.8889067,36.8910933 L15.8224,37.21744 L15.84096,37.55616 L15.7930133,37.816 L15.5934933,38.1052267 L15.5331733,38.4192 L15.4063467,38.6852267 L15.3707733,38.8909333 L15.50224,39.2049067 L15.5517333,39.5853867 L15.5749333,39.8220267 L15.4914133,40.01536 L15.03824,40.1050667 L14.8928533,40.3293333 L15.3274667,40.9031467 L15.40016,41.1088533 L15.3274667,41.3253867 L15.1341333,41.6223467 L15.0923733,41.8636267 L15.20064,42.09872 L15.18208,42.35856 L15.5269867,42.63696 L15.8533333,42.7514133 L15.87808,43.0050667 L15.78064,43.1984 L15.73888,43.43504 L15.7992,43.6392 L16.0049067,43.9717333 L15.9616,44.2130133 L15.7326933,44.4496533 L15.2130133,44.55792 L14.9531733,44.7326933 L14.7722133,45.0652267 L14.6747733,45.2647467 L14.4938133,45.47664 L14.45824,45.6931733 L14.5850667,46.0133333 L14.9176,46.4123733 L14.9949333,46.6057067 L14.95936,46.8114133 L14.9949333,47.0294933 L14.9176,47.2522133 L14.59744,47.56 L14.56032,47.7718933 L14.65776,47.9714133 L14.6330133,48.2018667 L14.5123733,48.4307733 L14.8742933,48.49728 L15.3274667,48.5885333 L15.7450667,48.8653867 L15.8285867,49.0896533 L16.31888,49.4221867 L16.48128,49.6263467 L16.89888,49.6510933 L17.2608,49.45776 L17.46032,49.0463467 L17.6289067,48.8298133 L17.99856,48.7926933 L18.2816,48.6117333 L18.66208,48.4493333 L18.80128,48.21888 L19.0549333,47.99616 L19.1941333,47.7425067 L19.2915733,47.5429867 L19.7138133,47.33728 L19.7865067,47.0898133 L19.7447467,46.77584 L20.1484267,46.7820267 L20.4933333,47.0294933 L20.7408,47.2522133 L20.80112,47.5368 L21.4847467,47.8507733 L21.71984,48.0441067 L21.7739733,48.2730133 L21.6718933,48.4617067 L21.5868267,48.6906133 L21.55744,48.9504533 L21.9734933,49.23504 L22.1065067,49.4221867 L22.1312533,49.7485333 L22.04,50.0439467 L22.0044267,50.2728533 L22.0647467,50.5636267 L22.37872,50.8899733 L22.4931733,51.2333333 L22.4746133,51.5720533 L22.4452267,51.81952 L22.4808,52.0437867 L22.7947733,52.3330133 L22.9339733,52.5510933 L22.9525333,52.77536 L23.1644267,52.97952 L23.35776,53.2037867 L23.6531733,53.4821867 L23.7676267,53.8085333 L23.8155733,54.01888 L23.9424,54.2493333 L23.96096,54.4844267 L24.4141333,54.5633067 L24.6074667,54.9437867 L24.94,55.4510933 L25.1518933,55.9584 L25.2122133,56.2429867 L25.1457067,56.6652267 L25.0482667,56.8647467 L24.7714133,57.0333333 L24.7776,57.27616 L24.9338133,57.4818667 L25.12096,57.99536 L25.2725333,58.2304533 L25.8339733,58.53824 L26.0458667,58.696 L26.0876267,58.9914133 L26.5052267,59.0223467 L26.7650667,58.79808 L27.1146133,58.7130133 L27.5925333,58.9063467 L27.8152533,59.0934933 L27.99776,59.2883733 L28.1663467,59.5652267 L28.3473067,59.75856 L28.43856,60.0122133 L28.60096,60.3029867 L28.7277867,60.6293333 L28.8669867,60.85824 L28.9458667,61.0515733 L28.92112,61.25728 L28.7339733,61.4444267 L28.74016,61.6918933 L29,61.9888533 L29.04176,62.2718933 L29.3263467,62.4837867 L29.4114133,62.7018667 L29.32016,62.9122133 L29.2954133,63.1241067 L29.39904,63.3653867 L29.4469867,63.59584 L29.7733333,63.7706133 L29.9852267,64.0490133 L30.5342933,64.2717333 L30.86064,64.67696 L31.2055467,64.5686933 L31.0477867,64.2052267 L31.0416,63.9886933 L31.70048,63.2447467 L32.0330133,63.13648 L32.3408,62.97872 L32.7707733,63.0637867 L33.9477867,63.21536 L34.1473067,63.37776 L34.6128533,63.3592 L34.9453867,63.5231467 L35.3861867,63.5649067 L35.6877867,62.99728 L35.76048,62.6833067 L35.9909333,62.4528533 L36.38224,62.3260267 L36.58176,62.1636267 L37.01792,62.3152 L37.4154133,62.3445867 L37.8747733,62.43584 L38.2134933,62.5085333 L39.1322133,62.3384 L39.5730133,62.3028267 L39.8576,62.1821867 L40.26128,62.1930133 L40.5938133,62.3693333 L40.7330133,62.5920533 L41.13824,62.5626667 L41.5852267,62.4837867 L42.0616,62.1450667 L43.2525333,62.1326933 L43.6685867,62.3028267 L44.1047467,62.39872 L44.2315733,62.21776 L43.8928533,62.0723733 L43.7536533,61.7584 L43.75984,61.5294933 L43.8510933,61.29904 L43.88048,61.0933333 L44.2068267,60.8891733 L44.3089067,60.63552 L44.2424,60.4421867 L44.1712533,60.2117333 L44.4063467,59.97664 L44.7512533,59.91632 L44.98016,59.6502933 L45.57872,59.8250667 L45.7658667,60.1328533 L46.1525333,60.75616 L46.2731733,60.9850667 L46.4958933,61.13664 L46.5330133,61.4134933 L46.55776,61.6439467 L46.73872,61.8728533 L46.9923733,62.0368 L47.2816,62.4776 L47.56,62.8286933 L48.14,63.0637867 C48.14,60.8041067 48.1461867,58.53824 48.1461867,56.2723733 C70.7661867,56.2723733 93.38,56.2661867 116,56.2723733 C115.98144,51.83808 115.95824,47.59712 115.93968,43.35616 C115.866987,28.9041067 115.794293,14.4520533 115.727787,0 C95.1075869,0 74.4873872,1 53.8671875,1 Z" id="Imported-Layers" fill="#665F5A"></path>
                    <path d="M23,38.9140028 L23.8049441,39.7916684 L24.8931445,39.3844278 L24.8321061,38.6855856 L24.483758,38.1226493 L24.9248559,37.6679608 L26.2843912,37.4259531 L26.9357855,37.5616205 L28.3427686,36.8196223 L28.1932721,36.093599 L27.9965663,35.4853607 L28.3313239,35.1191302 L28.7564469,35.0127899 L28.9688892,34.4951555 L29.4667337,33.8277863 L29.7518976,32.8165992 L30.0845092,32.4525146 L30.960029,32.3166087 L31.8219581,32.2713068 L32.3081195,32.8165992 L32.4754983,33.4701394 L32.5975751,34.0805235 L32.9478307,34.3993061 L33.4792941,34.3993061 L33.995021,34.125587 L33.995021,33.6079527 L34.2687401,33.2731951 L34.8884231,33.2731951 L35.3273751,33.2731951 L35.6599867,32.6985757 L36.1914501,32.4861334 L36.6165731,32.6692486 L36.8743174,33.0648062 L37.2837039,33.1711465 L37.8444943,33.0354791 L38.3759577,32.9744407 L38.8013191,33.0354791 L39.0294979,32.6239467 L39.6515651,32.8816909 L40.1219901,32.2441256 L41.0606941,32.4408314 L42.121475,32.8933741 L43.2368566,34.1446615 L44.7659165,35.1305749 L46.4740384,35.1622863 L47.6840772,35.5106344 L48.1251751,35.3432557 L48.8197255,34.8432652 L49.4868563,34.585521 L50.1971431,33.8299322 L50.7739084,33.7235918 L51.8642548,33.6625534 L52.9700991,33.8435228" id="Path-142" stroke="#57C7FF" stroke-width="3"></path>
                </g>
            </g>
        </g>
    </g>
</svg>