<?xml version="1.0" encoding="UTF-8" standalone="no"?>
<svg width="91px" height="104px" viewBox="0 0 91 104" version="1.1" xmlns="http://www.w3.org/2000/svg" xmlns:xlink="http://www.w3.org/1999/xlink" xmlns:sketch="http://www.bohemiancoding.com/sketch/ns">
    <!-- Generator: Sketch 3.3.1 (12002) - http://www.bohemiancoding.com/sketch -->
    <title>ICON</title>
    <desc>Created with Sketch.</desc>
    <defs></defs>
    <g id="Home" stroke="none" stroke-width="1" fill="none" fill-rule="evenodd" sketch:type="MSPage">
        <g sketch:type="MSArtboardGroup" transform="translate(-956.000000, -22.000000)" id="HEADER-(feature)">
            <g sketch:type="MSLayerGroup" transform="translate(0.000000, -6.000000)">
                <g id="ICON-+-BRO" transform="translate(936.000000, 31.000000)" sketch:type="MSShapeGroup">
                    <g id="ICON" transform="translate(20.728582, 0.000000)">
                        <path d="M23.0580052,90.8505153 C24.2382924,91.2209422 25.6213519,91.3518305 26.9910207,91.205693 C29.6481018,91.285751 31.1905734,88.2562568 34.0625419,89.2925624 C36.1623182,90.7679159 38.6912319,91.6441056 41.4777556,91.1256351 C43.9199491,91.0462125 45.4630584,88.1368052 48.1628618,89.3726203 C49.9202209,90.6878579 51.9772748,91.4052025 54.3773835,91.285751 C56.6920474,91.3257799 58.1924341,89.4120139 60.3349329,89.1337172 C62.9926516,89.0536593 64.4924007,91.5240187 67.1928418,91.285751 C69.8926453,91.5640476 71.7354493,90.0099069 73.9213082,89.1731108 C74.9504727,89.0536593 75.9789997,89.2525334 76.7505543,89.8510618 C78.3791084,90.8873674 80.2646348,91.4052025 82.3644111,91.205693 C83.0722009,91.2654188 83.6990093,91.1091152 84.2881965,90.8568691 L84.2952106,88.2028848 C82.6647435,88.9450092 80.746697,89.1832769 79.0639428,88.4157373 C77.2217765,86.8615966 74.521973,86.3037325 72.1212266,87.2199512 C70.2357002,88.4951598 67.6213416,89.4920718 65.3066778,88.4557663 C63.6781236,87.4194607 62.0068471,86.4231841 59.8209882,86.7815387 C57.3781571,86.8215676 56.0492977,89.3325913 53.3494942,88.8941788 C51.2490803,89.0536593 50.092386,87.1398933 48.2062219,86.8615966 C45.4203359,86.1836456 43.3205596,87.8578732 41.0486182,88.7747273 C38.5197045,89.4120139 36.6769005,87.8578732 34.6198467,86.9816835 C31.9194055,86.1836456 29.5192968,87.5789412 27.3340756,88.7340629 C25.7852275,89.0879698 24.3556198,88.810944 23.0733087,88.2200401 L23.0580052,90.8505153" id="Fill-1" fill="#FFFFFF"></path>
                        <path d="M23.321354,95.3667999 C24.429587,95.8090247 25.6965944,96.0536462 26.6951519,95.8598552 C29.2973951,95.3534569 30.8953421,92.9097835 33.7666731,93.9460891 C35.867087,95.4214426 38.3953631,96.2982677 41.1812491,95.7797972 C43.6247179,95.6997393 45.1678271,92.790332 47.866993,94.0255117 C49.6249897,95.3413847 51.6820436,96.0593646 54.0821523,95.9392777 C56.3961785,95.9793067 57.8965653,94.0655406 60.0397017,93.787244 C62.6967827,93.707186 64.1971695,96.1781808 66.896973,95.9392777 C69.5974141,96.2182098 71.4402181,94.6640691 73.6260769,93.827273 C74.6546039,93.707186 75.6831308,93.9060601 76.4546854,94.5039532 C78.0838772,95.5402588 79.9694036,96.0593646 82.0691799,95.8598552 C82.8592263,95.9265701 83.6097385,95.7200714 84.2588646,95.4157242 L84.2416481,92.7414077 C82.5608069,93.57185 80.5356354,93.8755619 78.7687116,93.0698994 C76.9259076,91.5151233 74.2261041,90.9566239 71.8259954,91.8734779 C69.940469,93.1499573 67.3254727,94.1455986 65.0108089,93.1099284 C63.3822548,92.0729874 61.7109782,91.0767108 59.5251194,91.4350654 C57.0822882,91.4750944 55.7534289,93.9854827 53.0536254,93.5477055 C50.9532114,93.707186 49.7965171,91.7940554 47.9103531,91.5151233 C45.124467,90.8371723 43.0246907,92.5114 40.7527493,93.428254 C38.2244733,94.0655406 36.3816693,92.5114 34.3246154,91.6345749 C31.6241743,90.8371723 29.2240656,92.2318325 27.0382067,93.388225 C25.6806532,93.6976553 24.4155587,93.5229257 23.2607774,93.0781594 L23.321354,95.3667999" id="Fill-2" fill="#FFFFFF"></path>
                        <path d="M11.7091383,100.329122 C12.1605934,100.345006 12.6241638,100.327851 13.0985742,100.276385 C15.7556553,100.357078 17.2987645,97.3275841 20.1707331,98.3645251 C22.2705094,99.8392432 24.7987854,100.716068 27.5846714,100.197598 C30.0281403,100.118175 31.5706118,97.2081326 34.271053,98.4439476 C36.0284121,99.7598206 38.0848283,100.47653 40.4855746,100.357078 C42.8002385,100.397107 44.2999876,98.4839766 46.443124,98.2044092 C49.100205,98.1249866 50.6005918,100.595981 53.3003953,100.357078 C56.0001988,100.63601 57.8430028,99.0818696 60.0294993,98.2444381 C61.0580262,98.1249866 62.0865531,98.3244961 62.8574701,98.9217538 C64.4866619,99.9580593 66.3721883,100.47653 68.4726023,100.276385 C71.3012107,100.516559 72.8443199,97.2881905 75.8438182,98.3645251 C77.9015097,99.8392432 80.387701,100.716068 83.1729494,100.197598 C83.5357713,100.191879 83.8756379,100.123258 84.1989257,100.013337 L84.2014763,97.3225011 C82.6054422,98.027138 80.6937722,98.2183875 79.058204,97.4870646 C77.2154,95.9322885 74.3013466,95.2543375 71.9866828,96.3319429 C70.1438788,97.726603 67.444713,98.5240056 65.1721339,97.4870646 C63.32933,95.9322885 60.6295265,95.3750598 58.2287801,96.2912785 C56.3432537,97.5677579 53.7288951,98.5640345 51.4148689,97.5264582 C49.7863148,96.4901526 48.1144006,95.493876 45.9285417,95.852866 C43.4857106,95.8922596 42.1568512,98.404554 39.4570477,97.9655061 C37.3566338,98.1249866 36.1999395,96.2118559 34.3144131,95.9322885 C31.5278894,95.2543375 29.4274754,96.9298359 27.1561717,97.8460546 C24.6278956,98.4839766 22.7850916,96.9298359 20.7274001,96.0523754 C18.026959,95.2543375 15.6274879,96.6502685 13.4416291,97.8060256 C12.8441525,97.941997 12.2638924,97.9839321 11.7033994,97.9521631 L11.7091383,100.329122" id="Fill-4" fill="#FFFFFF"></path>
                        <path d="M26.1276448,34.058936 C30.282562,56.0094259 49.4107398,61.8409481 69.6088918,59.2003068 C75.0346423,58.4912222 80.0739779,56.8951464 84.5400676,54.6198488 L84.5298652,54.6363687 C77.6572904,62.2863498 67.2081454,67.8732505 54.989526,69.4699617 C42.4616472,71.108608 30.4776824,68.2373236 21.5270113,62.3537002" id="Stroke-5" stroke="#FFFFFF" stroke-width="4.159"></path>
                        <path d="M10.07357,50.423796 C8.31493564,47.3313992 7.10914244,43.961341 6.56777891,40.3790658 C3.82078944,22.207819 19.1269026,4.88162834 41.0620088,0.561040976 L41.1098325,0.557864074 C32.9402807,5.80737772 27.2403413,13.4961171 25.4804316,22.0121218" id="Stroke-6" stroke="#FFFFFF" stroke-width="5"></path>
                        <path d="M21.981017,46.7011017 C21.981017,46.0206092 21.3822651,45.4640159 20.6508823,45.4640159 C19.9188619,45.4640159 19.3207477,46.0206092 19.3207477,46.7011017 C19.3207477,47.3809588 19.9188619,47.9381875 20.6508823,47.9381875 C21.3822651,47.9381875 21.981017,47.3809588 21.981017,46.7011017 L21.981017,46.7011017 Z M26.0823717,44.1151031 C25.9318867,44.4493132 25.4479115,44.7390467 25.1628827,45.0364048 C24.7720042,45.5065864 24.4601941,46.1165516 24.2650737,46.6115131 L24.3326644,46.6947479 C25.3063536,46.4685524 25.6889426,44.8635813 26.7576414,45.4678282 C28.1968139,47.4603814 25.8904395,49.0926739 25.2087934,50.9568803 C23.553458,53.1775351 20.9263464,55.4750709 20.8746969,58.2027594 C21.3095732,59.5612029 22.1455303,61.1769755 21.641788,62.6548705 C20.6113481,63.784577 19.1734509,62.3136712 17.9491659,63.2699188 C16.7465609,64.8793376 16.4296497,66.847111 16.2791646,68.5016418 C16.1018984,70.3378915 18.155764,71.7039595 17.4039765,73.5027217 C17.0736746,73.7009604 16.6387984,73.4023316 16.3626966,73.7752999 C15.6957163,74.7487029 15.4432075,75.7570517 15.8187825,76.8473646 C16.2281528,78.2407541 17.758509,78.7007695 18.7940501,79.5242226 C20.7401531,80.4105784 22.8182494,81.4811946 24.3957916,82.9527358 C24.8453338,83.5506288 25.2228216,84.3620097 24.9244022,85.012004 C23.7147831,86.0070098 21.9784664,86.2446421 20.5494962,86.9689759 C17.7636102,88.335044 16.0585383,90.7539375 14.6193657,93.1328021 C14.3502781,93.3208747 14.0990446,93.5299149 13.7457874,93.4835321 C11.729543,92.5317321 12.3040643,90.3193372 11.7678019,88.7048354 C11.2557702,85.6067201 12.1293486,83.2659784 12.0209484,80.2758778 C12.0209484,79.2338538 11.2959421,78.060306 10.2910081,77.427467 C9.87079783,77.1682318 9.49777349,76.9890545 9.0660855,76.802888 C8.76702838,77.0608525 8.35574514,77.3976041 7.87687116,77.2603619 C7.50958566,77.175221 7.09256358,77.0278127 7.02879874,76.6478552 C6.95546917,75.1502633 7.99228553,74.3750991 7.42350312,72.8495506 C6.97906216,71.0247378 6.35225374,69.2126326 5.73182181,67.3649461 L5.42830116,66.990707 C4.94751423,67.3922675 4.23972447,67.5790694 3.64798672,67.3903614 C2.76675657,66.7359194 3.01607711,65.6151083 2.71128116,64.7198571 C2.13612227,62.9706546 0.980703298,61.4806874 0.0299694766,59.831875 C-0.0714166251,59.576452 0.107124938,59.3210291 0.238480516,59.1145304 C1.12736244,58.5242619 2.27512963,58.4696192 3.27432473,58.0794956 C5.11394048,57.5635666 4.47629204,58.1868749 5.20895009,56.7884024 C7.84371344,53.1152678 10.3177894,48.9185796 14.6276552,46.5988054 C17.8917775,44.7193499 21.3778015,43.4822641 25.2011416,43.5909142 C25.5065752,43.6868566 25.933162,43.7789868 26.0823717,44.1151031 L26.0823717,44.1151031 Z" id="Fill-7" fill="#FFFFFF"></path>
                        <path d="M21.3892792,24.5720699 C21.3892792,23.8922127 20.7905273,23.334984 20.0597822,23.334984 C19.3277618,23.334984 18.7290099,23.8922127 18.7290099,24.5720699 C18.7290099,25.2531977 19.3277618,25.8091557 20.0597822,25.8091557 C20.7905273,25.8091557 21.3892792,25.2531977 21.3892792,24.5720699 L21.3892792,24.5720699 Z M33.3828087,23.5891362 C36.3198174,24.8376589 38.9507549,26.5004497 41.7194244,27.9535648 C43.0642249,28.606736 44.3159288,28.0418827 45.7047271,27.9561064 C46.4443993,27.8112396 47.400872,27.5297661 47.9505249,28.1422728 L48.1112123,28.6550249 C47.8657177,31.3356952 47.4633615,34.0913404 48.5939122,36.5229416 C48.6627782,36.946105 48.6047522,37.3749868 48.3643588,37.6977601 C47.9046142,38.0097319 47.1349726,38.1495156 46.4552393,38.0116381 C46.2116576,38.8763909 46.5923337,39.6922195 46.6694892,40.5271094 C47.259314,42.7579304 47.0552665,45.3147015 48.878941,46.9933767 C49.4215799,47.486432 49.6964063,47.7564687 49.9189456,48.4267951 C49.6753639,49.2909126 48.8719269,49.8926179 48.1583983,50.3647056 L47.6610325,50.4072761 C46.0356667,56.750915 40.0577125,61.4584491 34.8207059,64.3507011 C37.8170159,61.0969176 40.6424362,57.8272495 42.2391079,53.8084679 C42.5904521,52.6552523 42.8850457,51.096664 41.7391915,50.2446187 C40.4479534,49.3372954 38.9144089,49.5876353 37.4809752,49.2108547 C35.7975833,47.6173204 37.6085049,45.0580077 35.9244754,43.4638381 C34.8927602,42.2953734 33.8642333,40.7323373 32.1859426,39.9451009 C31.0011918,39.8046818 30.1257005,40.4521345 29.2553104,41.0716305 C28.8861119,41.1802806 28.289273,42.8881834 26.8398981,41.4820863 C25.7469686,40.3758889 26.7678438,37.8966342 26.5829257,36.29484 C25.127812,33.3797143 20.8211345,32.3516686 17.9351376,30.6285167 C16.429012,29.1690477 13.6718202,28.7147507 14.0760893,26.2526513 C14.2865133,25.9978637 14.40129,25.8275817 14.7653872,25.8275817 C15.5720125,25.8790475 16.3282636,26.4839298 17.1584818,26.3555829 C16.5099934,25.4622379 15.3303438,24.9266122 14.1704612,24.7461641 C13.8714041,24.4430876 14.2029813,24.1361988 14.377697,23.904285 C19.0331682,21.1556289 25.4530127,21.4224887 30.8660103,22.6646576 L33.3828087,23.5891362 L33.3828087,23.5891362 Z" id="Fill-9" fill="#FFFFFF"></path>
                        <path d="M59.3293613,46.4196281 C59.3293613,45.7391356 58.7312471,45.1819069 57.9998643,45.1819069 C57.2678439,45.1819069 56.6697297,45.7391356 56.6697297,46.4196281 C56.6697297,47.1001207 57.2678439,47.6560786 57.9998643,47.6560786 C58.7312471,47.6560786 59.3293613,47.1001207 59.3293613,46.4196281 L59.3293613,46.4196281 Z M70.499049,51.8819943 C72.5796958,54.5918921 73.8199221,57.545776 75.7921687,60.3020566 C77.0802185,60.9927152 78.4466991,61.5372362 79.8291209,61.9788257 C80.235303,62.1834182 80.4508282,62.5195345 80.538186,62.9020335 L80.3507174,63.460533 C78.650109,65.5401334 76.7798861,67.7290192 76.4642501,70.2908733 C76.2844333,70.606022 76.15244,70.9789904 75.7685757,71.1607092 C75.0722636,71.2553809 74.2739277,71.0704852 73.763809,70.5647223 C72.8379435,71.6283492 72.6670537,72.8794134 72.0791418,74.0898133 C71.1532763,75.9483012 70.1375023,78.1365517 71.0557161,80.0471408 C71.1315962,80.6139002 71.1666669,81.2435623 70.5487856,81.5390142 C69.6197318,81.7671158 68.8583796,82.2525465 67.9771494,81.765845 C62.4500128,83.9693446 57.0255375,85.6600921 51.1948802,84.4166525 L51.0820164,84.360739 C52.7813495,83.0353353 53.3654355,80.9493811 53.9782156,79.0044814 C53.9603614,76.3574863 56.0779919,74.2785213 57.9494901,72.5166112 C57.7460802,75.1134113 57.6262023,78.0526814 60.0065439,80.2587225 C61.1957583,79.5896668 61.5164954,78.2915845 61.6095921,77.2076254 L59.9159979,75.9247922 C59.6163031,74.4932799 60.5938182,73.1831253 61.5126696,71.9975053 C61.8640138,70.45226 61.6771828,69.4629725 61.3896034,67.8681675 C61.1415582,66.9633857 60.9891602,65.422588 59.7616869,65.0140383 C58.5431408,64.380564 57.2142814,65.6875416 56.3681219,64.2623832 C56.1226273,62.6243723 56.9541209,61.0562532 57.6835907,59.6152102 C58.0406738,58.1925933 57.171559,56.7471027 56.5013905,55.3543487 L53.4821251,50.7548293 C53.0555383,49.0037206 50.8084652,46.8313547 52.5052477,45.0580077 C53.6664055,44.2891973 54.0598346,46.2258371 55.107491,46.5409858 C55.049465,45.5046802 54.3340234,44.4798115 53.4355768,43.6887628 C53.3769131,43.426986 53.6332478,43.3126175 53.8022246,43.2026967 C54.7510455,42.9320246 55.5315272,43.179823 56.4988399,43.2541625 C63.0908494,44.5172989 66.0871594,45.9659665 70.499049,51.8819943 L70.499049,51.8819943 Z" id="Fill-10" fill="#FFFFFF"></path>
                    </g>
                </g>
            </g>
        </g>
    </g>
</svg>