<svg xmlns="http://www.w3.org/2000/svg" width="182" height="46"><title>BRO + ICON Copy</title><desc>Created with Sketch.</desc><g fill="none"><g><g><g fill="#665F5A"><path d="M60.9 17.63c.03 1.04-2.28 2.9-3.28 2.7-.38-.1-.54-3.82-.12-4.93.2-.46 3.36 1.15 3.4 2.23zm5.26.6c0-1.83-3.5-3.56-3.4-4.06.1-.42 2.95-1.97 3.4-4.64.14-.7-3.42-3.5-4.63-3.93-.55-.23-1.08-.14-1.72-.14l-7.72.1c.26 3.33.38 5.3.38 8.65 0 3.17-.02 6.26-.26 8.2l11.23.02.6-.77c.92-1.28 2.18-2.05 2.13-3.42zm-5.35-8.5c.04.64-2.56 3.1-3.15 2.74-.43-.27-.55-4-.2-4.93.13-.35 3.27.86 3.36 2.2z"/><path d="M77.3 20.24c-.17.8-.27 1.3-.35 2.12H68v-6.48c0-1.76-.08-2.8-.24-4.57-.1-1.36-.23-2.17-.44-3.55.94-.02 1.5-.02 2.45-.04 1.2-.02 1.87-.06 3.08-.1-.2 1.86-.46 3.6-.46 5.86 0 1.94 0 4.63.4 4.94.32.3 2.3 0 3.7-.23l1.53-.25c-.33.87-.52 1.4-.73 2.32"/><path d="M95.43 22.36c-.93-2.37-1.53-3.84-2.26-6.22-1.04-3.4-1.7-5.32-2.6-8.7h-6.8c-.9 3.03-1.58 4.76-2.66 7.75-1 2.9-1.78 4.42-3.05 7.16h5.07l1.17-2.9c1 0 1.63 0 2.67.08 1.16.08 1.9.16 3.06.3l.33 2.52h5.07zm-6.07-7.1c-.1.28-3.5.2-3.78 0-.3-.26 1.37-4 1.74-3.95.32.02 2.2 3.6 2.04 3.95z"/><path d="M104.6 20.22c-.53.78-.82 1.26-1.32 2.05l-1.4-.36c-2.96-.73-7.52-3.5-7.52-6.97-.02-3.43 3.87-6.27 7.1-7.4l1.35-.44 2.83 3.77-1.12.1c-2.6.42-4.75 2.35-4.77 3.88-.02 1.62 3.1 3.2 4.07 3.44l1.83.4c-.37.6-.62.93-1.02 1.52"/><path d="M117.34 22.55c-.73-1.26-1.18-2-2.02-3.16-.87-1.25-1.43-1.94-2.43-3.05.03 1.15-.07 1.8-.03 2.95.02 1.18.13 1.9.3 3.07h-5.64c.27-3.1.33-4.9.25-8-.04-2.7-.2-4.27-.54-6.92h5.2v5.75c.72-.9 1.12-1.4 1.7-2.32.9-1.34 1.35-2.17 2.02-3.58.9.27 1.43.46 2.33.75 1.1.35 1.75.56 2.88.9-1.13 1.04-1.73 1.7-2.67 2.88-.88 1.1-2.02 2.72-2.07 2.98 0 .43 1.34 1.77 2.25 2.77.75.84 1.2 1.32 2.02 2.1l.97.94-4.53 1.95"/><path d="M130.38 11.7c-1.06-.14-2.6-.35-2.77-.22-.34.4-.24 1.55-.13 2.26.08.43 5.68-.3 5.47-.05l-.15 3.35c-.24.04-4.23-.35-4.44-.25-.43.23-.25 3.64 0 4.9l.13.7c-1.03 0-1.6-.02-2.63-.03-.92-.02-1.46-.02-2.37-.04V14.2c-.1-2.54-.13-4-.2-6.57 1.47.04 2.36.04 3.86.04 2.53 0 3.97-.02 6.5-.1l.36 4.92c-1.37-.42-2.23-.6-3.64-.8"/><path d="M142.54 22.36c10.95 0 10.95-14.88 0-14.88-10.7 0-10.7 14.88 0 14.88zm4.07-7.28c-.1 1.9-1.92 3.32-4 3.26-2.08-.08-3.76-1.68-3.68-3.6.04-1.9 1.74-3.34 3.76-3.37 2.17-.02 4.06 1.68 3.93 3.7z"/><path d="M160 22.36c10.96 0 10.96-14.88 0-14.88-10.68 0-10.68 14.88 0 14.88zm4.08-7.28c-.1 1.9-1.94 3.32-4 3.26-2.1-.08-3.78-1.68-3.7-3.6.05-1.9 1.75-3.34 3.77-3.37 2.16-.02 4.05 1.68 3.93 3.7z"/><path d="M181.2 9.35c-.12.9-.2 1.45-.27 2.38l-1.02-.2c-.2-.07-2.07-.28-2.2-.05-.2.45-.47 3.68 0 9.9l.07 1.02h-5.13v-1.08c0-3.8.13-9.6-.3-9.8-.4-.18-1.74 0-2.8.12l-.9.1.5-4.13c3.25.22 6.37.07 10.46 0 .7 0 1.17-.06 1.9-.14-.15.73-.2 1.16-.3 1.9"/><path d="M60.54 37.53l-1.73-2.58c-.25-.43-.53-.84-.43-1.2.08-.35 1.85-1.2 2.02-2.33.07-.63-1.55-2-2.93-2.98-.7-.5-2.3-.3-2.78-.3h-2.25c.03 1.86.04 2.92.05 4.76.02 1.96.04 3.08.04 5.02h3.08l-.1-.57c-.1-.73-.1-1-.18-1.88 0-.38-.05-.9.13-1 .2-.1.4.37.58.64l1.82 2.9 2.67-.47zm-3.4-6c.03.55-1.35 1.72-2 1.67-.17 0-.3-2.96-.1-3.05.48-.27 2.1.78 2.1 1.37z"/><path d="M60.94 37.93c.2-2.04.23-3.23.2-5.27-.05-1.8-.13-2.85-.34-4.64h3.44c-.16 1.86-.2 2.97-.16 4.82 0 1.93.1 3.06.35 4.97l-3.5.13"/><path d="M74.68 33.34c-.56 1.7-.86 2.72-1.3 4.45-.78-.02-1.26-.02-2.02 0-1 0-1.62.07-2.6.13-.72-1.97-1.12-3.16-1.86-5.07-.7-1.82-1.2-2.82-2.04-4.56.68-.1 1.06-.15 1.73-.24.66-.1 1.06-.17 1.73-.26 1.04 2.82 2.36 7.25 2.56 7.27.24 0 1.52-5.34 1.88-7.28.68.05 1.1.08 1.8.12.82.04 1.28.07 2.1.1-.86 2.03-1.3 3.23-2 5.32"/><path d="M84.1 37.94c-1.23 0-1.96-.03-3.2-.03-1.42 0-2.23.04-3.66.05.13-2.1.14-3.35.1-5.46-.04-1.77-.1-2.8-.26-4.57 1 .08 1.62.1 2.65.1 1.3 0 2.08-.04 3.36-.17l1.3 2.87c-.9-.22-1.45-.33-2.4-.4-.72-.07-1.84-.2-1.9-.06-.08.2-.05 1.37 0 1.8.02.3 4-.3 3.86-.13L84 34.5c-.16 0-3.33-.4-3.5-.34-.27.18-.2 1.38-.15 1.65.06.23 3.9-.48 4.2-.54l-.45 2.68"/><path d="M93.05 37.53l-1.73-2.58c-.26-.43-.54-.84-.44-1.2.08-.35 1.85-1.2 2.02-2.33.08-.63-1.54-2-2.92-2.98-.7-.5-2.3-.3-2.78-.3h-2.24c.02 1.86.04 2.92.05 4.76.02 1.96.05 3.08.05 5.02h3.08l-.1-.57c-.1-.73-.1-1-.18-1.88 0-.38-.05-.9.12-1 .2-.1.42.37.58.64l1.83 2.9 2.67-.47zm-3.4-6c.03.55-1.36 1.72-2 1.67-.17 0-.3-2.96-.12-3.05.5-.27 2.12.78 2.13 1.37z"/><path d="M101.64 37.93c7.3 0 7.3-9.9 0-9.9-7.1 0-7.1 9.9 0 9.9zm2.7-4.85c-.06 1.27-1.27 2.2-2.66 2.17-1.38-.05-2.5-1.12-2.44-2.4.02-1.27 1.16-2.22 2.5-2.25 1.44 0 2.7 1.12 2.6 2.48z"/><path d="M117.16 33.3c0 1.8.03 2.83.1 4.62h-3.32c0-.4.03-1-.22-1.02-.24 0-.97.8-1.24 1.05-.95-.08-1.54-.1-2.46-.34-.85-.17-1.3-.42-2.13-.7 0-1.84 0-2.93-.08-4.77-.05-1.4-.1-2.2-.2-3.57l3.52-.43-.1.7c-.17 1.28-.2 2.05-.22 3.33-.03.95 0 1.5.1 2.47.45.3.8.45 1.36.55.6.1 1.38.3 1.56-.12.13-.3.1-.63.1-1.02l-.03-5.66 3.4-.18c-.08 1.96-.14 3.1-.14 5.1"/><path d="M126.18 29.28c-.08.6-.13.96-.18 1.58l-.67-.14c-.14-.04-1.4-.18-1.47-.03-.14.3-.32 2.44 0 6.58l.04.67h-3.4v-.7c0-2.53.08-6.4-.2-6.53-.26-.12-1.16 0-1.87.07l-.6.06.34-2.74c2.16.14 4.23.04 6.95 0 .46 0 .77-.05 1.27-.1-.12.5-.16.77-.22 1.26"/><path d="M131.6 30.84c-.7-.1-1.7-.24-1.82-.15-.24.24-.17 1.02-.1 1.5.05.28 3.77-.2 3.64-.05l-.1 2.24c-.15.02-2.8-.24-2.95-.17-.3.15-.16 2.42 0 3.26l.1.45c-.7 0-1.08 0-1.76-.03-.6 0-.95 0-1.56-.02v-5.4c-.06-1.7-.1-2.68-.14-4.37.98.02 1.58.02 2.57.02 1.7 0 2.64 0 4.33-.08l.23 3.3c-.9-.28-1.47-.4-2.42-.53"/><path d="M134.6 37.93c.2-2.04.24-3.23.2-5.27-.04-1.8-.12-2.85-.33-4.64h3.44c-.15 1.86-.2 2.97-.15 4.82 0 1.93.1 3.06.35 4.97l-3.5.13"/><path d="M146.88 29.28c-.08.6-.14.96-.18 1.58l-.68-.14c-.13-.04-1.38-.18-1.46-.03-.14.3-.32 2.44-.02 6.58l.06.67h-3.4v-.7c0-2.53.07-6.4-.2-6.53-.27-.12-1.16 0-1.87.07l-.6.06.34-2.74c2.15.14 4.23.04 6.95 0 .45 0 .77-.05 1.27-.1-.12.5-.16.77-.22 1.26"/><path d="M155.94 29.28c-.1.6-.14.96-.18 1.58l-.68-.14c-.14-.04-1.38-.18-1.47-.03-.12.3-.3 2.44 0 6.58l.06.67h-3.4v-.7c0-2.53.07-6.4-.2-6.53-.27-.12-1.17 0-1.87.07l-.62.06.34-2.74c2.16.14 4.23.04 6.95 0 .46 0 .78-.05 1.27-.1-.1.5-.15.77-.2 1.26"/><path d="M163.78 37.94c-1.23 0-1.96-.03-3.2-.03-1.42 0-2.23.04-3.66.05.13-2.1.14-3.35.1-5.46-.04-1.77-.1-2.8-.26-4.57 1 .08 1.62.1 2.65.1 1.3 0 2.1-.04 3.37-.17l1.32 2.87c-.93-.22-1.47-.33-2.42-.4-.72-.07-1.84-.2-1.9-.06-.08.2-.05 1.37 0 1.8.02.3 4-.3 3.86-.13l.03 2.55c-.15 0-3.32-.4-3.48-.34-.3.18-.22 1.38-.16 1.65.05.23 3.88-.48 4.18-.54l-.44 2.68"/><path d="M173.17 37.33l-1.73-2.6c-.26-.4-.54-.82-.44-1.2.08-.33 1.85-1.18 2.02-2.3.08-.64-1.54-2.02-2.92-3-.7-.5-2.3-.28-2.78-.28h-2.24c.02 1.85.04 2.9.05 4.75 0 1.95.04 3.07.04 5.02h3.08l-.1-.57c-.1-.74-.1-1-.18-1.88 0-.4-.06-.9.12-1 .2-.1.4.37.58.64l1.82 2.88 2.67-.45zm-3.4-6c.02.54-1.36 1.7-2 1.66-.17 0-.3-2.97-.12-3.06.5-.27 2.12.8 2.13 1.38z"/><path d="M178.76 29.52c-.64.22-1.2.77-1.23 1.2-.24 2.1 1.9 2.75 1.42 4.46-.3.96-.94 1.66-1.63 2.26l-.6.5c-.6-.22-.92-.35-1.52-.56-.78-.28-1.24-.43-2.03-.7l.76-.2c1.22-.36 1.54-1.04 1.63-1.73.25-1.7-1.8-2.2-1.56-3.55.18-1.17.86-1.72 1.62-2.7l.4-.5 3.53 1.23-.8.3"/></g><g><path fill="#665F5A" d="M10.28 41.52c.53.17 1.15.22 1.76.16 1.18.03 1.87-1.32 3.15-.85.93.65 2.06 1.04 3.3.8 1.1-.02 1.78-1.32 2.98-.77.8.6 1.7.9 2.77.85 1.04.03 1.7-.82 2.66-.95 1.2-.03 1.86 1.07 3.07.96 1.2.14 2.02-.55 3-.93.46-.05.92.04 1.26.3.73.47 1.57.7 2.5.6.32.04.6-.03.86-.15v-1.18c-.73.33-1.6.44-2.34.1-.82-.7-2.02-.95-3.1-.54-.83.57-2 1-3.03.55-.73-.46-1.47-.9-2.45-.74-1.1.02-1.68 1.14-2.9.95-.92.07-1.44-.78-2.28-.9-1.24-.3-2.18.44-3.2.84-1.12.28-1.94-.4-2.86-.8-1.2-.36-2.27.26-3.25.78-.7.15-1.34.03-1.9-.23l-.02 1.17"/><path fill="#665F5A" d="M10.4 43.53c.5.2 1.06.3 1.5.22 1.17-.22 1.88-1.3 3.16-.85.94.66 2.06 1.05 3.3.82 1.1-.04 1.8-1.33 3-.78.77.58 1.7.9 2.76.85 1.03 0 1.7-.85 2.66-.97 1.18-.04 1.85 1.07 3.06.96 1.2.1 2.02-.58 3-.95.46-.06.92.03 1.26.3.73.46 1.57.7 2.5.6.36.03.7-.06.98-.2v-1.2c-.76.38-1.66.52-2.45.16-.82-.68-2.02-.93-3.1-.52-.84.57-2 1-3.03.55-.73-.46-1.48-.9-2.45-.75-1.1.02-1.68 1.14-2.9.94-.92.07-1.44-.78-2.28-.9-1.24-.3-2.18.44-3.2.85-1.12.28-1.94-.4-2.86-.8-1.2-.36-2.27.27-3.24.78-.6.14-1.17.06-1.7-.14l.04 1.03"/><path fill="#665F5A" d="M5.22 45.75c.2 0 .4 0 .62-.03 1.2.04 1.88-1.3 3.16-.85.93.66 2.06 1.05 3.3.82 1.1-.05 1.78-1.34 3-.8.77.6 1.7.9 2.76.86 1.03.02 1.7-.83 2.65-.96 1.2-.03 1.87 1.07 3.07.96 1.2.12 2.03-.57 3-.94.46-.05.92.03 1.27.3.72.46 1.56.7 2.5.6 1.26.1 1.95-1.33 3.3-.85.9.66 2 1.05 3.26.82.16 0 .3-.04.45-.1v-1.2c-.7.32-1.56.4-2.3.08-.8-.7-2.1-1-3.14-.5-.8.6-2.02.96-3.03.5-.82-.7-2.03-.94-3.1-.53-.84.57-2 1-3.04.55-.72-.46-1.47-.9-2.45-.75-1.08.02-1.68 1.14-2.88.94-.94.07-1.45-.8-2.3-.9-1.24-.32-2.17.43-3.2.84-1.12.3-1.94-.4-2.86-.8-1.2-.36-2.27.27-3.24.78-.27.06-.53.08-.78.07v1.05"/><path stroke="#665F5A" stroke-width="2.159" d="M11.65 16.2c1.86 9.78 10.4 12.38 19.4 11.2 2.42-.3 4.66-1.02 6.66-2.04-3.06 3.42-7.72 5.9-13.17 6.62-5.6.74-10.94-.55-14.93-3.17"/><path stroke="#665F5A" stroke-width="2" d="M4.5 23.5c-.8-1.4-1.33-2.9-1.57-4.5C1.7 10.9 8.53 3.2 18.3 1.26h.04c-3.65 2.34-6.2 5.77-6.98 9.57"/><path fill="#665F5A" d="M9.8 21.83c0-.3-.26-.55-.6-.55-.32 0-.58.25-.58.55 0 .3.26.55.6.55.32 0 .58-.25.58-.55zm1.83-1.15c-.06.14-.28.27-.4.4-.18.22-.32.5-.4.7l.02.05c.44-.1.6-.82 1.08-.55.65.9-.38 1.62-.7 2.45-.72 1-1.9 2-1.92 3.23.2.6.58 1.33.35 1.98-.46.5-1.1-.15-1.64.28-.53.72-.67 1.6-.74 2.33-.08.82.84 1.43.5 2.23-.14.1-.34-.04-.46.12-.3.44-.4.9-.24 1.37.18.63.86.83 1.32 1.2.87.4 1.8.87 2.5 1.53.2.26.37.63.24.92-.54.44-1.32.55-1.95.87-1.25.6-2 1.68-2.65 2.74-.12.08-.23.18-.4.15-.9-.43-.63-1.42-.87-2.14-.23-1.38.16-2.42.1-3.76 0-.46-.3-.98-.76-1.27-.2-.1-.36-.2-.56-.27-.13.1-.3.26-.53.2-.15-.04-.34-.1-.37-.27-.03-.68.43-1.03.18-1.7-.2-.82-.47-1.63-.74-2.45l-.14-.17c-.2.18-.53.26-.8.18-.4-.3-.27-.8-.4-1.2C.94 29.1.43 28.43 0 27.7c-.05-.13.03-.24.1-.33.38-.27.9-.3 1.34-.47.82-.23.54.05.86-.57 1.18-1.64 2.28-3.5 4.2-4.55 1.46-.83 3-1.4 4.72-1.34.14.04.33.1.4.24z"/><path fill="#665F5A" d="M9.54 11.96c0-.3-.27-.55-.6-.55-.32 0-.6.26-.6.56 0 .3.28.55.6.55.33 0 .6-.24.6-.54zm5.35-.44c1.3.56 2.47 1.3 3.7 1.95.6.3 1.17.04 1.78 0 .33-.07.76-.2 1 .08l.08.23c-.1 1.2-.3 2.43.2 3.5.04.2.02.4-.1.53-.2.15-.54.22-.84.15-.1.4.06.75.1 1.13.26 1 .17 2.13.98 2.88.24.22.37.34.46.64-.1.38-.46.65-.78.86l-.22.02c-.73 2.83-3.4 4.93-5.73 6.22 1.34-1.45 2.6-2.9 3.3-4.7.17-.52.3-1.2-.2-1.6-.6-.4-1.27-.28-1.9-.45-.76-.7.04-1.85-.7-2.56-.47-.54-.93-1.23-1.67-1.58-.53-.07-.92.22-1.3.5-.18.05-.44.8-1.1.18-.48-.5-.02-1.6-.1-2.3-.65-1.3-2.57-1.77-3.86-2.54-.67-.65-1.9-.85-1.72-1.95.1-.1.14-.18.3-.18.37.02.7.3 1.07.23-.3-.4-.8-.63-1.33-.7-.13-.15 0-.28.1-.4 2.07-1.2 4.93-1.1 7.35-.54l1.12.42z"/><path fill="#665F5A" d="M26.46 21.7c0-.3-.27-.55-.6-.55-.32 0-.58.25-.58.55 0 .3.26.56.6.56.3 0 .58-.25.58-.56zm4.98 2.44c.93 1.2 1.48 2.53 2.36 3.76.58.3 1.2.55 1.8.74.2.1.28.24.32.42l-.08.24c-.76.93-1.6 1.9-1.74 3.05-.08.14-.14.3-.3.4-.32.03-.67-.05-.9-.28-.4.48-.5 1.04-.75 1.58-.4.82-.87 1.8-.46 2.65.03.25.04.54-.23.67-.42.1-.76.32-1.15.1-2.47.98-4.9 1.74-7.5 1.18l-.04-.02c.76-.6 1.02-1.53 1.3-2.4 0-1.17.93-2.1 1.77-2.9-.1 1.17-.15 2.48.9 3.47.54-.3.7-.88.73-1.36l-.76-.58c-.13-.64.3-1.22.72-1.75.15-.68.07-1.12-.06-1.83-.1-.4-.18-1.1-.73-1.27-.54-.3-1.13.3-1.5-.34-.12-.73.25-1.43.58-2.07.16-.65-.23-1.3-.53-1.9l-1.35-2.06c-.2-.78-1.2-1.75-.43-2.54.52-.35.7.52 1.16.66-.03-.46-.35-.92-.75-1.27-.02-.13.1-.18.17-.23.42-.12.77 0 1.2.02 2.94.56 4.28 1.2 6.24 3.84z"/></g></g></g></g></svg>