<svg xmlns="http://www.w3.org/2000/svg" width="106" height="122"><title>ICON + BRO Copy</title><desc>Created with Sketch.</desc><g fill="none"><g><g><g><g><path fill="#7F7771" d="M33.63 77c.96.3 2.08.42 3.2.3 2.16.06 3.42-2.4 5.76-1.56 1.7 1.2 3.76 1.9 6.03 1.5 2-.07 3.25-2.44 5.45-1.44 1.43 1.07 3.1 1.66 5.06 1.56 1.88.03 3.1-1.53 4.85-1.75 2.16-.06 3.38 1.96 5.58 1.76 2.2.23 3.7-1.04 5.48-1.72.84-.1 1.67.06 2.3.55 1.33.84 2.87 1.26 4.58 1.1.57.04 1.08-.08 1.56-.3v-2.15c-1.32.6-2.88.8-4.25.17-1.5-1.26-3.7-1.72-5.66-.97-1.54 1.04-3.67 1.85-5.56 1-1.33-.84-2.7-1.65-4.47-1.36-2 .02-3.07 2.07-5.27 1.7-1.7.14-2.65-1.42-4.2-1.64-2.26-.55-3.97.8-5.82 1.56-2.06.5-3.56-.75-5.24-1.46-2.2-.65-4.15.48-5.93 1.42-1.25.3-2.42.07-3.46-.42V77"/><path fill="#7F7771" d="M33.84 80.7c.9.35 1.93.55 2.75.4 2.1-.43 3.4-2.42 5.75-1.57 1.7 1.2 3.77 1.9 6.04 1.5 1.98-.07 3.24-2.44 5.43-1.44 1.44 1.06 3.1 1.65 5.07 1.55 1.88.03 3.1-1.52 4.85-1.75 2.16-.07 3.4 1.95 5.6 1.75 2.2.23 3.7-1.04 5.47-1.72.84-.1 1.67.07 2.3.55 1.33.85 2.86 1.27 4.58 1.1.64.06 1.25-.1 1.78-.35v-2.18c-1.38.67-3.03.92-4.47.26-1.5-1.25-3.7-1.7-5.65-.96-1.53 1.04-3.66 1.85-5.55 1-1.33-.84-2.7-1.65-4.47-1.36-2 .04-3.07 2.08-5.27 1.72-1.7.13-2.65-1.42-4.2-1.65-2.26-.55-3.97.8-5.82 1.56-2.06.53-3.56-.74-5.24-1.45-2.2-.65-4.15.48-5.93 1.42-1.1.26-2.14.1-3.08-.25l.04 1.87"/><path fill="#7F7771" d="M24.38 84.73c.37 0 .75 0 1.13-.05 2.18.07 3.43-2.4 5.77-1.55 1.7 1.2 3.77 1.9 6.04 1.5 2-.07 3.26-2.44 5.46-1.44 1.43 1.06 3.1 1.65 5.06 1.55 1.9.03 3.1-1.53 4.85-1.75 2.17-.07 3.4 1.95 5.6 1.75 2.2.23 3.7-1.04 5.47-1.72.84-.1 1.68.06 2.3.55 1.33.85 2.87 1.27 4.58 1.1 2.3.2 3.56-2.43 6-1.55 1.68 1.2 3.7 1.9 5.97 1.5.3 0 .57-.07.83-.16v-2.2c-1.3.58-2.85.74-4.2.14-1.5-1.25-3.86-1.8-5.75-.93-1.5 1.14-3.7 1.8-5.55.94-1.5-1.25-3.7-1.7-5.65-.96-1.54 1.04-3.67 1.85-5.56 1-1.32-.84-2.68-1.65-4.46-1.36-2 .03-3.08 2.08-5.28 1.72-1.7.13-2.65-1.43-4.2-1.65-2.26-.56-3.97.8-5.82 1.56-2.06.52-3.56-.74-5.23-1.46-2.2-.65-4.16.5-5.94 1.43-.5.1-.97.15-1.42.12v1.93"/><path stroke="#807771" stroke-width="4.159" d="M36.13 30.74c3.38 17.9 18.96 22.64 35.42 20.48 4.42-.57 8.52-1.87 12.16-3.73-5.6 6.24-14.1 10.8-24.06 12.1-10.2 1.32-19.97-1-27.26-5.8"/><path stroke="#807771" stroke-width="5" d="M23.05 44.08c-1.43-2.52-2.42-5.27-2.86-8.2C17.94 21.1 30.4 7 48.3 3.47h.03c-6.65 4.27-11.3 10.53-12.73 17.47"/><path fill="#7F7771" d="M32.75 41.04c0-.55-.5-1-1.1-1-.58 0-1.07.45-1.07 1 0 .56.5 1 1.08 1 .6 0 1.1-.44 1.1-1zm3.34-2.1c-.13.27-.53.5-.76.75-.32.37-.57.87-.73 1.27l.06.07c.8-.2 1.1-1.5 1.98-1 1.17 1.62-.7 2.95-1.26 4.47-1.35 1.82-3.5 3.7-3.53 5.9.35 1.12 1.03 2.43.62 3.64-.84.92-2-.28-3 .5-1 1.3-1.24 2.9-1.37 4.26-.14 1.5 1.53 2.6.92 4.08-.27.16-.62-.1-.85.22-.54.8-.75 1.6-.44 2.5.33 1.13 1.58 1.5 2.42 2.18 1.6.72 3.28 1.6 4.56 2.8.38.48.7 1.14.45 1.67-1 .8-2.4 1-3.57 1.6-2.27 1.1-3.66 3.08-4.83 5.02-.22.15-.42.32-.7.28-1.65-.77-1.2-2.58-1.62-3.9-.42-2.5.3-4.42.2-6.86 0-.86-.6-1.8-1.4-2.33-.35-.2-.65-.35-1-.5-.25.2-.58.48-.97.37-.3-.07-.64-.2-.7-.5-.05-1.22.8-1.85.33-3.1-.37-1.48-.88-2.96-1.4-4.46l-.24-.3c-.4.32-.96.47-1.45.32-.7-.54-.5-1.45-.75-2.18-.47-1.42-1.4-2.64-2.18-3.98-.1-.2.06-.42.17-.6.72-.47 1.66-.5 2.47-.83 1.5-.4 1 .1 1.6-1.04 2.13-3 4.15-6.4 7.66-8.3 2.66-1.53 5.5-2.54 8.6-2.45.26.1.6.16.73.44z"/><path fill="#7F7771" d="M32.27 23.02c0-.56-.5-1-1.1-1-.58 0-1.07.44-1.07 1 0 .55.5 1 1.08 1 .6 0 1.1-.45 1.1-1zm9.77-.8c2.4 1 4.53 2.37 6.8 3.55 1.08.53 2.1.07 3.23 0 .6-.12 1.38-.34 1.83.15l.13.42c-.2 2.2-.52 4.43.4 6.4.05.36 0 .7-.2.97-.36.26-1 .38-1.55.26-.2.7.12 1.37.18 2.05.48 1.83.3 3.9 1.8 5.28.44.4.66.62.85 1.17-.2.7-.85 1.2-1.43 1.58l-.4.03c-1.33 5.17-6.2 9-10.46 11.36 2.45-2.65 4.75-5.3 6.05-8.6.3-.93.53-2.2-.4-2.9-1.06-.73-2.3-.53-3.48-.83-1.37-1.3.1-3.4-1.26-4.7-.83-.95-1.67-2.22-3.04-2.86-.96-.12-1.68.4-2.4.92-.3.1-.77 1.48-1.95.33-.88-.9-.05-2.93-.2-4.23-1.2-2.38-4.7-3.22-7.05-4.62-1.22-1.2-3.47-1.56-3.14-3.56.18-.22.27-.36.57-.36.66.04 1.27.53 1.95.43-.53-.73-1.5-1.16-2.43-1.3-.26-.26 0-.5.15-.7 3.8-2.24 9.03-2.02 13.44-1l2.04.75z"/><path fill="#7F7771" d="M63.17 40.8c0-.54-.5-1-1.08-1-.6 0-1.1.46-1.1 1 0 .57.5 1.02 1.1 1.02.58 0 1.07-.45 1.07-1zm9.1 4.46c1.7 2.2 2.7 4.62 4.3 6.86 1.06.56 2.17 1 3.3 1.37.33.15.5.43.58.74l-.15.45c-1.4 1.7-2.9 3.47-3.17 5.56-.15.26-.25.56-.57.7-.56.08-1.2-.07-1.63-.48-.75.87-.9 1.9-1.37 2.87-.76 1.52-1.58 3.3-.84 4.86.07.47.1.98-.4 1.22-.77.2-1.4.58-2.1.2-4.5 1.78-8.93 3.16-13.67 2.15l-.1-.05c1.4-1.08 1.86-2.78 2.36-4.36 0-2.16 1.72-3.85 3.25-5.3-.17 2.13-.27 4.52 1.67 6.32.97-.55 1.23-1.6 1.3-2.5l-1.37-1.03c-.24-1.17.55-2.24 1.3-3.2.3-1.26.13-2.07-.1-3.36-.2-.75-.33-2-1.33-2.34-1-.52-2.07.55-2.76-.6-.2-1.35.48-2.62 1.07-3.8.3-1.16-.42-2.33-.96-3.47l-2.46-3.76c-.34-1.42-2.17-3.2-.8-4.64.96-.62 1.28.96 2.13 1.2-.04-.83-.63-1.67-1.36-2.3-.05-.22.16-.32.3-.4.77-.23 1.4-.03 2.2.03 5.37 1.03 7.8 2.2 11.4 7.03z"/></g><g fill="#807771"><path d="M7.66 104.53c0 .84-1.87 2.36-2.68 2.2-.3-.1-.44-3.12-.1-4.02.16-.37 2.74.95 2.78 1.83zm4.28.48c0-1.48-2.85-2.88-2.77-3.3.07-.34 2.4-1.6 2.77-3.78.1-.57-2.8-2.84-3.78-3.2-.45-.18-.87-.1-1.4-.1l-6.3.08c.22 2.7.32 4.3.32 7.04 0 2.57-.02 5.1-.22 6.67l9.15.03.5-.63c.75-1.04 1.78-1.67 1.74-2.8zm-4.36-6.9c.02.5-2.1 2.52-2.58 2.22-.35-.22-.45-3.26-.15-4.02.1-.28 2.65.7 2.73 1.8z"/><path d="M21 106.65c-.13.65-.2 1.06-.28 1.73h-7.3v-5.28c0-1.43-.05-2.3-.18-3.72-.1-1.12-.2-1.78-.36-2.9.76-.02 1.22-.02 2-.03.96-.04 1.52-.07 2.5-.1-.15 1.52-.37 2.94-.37 4.78.03 1.58.03 3.77.33 4.02.28.24 1.88 0 3.02-.2l1.25-.2c-.27.72-.42 1.16-.6 1.9"/><path d="M35.78 108.38c-.76-1.93-1.25-3.13-1.85-5.07-.84-2.76-1.38-4.32-2.1-7.08h-5.55c-.73 2.47-1.3 3.88-2.17 6.32-.82 2.36-1.45 3.6-2.48 5.84h4.13l.95-2.38c.83 0 1.34.02 2.2.08.94.07 1.53.13 2.48.24l.27 2.06h4.13zm-4.94-5.8c-.1.24-2.87.18-3.1 0-.24-.2 1.13-3.24 1.44-3.2.25 0 1.8 2.92 1.66 3.2z"/><path d="M43.26 106.64c-.44.63-.68 1.02-1.08 1.67l-1.16-.3c-2.4-.6-6.1-2.86-6.1-5.68-.03-2.8 3.14-5.1 5.77-6.02l1.1-.36L44.1 99l-.92.1c-2.14.34-3.88 1.9-3.9 3.16-.02 1.32 2.52 2.6 3.32 2.8l1.5.33c-.3.48-.52.75-.84 1.24"/><path d="M53.63 108.53c-.6-1.02-.97-1.62-1.65-2.57-.7-1-1.16-1.58-1.98-2.47.04.92-.05 1.45-.02 2.38.02.96.1 1.55.26 2.5h-4.6c.2-2.53.26-4 .2-6.52-.04-2.2-.16-3.47-.44-5.63h4.25v4.7c.57-.74.9-1.17 1.37-1.9.73-1.1 1.1-1.77 1.64-2.92.73.23 1.17.38 1.9.62.9.28 1.44.46 2.35.73-.9.85-1.4 1.4-2.16 2.35-.72.9-1.65 2.22-1.7 2.42 0 .35 1.1 1.44 1.84 2.26.6.68.98 1.07 1.64 1.7l.8.77-3.7 1.58"/><path d="M64.25 99.7c-.87-.12-2.12-.3-2.25-.18-.3.3-.2 1.26-.12 1.84.06.35 4.62-.25 4.45-.05l-.12 2.75c-.17.03-3.43-.28-3.6-.2-.35.2-.2 2.96 0 4l.1.56c-.82 0-1.3 0-2.13-.02-.74 0-1.18 0-1.93-.03v-6.63c-.07-2.06-.1-3.26-.17-5.34 1.2.03 1.93.03 3.15.03 2.07 0 3.24 0 5.3-.08l.3 4.02c-1.13-.33-1.82-.5-2.97-.63"/><path d="M74.15 108.38c8.93 0 8.93-12.13 0-12.13-8.7 0-8.7 12.13 0 12.13zm3.32-5.94c-.08 1.56-1.57 2.7-3.27 2.66-1.7-.06-3.06-1.37-3-2.94.04-1.54 1.43-2.7 3.07-2.74 1.76 0 3.3 1.37 3.2 3.02z"/><path d="M88.38 108.38c8.93 0 8.93-12.13 0-12.13-8.7 0-8.7 12.13 0 12.13zm3.32-5.94c-.1 1.56-1.58 2.7-3.27 2.66-1.7-.06-3.07-1.37-3-2.94.04-1.54 1.42-2.7 3.07-2.74 1.76 0 3.3 1.37 3.2 3.02z"/><path d="M105.65 97.78c-.1.74-.17 1.18-.22 1.94l-.83-.17c-.17-.05-1.7-.22-1.8-.04-.17.38-.4 3 0 8.08l.05.83h-4.18v-.87c0-3.08.1-7.8-.23-7.98-.32-.15-1.43 0-2.3.1l-.73.07.43-3.36c2.64.18 5.18.05 8.5 0 .57 0 .96-.06 1.57-.12-.13.6-.18.94-.25 1.54"/><path d="M7.36 120.74l-1.4-2.1c-.22-.36-.45-.7-.37-1 .06-.27 1.5-.96 1.63-1.88.07-.52-1.25-1.64-2.37-2.43-.57-.4-1.87-.24-2.27-.24H.75c.03 1.5.04 2.36.05 3.86.02 1.6.04 2.5.04 4.1h2.52l-.08-.47c-.1-.6-.08-.83-.15-1.54 0-.32-.04-.75.1-.8.16-.1.34.3.48.5l1.48 2.35 2.18-.36zm-2.76-4.9c0 .45-1.12 1.4-1.65 1.36-.13 0-.23-2.4-.1-2.48.42-.22 1.74.64 1.75 1.12z"/><path d="M7.68 121.06c.16-1.66.2-2.63.16-4.3-.04-1.46-.1-2.32-.27-3.77h2.8c-.13 1.5-.17 2.4-.13 3.92 0 1.57.08 2.5.3 4.04l-2.86.1"/><path d="M18.87 117.32c-.45 1.4-.7 2.22-1.06 3.63-.62 0-1 0-1.63 0-.82 0-1.32.06-2.12.1-.6-1.6-.9-2.56-1.5-4.12-.57-1.48-1-2.3-1.68-3.7.56-.1.87-.14 1.4-.2.56-.1.9-.15 1.43-.22.85 2.3 1.93 5.92 2.1 5.93.2 0 1.24-4.35 1.53-5.93.55.05.9.07 1.46.1.66.03 1.04.07 1.7.08-.7 1.66-1.06 2.64-1.63 4.34"/><path d="M26.55 121.07c-1 0-1.6-.02-2.6-.02-1.16 0-1.83.02-3 .03.1-1.73.13-2.73.08-4.45-.02-1.43-.08-2.28-.2-3.72.82.08 1.32.1 2.16.1 1.05 0 1.68-.03 2.73-.14l1.07 2.34c-.75-.18-1.18-.28-1.96-.34-.6-.05-1.5-.16-1.55-.04-.07.17-.05 1.12 0 1.48 0 .23 3.25-.27 3.14-.12l.02 2.07c-.12.02-2.7-.3-2.84-.26-.22.14-.17 1.1-.12 1.33.04.18 3.16-.4 3.4-.45l-.35 2.2"/><path d="M33.84 120.74l-1.4-2.1c-.22-.36-.45-.7-.37-1 .07-.27 1.5-.96 1.64-1.88.08-.52-1.24-1.64-2.36-2.43-.56-.4-1.87-.24-2.26-.24h-1.83c.02 1.5.03 2.36.04 3.86 0 1.6.02 2.5.02 4.1h2.5l-.08-.47c-.1-.6-.08-.83-.15-1.54 0-.32-.04-.75.1-.8.16-.1.34.3.48.5l1.48 2.35 2.18-.36zm-2.76-4.9c0 .45-1.12 1.4-1.64 1.36-.14 0-.24-2.4-.1-2.48.4-.22 1.73.64 1.74 1.12z"/><path d="M40.84 121.06c5.94 0 5.94-8.07 0-8.07-5.8 0-5.8 8.06 0 8.06zm2.2-3.95c-.05 1.04-1.04 1.8-2.17 1.78-1.12-.04-2.04-.9-2-1.96.03-1.03.96-1.8 2.05-1.83 1.17-.02 2.2.9 2.13 2z"/><path d="M53.48 117.3c0 1.45.02 2.3.1 3.75h-2.72c0-.32.02-.8-.18-.83-.2 0-.8.66-1 .86-.8-.06-1.26-.1-2.02-.28-.7-.15-1.05-.35-1.73-.58 0-1.5 0-2.38-.06-3.88-.04-1.13-.1-1.78-.17-2.92l2.87-.34-.07.56c-.14 1.05-.16 1.68-.2 2.72 0 .77.02 1.23.1 2 .37.25.64.38 1.1.46.5.07 1.13.25 1.28-.1.1-.24.1-.5.1-.83l-.05-4.62 2.78-.15c-.07 1.6-.12 2.54-.12 4.16"/><path d="M60.83 114c-.07.5-.1.8-.15 1.3l-.55-.12c-.1-.03-1.12-.14-1.2-.02-.1.24-.25 2 0 5.37l.04.55H56.2v-.58c0-2.06.06-5.2-.16-5.32-.22-.1-.95 0-1.52.07l-.5.05.28-2.23c1.76.1 3.45.03 5.66 0 .37 0 .63-.04 1.04-.08-.1.38-.12.6-.17 1"/><path d="M65.25 115.3c-.57-.1-1.4-.2-1.5-.14-.2.2-.13.84-.07 1.23.04.22 3.07-.18 2.96-.05l-.08 1.83c-.12.02-2.3-.2-2.4-.14-.23.13-.13 1.97 0 2.67l.07.38c-.55 0-.87 0-1.42-.03-.5 0-.78 0-1.27 0v-4.42c-.05-1.38-.07-2.17-.12-3.56.8.02 1.3.02 2.1.02 1.38 0 2.16-.02 3.53-.07l.2 2.68c-.75-.22-1.2-.32-1.98-.4"/><path d="M67.7 121.06c.15-1.66.18-2.63.15-4.3-.03-1.46-.1-2.32-.27-3.77h2.8c-.13 1.5-.17 2.4-.13 3.92 0 1.57.08 2.5.3 4.04l-2.86.1"/><path d="M77.7 114c-.08.5-.12.8-.16 1.3l-.55-.12c-.12-.03-1.13-.14-1.2-.02-.1.24-.26 2 0 5.37l.03.55h-2.78v-.58c0-2.06.07-5.2-.15-5.32-.22-.1-.95 0-1.52.07l-.5.05.28-2.23c1.76.1 3.45.03 5.66 0 .38 0 .63-.04 1.04-.08-.1.38-.12.6-.17 1"/><path d="M85.07 114c-.07.5-.12.8-.15 1.3l-.55-.12c-.1-.03-1.13-.14-1.2-.02-.1.24-.25 2 0 5.37l.04.55h-2.77v-.58c0-2.06.07-5.2-.16-5.32-.2-.1-.94 0-1.52.07l-.5.05.3-2.23c1.75.1 3.43.03 5.65 0 .37 0 .63-.04 1.04-.08-.1.38-.13.6-.17 1"/><path d="M91.46 121.07c-1 0-1.6-.02-2.6-.02-1.16 0-1.83.02-3 .03.1-1.73.12-2.73.08-4.45-.02-1.43-.08-2.28-.2-3.72.82.08 1.3.1 2.16.1 1.06 0 1.7-.03 2.74-.14l1.07 2.34c-.74-.18-1.18-.28-1.95-.34-.6-.05-1.5-.16-1.55-.04-.07.17-.04 1.12 0 1.48 0 .23 3.26-.27 3.14-.12l.03 2.07c-.13.02-2.7-.3-2.84-.26-.23.14-.17 1.1-.12 1.33.05.18 3.17-.4 3.42-.45l-.36 2.2"/><path d="M99.1 120.57l-1.4-2.1c-.22-.35-.44-.7-.36-1 .06-.26 1.5-.96 1.64-1.88.07-.52-1.25-1.64-2.38-2.44-.56-.4-1.87-.23-2.26-.23H92.5c.03 1.5.04 2.37.06 3.87 0 1.6.03 2.5.03 4.1h2.49l-.08-.48c-.1-.6-.08-.8-.15-1.53 0-.32-.05-.75.1-.8.16-.1.34.28.47.5l1.5 2.34 2.16-.37zm-2.76-4.9c.02.46-1.1 1.4-1.64 1.37-.13 0-.23-2.4-.1-2.5.42-.2 1.73.65 1.74 1.13z"/><path d="M103.66 114.2c-.52.2-.97.64-1 1-.2 1.7 1.55 2.23 1.15 3.62-.22.78-.75 1.36-1.3 1.84l-.5.4c-.48-.17-.75-.28-1.24-.44-.64-.23-1-.36-1.65-.57l.63-.18c1-.28 1.25-.84 1.33-1.4.2-1.4-1.47-1.8-1.28-2.9.15-.94.7-1.4 1.32-2.18l.34-.43 2.86 1-.64.24"/></g></g></g></g></g></svg>