<?xml version="1.0" encoding="UTF-8" standalone="no"?>
<svg width="106px" height="122px" viewBox="0 0 106 122" version="1.1" xmlns="http://www.w3.org/2000/svg" xmlns:xlink="http://www.w3.org/1999/xlink" xmlns:sketch="http://www.bohemiancoding.com/sketch/ns">
    <!-- Generator: Sketch 3.3.1 (12002) - http://www.bohemiancoding.com/sketch -->
    <title>ICON + BRO Copy</title>
    <desc>Created with Sketch.</desc>
    <defs></defs>
    <g id="Home" stroke="none" stroke-width="1" fill="none" fill-rule="evenodd" sketch:type="MSPage">
        <g sketch:type="MSArtboardGroup" transform="translate(-1337.000000, -8303.000000)" id="FOOTER">
            <g sketch:type="MSLayerGroup" transform="translate(-67.000000, 8212.000000)">
                <g id="COMPANY" transform="translate(1253.000000, 94.000000)" sketch:type="MSShapeGroup">
                    <g id="ICON-+-BRO-Copy" transform="translate(151.400000, 0.000000)">
                        <g id="ICON" transform="translate(14.441677, 0.000000)">
                            <path d="M18.7830174,74.0066972 C19.7444776,74.3084463 20.8711159,74.4150678 21.9868461,74.2960244 C24.1513004,74.3612395 25.4077955,71.8934179 27.7472969,72.737591 C29.4577716,73.9394118 31.5178211,74.6531546 33.7877192,74.2308093 C35.7771264,74.1661118 37.034141,71.7961129 39.2333969,72.802806 C40.6649391,73.8741967 42.3406122,74.4585445 44.2957372,74.3612395 C46.181259,74.393847 47.4034719,72.834896 49.1487482,72.6081959 C51.313722,72.5429809 52.5354155,74.555332 54.7351909,74.3612395 C56.9344469,74.5879395 58.4355923,73.3219388 60.2161897,72.6402859 C61.0545457,72.5429809 61.8923822,72.7049834 62.5208895,73.1925438 C63.8475073,74.0367168 65.3834544,74.4585445 67.0939291,74.2960244 C67.6704936,74.3446769 68.1810908,74.2173522 68.6610418,74.011873 L68.6667555,71.8499412 C67.3385794,72.4544747 65.7761415,72.6485672 64.4053724,72.0233305 C62.9047464,70.7573298 60.7054904,70.3028945 58.7498459,71.0492449 C57.2138988,72.088028 55.0842461,72.9001111 53.1987244,72.0559381 C51.8721066,71.211765 50.5106871,70.4001996 48.7300897,70.6921147 C46.740163,70.7247222 45.6576761,72.7701985 43.4584201,72.4130683 C41.747426,72.5429809 40.8051845,70.9840298 39.268718,70.7573298 C36.9993393,70.2050719 35.2888646,71.5688953 33.4381445,72.3157632 C31.3780951,72.834896 29.8769496,71.5688953 28.2012766,70.8551524 C26.0015011,70.2050719 24.0463761,71.3416776 22.2662981,72.2826381 C21.0046087,72.5709302 19.8400523,72.3452653 18.7954836,71.8639159 L18.7830174,74.0066972" id="Fill-1" fill="#7F7771"></path>
                            <path d="M18.9975409,77.685656 C19.9003059,78.0458917 20.9324083,78.24516 21.7458317,78.0872981 C23.8656153,77.6747868 25.1673006,75.684174 27.5062826,76.528347 C29.2172767,77.7301679 31.2768067,78.4444283 33.5461854,78.022083 C35.5366315,77.9568679 36.793646,75.586869 38.9923826,76.5930445 C40.4244442,77.6649528 42.1001172,78.2498182 44.0552423,78.1519956 C45.9402447,78.1846031 47.1624575,76.6256521 48.9082533,76.398952 C51.0727077,76.3337369 52.2949205,78.3466057 54.4941765,78.1519956 C56.6939519,78.3792132 58.1950974,77.1132125 59.9756948,76.4315596 C60.8135313,76.3337369 61.6513679,76.4957395 62.2798751,76.9827823 C63.6070123,77.8269553 65.1429594,78.2498182 66.8534341,78.0872981 C67.4970048,78.141644 68.108371,77.9734305 68.6371481,77.7255096 L68.6231236,75.5470153 C67.2539127,76.2234924 65.604211,76.4708957 64.1648775,75.8146042 C62.663732,74.5480859 60.4644761,74.093133 58.509351,74.840001 C56.9734039,75.8798193 54.8432318,76.6908672 52.95771,75.8472117 C51.6310922,75.0025211 50.2696728,74.1909557 48.4890753,74.4828708 C46.4991486,74.5154783 45.4166618,76.560437 43.2174058,76.2038244 C41.5064116,76.3337369 40.5641702,74.7753035 39.0277037,74.5480859 C36.758325,73.995828 35.0478503,75.3596513 33.1971301,76.1065193 C31.1376001,76.6256521 29.6364547,75.3596513 27.9607816,74.6453909 C25.7610062,73.995828 23.8058812,75.1319161 22.0252837,76.0739118 C20.9194226,76.3259732 19.8888785,76.1836387 18.9481953,75.8213327 L18.9975409,77.685656" id="Fill-2" fill="#7F7771"></path>
                            <path d="M9.53824694,81.7279559 C9.9060016,81.7408955 10.2836254,81.7269208 10.6700794,81.6849968 C12.8345338,81.7507295 14.0915483,79.2829079 16.4310497,80.1275985 C18.1415244,81.3289018 20.2010544,82.0431622 22.4704331,81.6208169 C24.4608792,81.5561194 25.7173743,79.1856029 27.9171497,80.192296 C29.3486919,81.2642042 31.0238455,81.8480345 32.97949,81.7507295 C34.8650118,81.783337 36.0867052,80.2249036 37.832501,79.9971684 C39.9969554,79.9324708 41.2191682,81.9453396 43.4184242,81.7507295 C45.6176802,81.9779471 47.1188256,80.7119464 48.8999425,80.0297759 C49.737779,79.9324708 50.5756156,80.094991 51.2036034,80.5815162 C52.5307406,81.4256892 54.0666877,81.8480345 55.7776818,81.6849968 C58.0818622,81.8806421 59.3388767,79.250818 61.7822636,80.1275985 C63.4584561,81.3289018 65.4837039,82.0431622 67.7525631,81.6208169 C68.0481174,81.6161587 68.3249722,81.56026 68.5883219,81.4707187 L68.5903997,79.2787673 C67.2902727,79.8527635 65.7330291,80.0085551 64.4006975,79.4128205 C62.8995521,78.1463022 60.5257685,77.5940443 58.6402467,78.47186 C57.1391013,79.6079482 54.9403647,80.2575111 53.0891252,79.4128205 C51.5879797,78.1463022 49.3887237,77.6923845 47.4330793,78.4387349 C45.8971322,79.4785532 43.7674795,80.2901186 41.8824771,79.4449105 C40.5558593,78.6007375 39.1939205,77.789172 37.413323,78.0816047 C35.4233963,78.1136946 34.3409094,80.1602061 32.1416535,79.8025583 C30.4306593,79.9324708 29.4884179,78.3740374 27.9524708,78.1463022 C25.6825727,77.5940443 23.9715785,78.9589028 22.1213778,79.7052532 C20.0618478,80.2249036 18.5607024,78.9589028 16.8845099,78.2441248 C14.6847345,77.5940443 12.7301289,78.7311676 10.9495314,79.6726457 C10.4628279,79.7834078 9.99014886,79.8175681 9.5335721,79.7916891 L9.53824694,81.7279559" id="Fill-4" fill="#7F7771"></path>
                            <path d="M21.2835413,27.7443596 C24.6681308,45.6251966 40.2499165,50.3755461 56.7033016,48.2244835 C61.1231101,47.6468642 65.2281455,46.3467032 68.8662157,44.4932491 L68.8579048,44.5067062 C63.2595154,50.7383697 54.7476571,55.2894508 44.7943876,56.5901294 C34.5891958,57.9249683 24.8270756,55.5860241 17.535872,50.7932331" id="Stroke-5" stroke="#807771" stroke-width="4.159"></path>
                            <path d="M8.20591544,41.0751506 C6.77333443,38.5560887 5.79109705,35.8108442 5.35010312,32.892728 C3.1124095,18.090457 15.5807469,3.97656732 33.4490525,0.45702316 L33.4880095,0.45443526 C26.8331046,4.73068141 22.1899422,10.9939173 20.7563224,17.9310423" id="Stroke-6" stroke="#807771" stroke-width="5"></path>
                            <path d="M17.9057043,38.0426493 C17.9057043,37.4883211 17.4179619,37.034921 16.8221786,37.034921 C16.2258758,37.034921 15.7386529,37.4883211 15.7386529,38.0426493 C15.7386529,38.5964599 16.2258758,39.0503776 16.8221786,39.0503776 C17.4179619,39.0503776 17.9057043,38.5964599 17.9057043,38.0426493 L17.9057043,38.0426493 Z M21.2466619,35.9360986 C21.124077,36.2083457 20.7298316,36.4443622 20.4976475,36.6865896 C20.1792384,37.0695988 19.9252384,37.5664756 19.7662936,37.9696705 L19.8213529,38.0374735 C20.6145187,37.853215 20.9261752,36.5458078 21.7967356,37.0380264 C22.9690835,38.6611574 21.0903143,39.9908205 20.5350463,41.5094003 C19.1866125,43.3183424 17.0465713,45.1899118 17.0044976,47.4118828 C17.3587472,48.5184689 18.0397166,49.8346749 17.6293689,51.0385661 C16.7899741,51.9588233 15.6186651,50.7606256 14.6213643,51.5395835 C13.6417241,52.8506137 13.3835686,54.4535591 13.2609837,55.8013374 C13.1165829,57.2971437 14.7896588,58.4099408 14.1772538,59.8752098 C13.9081904,60.0366948 13.5539408,59.7934322 13.3290287,60.0972516 C12.7857076,60.8901842 12.5800143,61.7115837 12.8859571,62.599751 C13.2194295,63.734804 14.4660555,64.109532 15.3096058,64.7803157 C16.8948984,65.5023398 18.5877126,66.3744621 19.8727762,67.5731775 C20.2389726,68.0602203 20.5464737,68.72117 20.3033816,69.2506543 C19.3180277,70.0611847 17.9036266,70.2547596 16.7395896,70.8448008 C14.4702109,71.9575979 13.0812618,73.928025 11.908914,75.8658446 C11.6897156,76.0190483 11.4850612,76.1893321 11.1972983,76.1515488 C9.55486862,75.3762139 10.0228728,73.5740003 9.58603427,72.2588294 C9.168934,69.7351092 9.88054966,67.8283444 9.79224699,65.3926128 C9.79224699,64.5437816 9.20165793,63.5878113 8.38304021,63.0723016 C8.0407375,62.861129 7.73687242,62.7151714 7.38522001,62.5635204 C7.14160852,62.7736579 6.80657779,63.0479753 6.41648775,62.9361781 C6.11729751,62.8668223 5.77759194,62.7467438 5.72564919,62.4372309 C5.66591503,61.2172948 6.51050412,60.5858472 6.0471748,59.3431375 C5.68513385,57.8566477 5.17453663,56.3805095 4.66913368,54.8753868 L4.4218862,54.5705321 C4.03023787,54.8976427 3.45367336,55.0498112 2.97164465,54.89609 C2.25379587,54.3629826 2.45689201,53.4499714 2.20860567,52.7207011 C1.74008208,51.2958033 0.798879475,50.0820782 0.0244130919,48.738958 C-0.0581758785,48.5308909 0.0872638178,48.3228237 0.19426588,48.1546102 C0.918347797,47.6737783 1.85331727,47.6292665 2.66726015,47.3114723 C4.16580845,46.8911973 3.64638096,47.3989433 4.24320314,46.2597497 C6.38947752,43.2676196 8.40485617,39.8490035 11.9156666,37.9593189 C14.5746159,36.4283172 17.4143259,35.4205889 20.5288131,35.5090951 C20.7776189,35.5872496 21.1251159,35.6622987 21.2466619,35.9360986 L21.2466619,35.9360986 Z" id="Fill-7" fill="#7F7771"></path>
                            <path d="M17.4236756,20.0163722 C17.4236756,19.4625616 16.9359332,19.0086439 16.3406693,19.0086439 C15.7443666,19.0086439 15.2566241,19.4625616 15.2566241,20.0163722 C15.2566241,20.571218 15.7443666,21.0241005 16.3406693,21.0241005 C16.9359332,21.0241005 17.4236756,20.571218 17.4236756,20.0163722 L17.4236756,20.0163722 Z M27.1935872,19.2156759 C29.5860702,20.2327207 31.729228,21.5872276 33.9845822,22.7709331 C35.0800548,23.3030054 36.0996909,22.8428767 37.231004,22.7730034 C37.8335399,22.6549952 38.6126811,22.4257072 39.0604276,22.9246544 L39.1913233,23.3423415 C38.9913437,25.5260116 38.663585,27.7707561 39.5845299,29.7515349 C39.6406281,30.0962432 39.5933602,30.4456097 39.397536,30.7085403 C39.0230288,30.9626721 38.3960798,31.0765397 37.8423701,30.9642249 C37.6439488,31.6686513 37.954047,32.333224 38.0168978,33.0133242 C38.4973682,34.8305476 38.3311514,36.9132897 39.816714,38.2807361 C40.2587468,38.6823782 40.4826201,38.9023497 40.6639002,39.4483966 C40.4654789,40.1523054 39.8110003,40.6424537 39.229761,41.0270157 L38.8246075,41.0616935 C37.5005869,46.2292125 32.6309542,50.0639629 28.3648962,52.4199871 C30.805686,49.7694599 33.1072692,47.1059931 34.4079156,43.8322994 C34.6941201,42.8928917 34.9340956,41.6232679 34.0006844,40.9291931 C32.9488438,40.1900888 31.6996207,40.3940153 30.5319477,40.0870904 C29.1606591,38.7889997 30.6358332,36.7041873 29.2640252,35.4055791 C28.4235915,34.4537494 27.585755,33.1805025 26.2186218,32.5392209 C25.2535256,32.4248357 24.5403516,32.9522497 23.8313331,33.4568903 C23.5305846,33.5453964 23.0444005,34.9366516 21.8637418,33.791247 C20.9734431,32.8901401 21.8050465,30.8705429 21.6544125,29.5657237 C20.469079,27.1910665 16.9608657,26.353622 14.6099369,24.949945 C13.3830492,23.7610637 11.1370447,23.390994 11.4663618,21.3853714 C11.6377728,21.1778218 11.7312698,21.0391104 12.0278629,21.0391104 C12.6849387,21.0810343 13.3009797,21.5737705 13.9772742,21.4692194 C13.4490165,20.7415018 12.4880756,20.3051819 11.543237,20.1581892 C11.2996256,19.9113035 11.5697278,19.6613123 11.712051,19.4723956 C15.5043911,17.2333444 20.733987,17.4507281 25.1434069,18.462597 L27.1935872,19.2156759 L27.1935872,19.2156759 Z" id="Fill-9" fill="#7F7771"></path>
                            <path d="M48.3296111,37.8133613 C48.3296111,37.2590331 47.8423881,36.8051154 47.2466048,36.8051154 C46.650302,36.8051154 46.1630791,37.2590331 46.1630791,37.8133613 C46.1630791,38.3676895 46.650302,38.820572 47.2466048,38.820572 C47.8423881,38.820572 48.3296111,38.3676895 48.3296111,37.8133613 L48.3296111,37.8133613 Z M57.4284224,42.2629968 C59.1233143,44.4704756 60.1336007,46.8767051 61.74019,49.1219672 C62.7894335,49.6845767 63.9025666,50.1281428 65.0286854,50.4878609 C65.3595607,50.6545217 65.5351272,50.9283215 65.6062887,51.2399047 L65.4535771,51.6948575 C64.068264,53.388897 62.5447831,55.1719601 62.2876665,57.2588428 C62.141188,57.5155625 62.0336665,57.8193819 61.7209711,57.9674098 C61.1537563,58.0445293 60.5034331,57.8939135 60.0878911,57.4819198 C59.3336824,58.3483487 59.1944758,59.3674638 58.7155637,60.3534537 C57.961355,61.8673753 57.133907,63.6499209 57.8818826,65.206284 C57.9436945,65.6679654 57.972263,66.1808872 57.4689377,66.4215619 C56.7121319,66.6073732 56.0919355,67.0028043 55.3740867,66.606338 C50.8716892,68.4013055 46.4529196,69.778586 41.7032746,68.7656819 L41.611336,68.7201348 C42.9956102,67.6404629 43.4714058,65.9412477 43.9705756,64.3569352 C43.9560317,62.2006968 45.6810503,60.507175 47.20557,59.0719256 C47.0398727,61.1872752 46.9422203,63.5816003 48.8812431,65.3786382 C49.8499754,64.8336264 50.1112474,63.7762104 50.1870838,62.8932189 L48.8074844,61.8482248 C48.5633535,60.6821171 49.3596358,59.614867 50.1081308,58.6490627 C50.3943354,57.3903081 50.2421431,56.584436 50.0078813,55.2853102 C49.805824,54.5482762 49.6816808,53.2931446 48.6817829,52.9603407 C47.689157,52.4443134 46.6066701,53.5089755 45.9173899,52.3480435 C45.7174103,51.0137222 46.3947437,49.7363347 46.9889688,48.5624632 C47.2798481,47.4036016 46.5718685,46.226107 46.0259502,45.0915716 L43.566461,41.3448098 C43.2189641,39.9183593 41.3885016,38.1487532 42.7706981,36.7041873 C43.7165756,36.0779155 44.0370623,37.6554994 44.8904817,37.9122191 C44.8432138,37.0680461 44.2604162,36.2331895 43.5285428,35.5888024 C43.4807555,35.3755594 43.6895654,35.282395 43.8272136,35.1928537 C44.6001217,34.9723646 45.235901,35.1742208 46.0238725,35.2347776 C51.3937138,36.2637267 53.8345036,37.4438092 57.4284224,42.2629968 L57.4284224,42.2629968 Z" id="Fill-10" fill="#7F7771"></path>
                        </g>
                        <g id="BRO" transform="translate(0.000000, 91.356584)" fill="#807771">
                            <path d="M7.25549581,10.1704297 C7.27446676,11.0160929 5.39491035,12.5283715 4.58166484,12.3660869 C4.27132864,12.2762061 4.1356684,9.2530758 4.48394652,8.35284209 C4.63929359,7.97512913 7.21648007,9.28874275 7.25549581,10.1704297 L7.25549581,10.1704297 Z M11.5361309,10.6562135 C11.5361309,9.16355177 8.6883399,7.75934411 8.76637138,7.3459642 C8.84332903,7.00320485 11.167808,5.74451832 11.5361309,3.56705127 C11.6524623,2.99031675 8.74704248,0.723325665 7.759121,0.36344618 C7.31312456,0.184041441 6.88717291,0.255375333 6.36350293,0.255375333 L0.0665773172,0.345256037 C0.279553144,3.04488718 0.376197637,4.64633306 0.376197637,7.38127448 C0.376197637,9.9550013 0.356868738,12.473801 0.162863867,14.0542034 L9.30865436,14.0723935 L9.79295065,13.4457253 C10.5485674,12.4021105 11.5751467,11.7722322 11.5361309,10.6562135 L11.5361309,10.6562135 Z M7.17818021,3.72826587 C7.19715117,4.25042996 5.08529003,6.26632575 4.60099374,5.95994668 C4.25199974,5.74451832 4.15463936,2.70319784 4.44528872,1.94705858 C4.54229116,1.659583 7.10050668,2.64862741 7.17818021,3.72826587 L7.17818021,3.72826587 Z" id="Fill-11"></path>
                            <path d="M20.609617,12.2911863 C20.4743148,12.9385413 20.3894824,13.3483545 20.3218312,14.0231732 L13.0230244,14.0231732 L13.0230244,8.74375182 C13.0230244,7.30887058 12.9718386,6.45785725 12.8365363,5.02261934 C12.7517039,3.90339057 12.6500482,3.24105538 12.4807414,2.12111328 C13.2424432,2.10613316 13.7002517,2.10613316 14.4791347,2.09008304 C15.4437899,2.05798278 16.0025383,2.02695254 16.9847327,1.99485229 C16.8326071,3.50927082 16.6124724,4.9284586 16.6124724,6.77279638 C16.6289378,8.34998873 16.6289378,10.5420792 16.9346207,10.7942445 C17.2055832,11.0300031 18.8145351,10.7942445 19.9488551,10.6052097 L21.2027279,10.4001248 C20.9321233,11.1091837 20.7796398,11.5510971 20.609617,12.2911863" id="Fill-12"></path>
                            <path d="M35.3811908,14.0231732 C34.6191311,12.088598 34.1280339,10.8912586 33.5349231,8.95311679 C32.688031,6.18108174 32.145748,4.62100953 31.4173349,1.86359793 L25.8788896,1.86359793 C25.1504764,4.33674397 24.5913701,5.73988162 23.7104735,8.18128408 C22.8807626,10.5442192 22.2543631,11.7882823 21.220625,14.0231732 L25.3534299,14.0231732 L26.3016197,11.6473979 C27.1324044,11.6473979 27.6406829,11.663448 28.487217,11.7262218 C29.4354069,11.7882823 30.0288757,11.8524828 30.9770655,11.962337 L31.248386,14.0231732 L35.3811908,14.0231732 L35.3811908,14.0231732 Z M30.4351405,8.22907778 C30.350666,8.46519297 27.5730317,8.40206247 27.3521812,8.22907778 C27.0980419,8.02434951 28.4703937,4.98302903 28.7753608,5.01512928 C29.0295,5.03082274 30.5704428,7.94516889 30.4351405,8.22907778 L30.4351405,8.22907778 Z" id="Fill-13"></path>
                            <path d="M42.8600428,12.2804862 C42.4197735,12.9107211 42.1824575,13.3048409 41.7758348,13.9507693 L40.6243335,13.6515236 C38.2186016,13.0526756 34.507453,10.7846145 34.507453,7.96442904 C34.4902718,5.17634387 37.6594953,2.86084574 40.285004,1.94705858 L41.3867512,1.58503908 L43.6897537,4.65738981 L42.7755684,4.75119388 C40.6407989,5.08218314 38.8961868,6.65723547 38.8793635,7.90129855 C38.8628982,9.22561226 41.4032166,10.5003489 42.1992808,10.7054338 L43.6897537,11.0364231 C43.3855025,11.5247036 43.1818332,11.7925624 42.8600428,12.2804862" id="Fill-14"></path>
                            <path d="M53.2271333,14.1708343 C52.6340225,13.1486196 52.2614043,12.5497716 51.5834611,11.6035275 C50.8725871,10.5945096 50.4154945,10.0274052 49.601891,9.12824149 C49.6366115,10.0584354 49.5517791,10.5945096 49.5847098,11.5254169 C49.601891,12.4866411 49.6870814,13.0708657 49.838849,14.0295932 L45.23356,14.0295932 C45.4536946,11.4936734 45.5045225,10.0274052 45.4365134,7.50432544 C45.4035827,5.31294828 45.2843878,4.03571494 44.996244,1.87536802 L49.2464541,1.87536802 L49.2464541,6.55808136 C49.8220257,5.83297235 50.144532,5.40675235 50.6184479,4.66594988 C51.346861,3.57775135 51.7198372,2.90043605 52.2614043,1.74839369 C52.9894595,1.96917209 53.4300868,2.12753333 54.1588578,2.36364851 C55.0726852,2.6475574 55.5981449,2.8216121 56.513404,3.08982753 C55.5981449,3.9404842 55.1070477,4.49260852 54.34463,5.4388526 C53.6165749,6.3369463 52.6852083,7.66197334 52.6512038,7.86705828 C52.6512038,8.21409767 53.7350538,9.30229619 54.4802903,10.1212093 C55.0902244,10.7995946 55.4628426,11.1933577 56.1232466,11.8246626 L56.9196689,12.5964953 L53.2271333,14.1708343" id="Fill-15"></path>
                            <path d="M63.8476472,5.34825855 C62.9839318,5.22306757 61.7307749,5.04901288 61.5951146,5.15886707 C61.3073288,5.47523288 61.3921612,6.42040695 61.4766357,7.00213484 C61.5446447,7.34917423 66.1008957,6.7503262 65.9308729,6.95541114 L65.8131098,9.69641594 C65.6269797,9.72744619 62.3743556,9.41250705 62.2046908,9.491331 C61.8492539,9.68036582 62.0017374,12.4527575 62.2046908,13.4917357 L62.3067045,14.0552734 C61.4766357,14.0552734 61.0027197,14.0402933 60.1722929,14.0242432 C59.4270565,14.0096197 58.9867872,14.0096197 58.2419087,13.9935696 L58.2419087,7.36415434 C58.1735417,5.30117819 58.140253,4.10383881 58.071886,2.02481253 C59.2752889,2.05691278 60.0033441,2.05691278 61.2228544,2.05691278 C63.2892568,2.05691278 64.4575813,2.04086265 66.5243417,1.9620387 L66.8117696,5.97920683 C65.6942729,5.64821757 64.9998643,5.490213 63.8476472,5.34825855" id="Fill-16"></path>
                            <path d="M73.7508442,14.0213898 C82.6772159,14.0213898 82.6772159,1.8978382 73.7508442,1.8978382 C65.0449651,1.8978382 65.0449651,14.0213898 73.7508442,14.0213898 L73.7508442,14.0213898 Z M77.0707615,8.08605333 C76.9859291,9.64291552 75.4958142,10.7921045 73.80203,10.7450242 C72.1082457,10.6808237 70.7358939,9.37612677 70.8035451,7.80214444 C70.8375496,6.2609757 72.2263668,5.09609325 73.8693232,5.065063 C75.6314744,5.04901288 77.173133,6.43431706 77.0707615,8.08605333 L77.0707615,8.08605333 Z" id="Fill-17"></path>
                            <path d="M87.9790612,14.0213898 C96.9054329,14.0213898 96.9054329,1.8978382 87.9790612,1.8978382 C79.2728241,1.8978382 79.2728241,14.0213898 87.9790612,14.0213898 L87.9790612,14.0213898 Z M91.2989785,8.08605333 C91.214504,9.64291552 89.7236732,10.7921045 88.029889,10.7450242 C86.3361048,10.6808237 84.963753,9.37612677 85.03212,7.80214444 C85.0654087,6.2609757 86.4545838,5.09609325 88.0975401,5.065063 C89.8593335,5.04901288 91.4002762,6.43431706 91.2989785,8.08605333 L91.2989785,8.08605333 Z" id="Fill-18"></path>
                            <path d="M105.247642,3.42509683 C105.145987,4.16482929 105.078693,4.60602941 105.027508,5.36216866 L104.198155,5.18882731 C104.028132,5.1410336 102.503655,4.96804891 102.402715,5.15708372 C102.23305,5.52017323 102.012915,8.15132384 102.385534,13.2235202 L102.453185,14.0552734 L98.2745632,14.0552734 L98.2745632,13.1764399 C98.2745632,10.0883957 98.3758609,5.36216866 98.0372473,5.18882731 C97.7150989,5.04687286 96.6144256,5.18882731 95.7507101,5.28405805 L95.0054737,5.36216866 L95.4289198,2.00697905 C98.0712518,2.17960707 100.609065,2.05370275 103.943658,2.00697905 C104.502406,2.00697905 104.891847,1.94384856 105.501782,1.88071806 C105.366837,2.47885275 105.316009,2.82589213 105.247642,3.42509683" id="Fill-19"></path>
                            <path d="M6.95732965,26.3792733 L5.54989948,24.2727834 C5.33584983,23.9268141 5.11070395,23.5915448 5.18909337,23.2869491 C5.25674452,23.0148103 6.69853717,22.3225148 6.83419741,21.4001676 C6.90149061,20.8865636 5.58354608,19.7651948 4.45710083,18.9687519 C3.89405717,18.5650021 2.58792475,18.7379868 2.19490381,18.7379868 L0.364743474,18.7379868 C0.386935913,20.2466986 0.398032133,21.107342 0.409486295,22.6057104 C0.420940457,24.1989529 0.443132896,25.1109567 0.443132896,26.6988491 L1.91427684,26.6988491 L2.94765703,26.6988491 L2.86890966,26.2330388 C2.77906608,25.6352608 2.7901623,25.4151957 2.72251115,24.7018568 C2.71141493,24.3879877 2.67741039,23.9574876 2.82416684,23.8957838 C2.98130363,23.8112532 3.16134874,24.1882528 3.29700897,24.4083178 L4.78390239,26.7502095 L6.95732965,26.3792733 L6.95732965,26.3792733 Z M4.19795041,21.4843416 C4.20976251,21.9351718 3.08331726,22.8885493 2.55392021,22.8471756 C2.4193338,22.8471756 2.318394,20.4357334 2.46443456,20.3633295 C2.86890966,20.1421944 4.18685419,21.0017678 4.19795041,21.4843416 L4.19795041,21.4843416 Z" id="Fill-21"></path>
                            <path d="M7.2798359,26.7031291 C7.43733063,25.0435461 7.47133517,24.0687685 7.43733063,22.4123955 C7.40368403,20.9450574 7.33567494,20.085484 7.16708399,18.6281326 L9.97192194,18.6281326 C9.83661965,20.1486145 9.8026151,21.0499182 9.83661965,22.55863 C9.84771587,24.1315423 9.91500907,25.0531762 10.1294167,26.601835 L7.2798359,26.7031291" id="Fill-23"></path>
                            <path d="M18.4712682,22.9677299 C18.0213344,24.3612375 17.7736381,25.1780105 17.412474,26.5932749 C16.7824951,26.5822182 16.3880424,26.5822182 15.7688018,26.5932749 C14.9462498,26.6025484 14.4504993,26.6549788 13.6512136,26.7074092 C13.0649036,25.0949065 12.73846,24.1304723 12.1414118,22.5693301 C11.5783682,21.0927185 11.161723,20.2745188 10.4744733,18.8606811 C11.0264207,18.7868505 11.3417681,18.7347767 11.8819035,18.6609462 C12.4345668,18.5778422 12.7606525,18.5254118 13.3015037,18.4515812 C14.1462481,20.7467492 15.2272347,24.3612375 15.3854453,24.3719375 C15.5880408,24.3719375 16.6357387,20.0237802 16.9281778,18.4412378 C17.4801252,18.4933115 17.8294771,18.5147117 18.3932367,18.5468119 C19.0575781,18.5778422 19.4402187,18.6085157 20.0938218,18.6195725 C19.40693,20.2852189 19.0350277,21.2599965 18.4712682,22.9677299" id="Fill-24"></path>
                            <path d="M26.1498521,26.7084792 C25.147255,26.7084792 24.5502068,26.688149 23.5476096,26.688149 C22.3878757,26.688149 21.7231764,26.7084792 20.5630845,26.7191793 C20.6643823,24.9975358 20.6758364,23.9917279 20.6307357,22.2747211 C20.6081853,20.8394832 20.5512724,19.9916799 20.4281402,18.556442 C21.2499763,18.6195725 21.7457267,18.639546 22.5908291,18.639546 C23.6496233,18.639546 24.2796022,18.6085157 25.3280159,18.5040116 L26.3971904,20.8394832 C25.6541016,20.6611485 25.215264,20.5673444 24.4378128,20.5042139 C23.8522187,20.4517835 22.9398231,20.3472794 22.8947224,20.4624836 C22.8270712,20.6301182 22.8496216,21.5827824 22.8947224,21.9394518 C22.9058186,22.1687903 26.1498521,21.6776564 26.0371002,21.8242476 L26.0600085,23.8975672 C25.9361604,23.9086239 23.3564683,23.5840547 23.2208081,23.6361285 C22.9956622,23.7823629 23.0525751,24.7564272 23.0976758,24.9761356 C23.1424186,25.1544703 26.262246,24.5780925 26.5103002,24.5256621 L26.1498521,26.7084792" id="Fill-25"></path>
                            <path d="M33.4386365,26.3792733 L32.0308484,24.2727834 C31.8167988,23.9268141 31.5916529,23.5915448 31.6704003,23.2869491 C31.7380514,23.0148103 33.1798441,22.3225148 33.3147884,21.4001676 C33.3824396,20.8865636 32.0641371,19.7651948 30.9380498,18.9687519 C30.3753641,18.5650021 29.0688737,18.7379868 28.6754948,18.7379868 L26.8453345,18.7379868 C26.8678849,20.2466986 26.879697,21.107342 26.8904352,22.6057104 C26.9018894,24.1989529 26.9240818,25.1109567 26.9240818,26.6988491 L28.3948678,26.6988491 L29.4293219,26.6988491 L29.3498586,26.2330388 C29.2596571,25.6352608 29.2714692,25.4151957 29.2034601,24.7018568 C29.1923639,24.3879877 29.1590752,23.9574876 29.3047579,23.8957838 C29.4626105,23.8112532 29.6426556,24.1882528 29.7776,24.4083178 L31.2648513,26.7502095 L33.4386365,26.3792733 L33.4386365,26.3792733 Z M30.6792573,21.4843416 C30.6903535,21.9351718 29.5642662,22.8885493 29.0352271,22.8471756 C28.9006407,22.8471756 28.7993429,20.4357334 28.9450256,20.3633295 C29.3498586,20.1421944 30.6681611,21.0017678 30.6792573,21.4843416 L30.6792573,21.4843416 Z" id="Fill-27"></path>
                            <path d="M40.4389193,26.7020591 C46.3750388,26.7020591 46.3750388,18.6299159 40.4389193,18.6299159 C34.6491983,18.6299159 34.6491983,26.7020591 40.4389193,26.7020591 L40.4389193,26.7020591 Z M42.646709,22.7498048 C42.5901541,23.787713 41.5990112,24.5534823 40.4725659,24.5224521 C39.3464786,24.4796517 38.433725,23.6093782 38.4788258,22.56077 C38.5013762,21.533562 39.425226,20.7570926 40.5173087,20.7360491 C41.6888547,20.7249923 42.7140022,21.6476962 42.646709,22.7498048 L42.646709,22.7498048 Z" id="Fill-29"></path>
                            <path d="M53.0807348,22.9334896 C53.0807348,24.3890577 53.1029273,25.237931 53.1709364,26.6977791 L50.4562999,26.6977791 C50.4673962,26.3699999 50.4784924,25.8874261 50.275181,25.8667393 C50.0833238,25.8563958 49.4841279,26.5258644 49.2693624,26.7191793 C48.4897635,26.6581888 48.0151316,26.6271585 47.2605887,26.4424038 C46.5740549,26.2961693 46.2139647,26.0964344 45.5274308,25.8667393 C45.5396009,24.3687275 45.5274308,23.4781239 45.4719497,21.9801122 C45.426491,20.8480433 45.3813902,20.1985482 45.3022849,19.067906 L48.1737002,18.7219366 L48.1049752,19.2879711 C47.9578608,20.3355093 47.9356684,20.9643175 47.913118,22.0015123 C47.8905676,22.775485 47.9245722,23.2366587 48.0036775,24.0120581 C48.3655574,24.2535233 48.6365199,24.3794276 49.1000556,24.4625316 C49.5857836,24.5363622 50.2300802,24.7136269 50.3768367,24.3687275 C50.4784924,24.127619 50.4673962,23.8551235 50.4673962,23.5305543 L50.4333916,18.9206015 L53.2052988,18.774367 C53.1258356,20.3768829 53.0807348,21.3092169 53.0807348,22.9334896" id="Fill-30"></path>
                            <path d="M60.4300116,19.6549839 C60.3627184,20.1475445 60.3176176,20.4400134 60.2832551,20.9429174 L59.7316656,20.8277131 C59.6192717,20.7966829 58.6052204,20.6814786 58.5375692,20.807383 C58.4251753,21.0477782 58.2791347,22.7979552 58.5271889,26.170265 L58.5719317,26.7191793 L55.7942974,26.7191793 L55.7942974,26.1392347 C55.7942974,24.0858886 55.8615906,20.9429174 55.6368027,20.8277131 C55.422753,20.7335524 54.6904026,20.8277131 54.1162627,20.8908436 L53.6208702,20.9429174 L53.902213,18.7123066 C55.6589951,18.8275108 57.3459784,18.7433368 59.5630747,18.7123066 C59.9342611,18.7123066 60.1934116,18.6705762 60.5996764,18.6281326 C60.5091169,19.0261757 60.4751124,19.2569408 60.4300116,19.6549839" id="Fill-31"></path>
                            <path d="M64.8541817,20.9290073 C64.2796839,20.8448333 63.4463936,20.729629 63.3558341,20.8031029 C63.1646928,21.0124679 63.2208898,21.6412762 63.2774447,22.0300459 C63.3225455,22.260811 66.3521713,21.8613412 66.2397774,21.9979456 L66.16103,23.8219532 C66.0371819,23.8433534 63.8744929,23.6329184 63.7620989,23.6864188 C63.525141,23.8112532 63.6264387,25.6566609 63.7620989,26.3485997 L63.8293921,26.7191793 C63.2774447,26.7191793 62.9617394,26.7084792 62.4097919,26.6977791 C61.9147574,26.688149 61.6219603,26.688149 61.1258519,26.6785189 L61.1258519,22.2704411 C61.0807512,20.896907 61.0582008,20.1004641 61.0131,18.7176566 C61.8123858,18.7379868 62.29704,18.7379868 63.1084958,18.7379868 C64.4819214,18.7379868 65.2593727,18.7272867 66.6338721,18.6748563 L66.8253714,21.3488072 C66.0822826,21.1276721 65.6201788,21.023168 64.8541817,20.9290073" id="Fill-32"></path>
                            <path d="M67.2910547,26.7031291 C67.4492653,25.0435461 67.4829119,24.0687685 67.4492653,22.4123955 C67.4152608,20.9450574 67.3476096,20.085484 67.1786607,18.6281326 L69.9831407,18.6281326 C69.8481964,20.1486145 69.8141918,21.0499182 69.8481964,22.55863 C69.8592926,24.1315423 69.9273017,25.0531762 70.1409934,26.601835 L67.2910547,26.7031291" id="Fill-33"></path>
                            <path d="M77.2901803,19.6549839 C77.2225291,20.1475445 77.1774284,20.4400134 77.1441397,20.9429174 L76.5921923,20.8277131 C76.4790824,20.7966829 75.465747,20.6814786 75.3984538,20.807383 C75.2857019,21.0477782 75.1393034,22.7979552 75.3866417,26.170265 L75.4317425,26.7191793 L72.654824,26.7191793 L72.654824,26.1392347 C72.654824,24.0858886 72.7221172,20.9429174 72.4973293,20.8277131 C72.2825638,20.7335524 71.5509292,20.8277131 70.9760734,20.8908436 L70.4806809,20.9429174 L70.7620238,18.7123066 C72.5191638,18.8275108 74.2061471,18.7433368 76.4232434,18.7123066 C76.7951457,18.7123066 77.0539382,18.6705762 77.4587712,18.6281326 C77.3692856,19.0261757 77.335281,19.2569408 77.2901803,19.6549839" id="Fill-34"></path>
                            <path d="M84.6670186,19.6549839 C84.5990095,20.1475445 84.5539087,20.4400134 84.5202621,20.9429174 L83.9683147,20.8277131 C83.8555628,20.7966829 82.8418695,20.6814786 82.7745763,20.807383 C82.6621823,21.0477782 82.5154258,22.7979552 82.7631221,26.170265 L82.8082229,26.7191793 L80.0309465,26.7191793 L80.0309465,26.1392347 C80.0309465,24.0858886 80.0982397,20.9429174 79.8730938,20.8277131 C79.6590442,20.7335524 78.9270516,20.8277131 78.3525538,20.8908436 L77.8571613,20.9429174 L78.13922,18.7123066 C79.8960021,18.8275108 81.5829855,18.7433368 83.7993658,18.7123066 C84.1705523,18.7123066 84.4300606,18.6705762 84.8359675,18.6281326 C84.745408,19.0261757 84.7114035,19.2569408 84.6670186,19.6549839" id="Fill-35"></path>
                            <path d="M91.0573672,26.7084792 C90.055486,26.7084792 89.4580798,26.688149 88.4554827,26.688149 C87.2953909,26.688149 86.6306915,26.7084792 85.4705997,26.7191793 C85.5718974,24.9975358 85.5833516,23.9917279 85.5382508,22.2747211 C85.5157004,20.8394832 85.4595034,19.9916799 85.3356553,18.556442 C86.1574914,18.6195725 86.6532419,18.639546 87.4983443,18.639546 C88.5571384,18.639546 89.1878332,18.6085157 90.2355311,18.5040116 L91.3054214,20.8394832 C90.5616168,20.6611485 90.1220633,20.5673444 89.3453279,20.5042139 C88.7597339,20.4517835 87.8473383,20.3472794 87.8022375,20.4624836 C87.7345864,20.6301182 87.7571368,21.5827824 87.8022375,21.9394518 C87.8133338,22.1687903 91.0573672,21.6776564 90.9446153,21.8242476 L90.9675236,23.8975672 C90.8436755,23.9086239 88.2639834,23.5840547 88.1290391,23.6361285 C87.9038932,23.7823629 87.9597323,24.7564272 88.005191,24.9761356 C88.0502917,25.1544703 91.1704771,24.5780925 91.4178154,24.5256621 L91.0573672,26.7084792" id="Fill-36"></path>
                            <path d="M98.7040943,26.2130653 L97.2959482,24.1058621 C97.0818985,23.7598928 96.8567527,23.4246235 96.9355,23.1214544 C97.0035091,22.8482456 98.4449438,22.1563069 98.5798882,21.233603 C98.6475393,20.721069 97.3299527,19.5986302 96.2035075,18.8018306 C95.6401059,18.3984374 94.3339735,18.5714221 93.9409525,18.5714221 L92.1107922,18.5714221 C92.1329846,20.0812039 92.1447967,20.9407773 92.155893,22.4402158 C92.1669892,24.0323882 92.1895396,24.944392 92.1895396,26.5333545 L93.6603256,26.5333545 L94.6940637,26.5333545 L94.6153163,26.0668308 C94.5251148,25.4686961 94.536569,25.2486311 94.4689178,24.5363622 C94.4574637,24.221423 94.424175,23.791993 94.5702156,23.7292192 C94.7280682,23.6446885 94.9081133,24.0227581 95.0434156,24.2428232 L96.5303091,26.5836449 L98.7040943,26.2130653 L98.7040943,26.2130653 Z M95.944715,21.317777 C95.9554533,21.7686072 94.8297239,22.7234113 94.3006848,22.6802543 C94.1657405,22.6802543 94.0651586,20.2691688 94.2101253,20.1967648 C94.6153163,19.9756298 95.9336188,20.8362732 95.944715,21.317777 L95.944715,21.317777 Z" id="Fill-37"></path>
                            <path d="M103.256766,19.8507955 C102.738823,20.0291302 102.288531,20.4796037 102.254885,20.8362732 C102.063027,22.5457899 103.808713,23.070094 103.414618,24.4657416 C103.178376,25.242211 102.648263,25.8189455 102.085936,26.3015193 L101.601639,26.7031291 C101.116627,26.5312145 100.846381,26.4274236 100.362084,26.258719 C99.7202932,26.0283105 99.3491068,25.9024062 98.7065999,25.6930412 L99.3258405,25.5147065 C100.316983,25.2315109 100.576134,24.6751066 100.655239,24.1090722 C100.857835,22.7241246 99.1905382,22.3260815 99.3823954,21.2239729 C99.528436,20.2702388 100.080741,19.8186952 100.70034,19.0325957 L101.038238,18.6131524 L103.899273,19.6200303 L103.256766,19.8507955" id="Fill-38"></path>
                        </g>
                    </g>
                </g>
            </g>
        </g>
    </g>
</svg>