<?xml version="1.0" encoding="UTF-8" standalone="no"?>
<svg width="130px" height="33px" viewBox="0 0 130 33" version="1.1" xmlns="http://www.w3.org/2000/svg" xmlns:xlink="http://www.w3.org/1999/xlink" xmlns:sketch="http://www.bohemiancoding.com/sketch/ns">
    <!-- Generator: Sketch 3.3.1 (12002) - http://www.bohemiancoding.com/sketch -->
    <title>BRO</title>
    <desc>Created with Sketch.</desc>
    <defs></defs>
    <g id="Home" stroke="none" stroke-width="1" fill="none" fill-rule="evenodd" sketch:type="MSPage">
        <g sketch:type="MSArtboardGroup" transform="translate(-936.000000, -137.000000)" id="HEADER-(feature)" fill="#FFFFFF">
            <g sketch:type="MSLayerGroup" transform="translate(0.000000, -6.000000)">
                <g id="ICON-+-BRO" transform="translate(936.000000, 31.000000)" sketch:type="MSShapeGroup">
                    <g id="BRO" transform="translate(0.000000, 112.149211)">
                        <path d="M8.90683625,12.4852049 C8.93012497,13.5233399 6.62278421,15.3798108 5.62444519,15.1805905 C5.24347691,15.0702531 5.0769406,11.3590626 5.50448632,10.253937 C5.69519016,9.79025708 8.85894058,11.4028473 8.90683625,12.4852049 L8.90683625,12.4852049 Z M14.1617378,13.0815524 C14.1617378,11.249163 10.6657936,9.5253597 10.7615849,9.01789512 C10.856058,8.59712423 13.7095851,7.05196246 14.1617378,4.37890703 C14.304546,3.67090856 10.7378568,0.88795355 9.52508581,0.446166009 C8.97758122,0.22592901 8.45468359,0.313498393 7.81182708,0.313498393 L0.0817302192,0.423835817 C0.343179039,3.73789914 0.461819679,5.7038318 0.461819679,9.06124197 C0.461819679,12.2207453 0.438091551,15.3128203 0.19993145,17.25292 L11.4272908,17.2752501 L12.0218122,16.5059531 C12.9494062,15.224813 14.2096335,14.4515754 14.1617378,13.0815524 L14.1617378,13.0815524 Z M8.81192374,4.57681383 C8.83521246,5.21782172 6.24269475,7.6925325 5.64817332,7.316422 C5.21974878,7.05196246 5.10022932,3.31844179 5.45703006,2.39020632 C5.57611011,2.03730171 8.71657181,3.25145121 8.81192374,4.57681383 L8.81192374,4.57681383 Z" id="Fill-11"></path>
                        <path d="M25.3003363,15.0886426 C25.1342394,15.8833348 25.0300993,16.3864209 24.9470509,17.2148273 L15.987046,17.2148273 L15.987046,10.7338172 C15.987046,8.97235904 15.9242104,7.9276563 15.7581135,6.1657603 C15.6539734,4.79179667 15.5291811,3.97871494 15.3213402,2.60387562 C16.2564042,2.58548605 16.8184093,2.58548605 17.774565,2.56578294 C18.9587744,2.52637672 19.6446931,2.48828403 20.8504335,2.44887781 C20.6636843,4.30797583 20.3934473,6.05016871 20.3934473,8.31427512 C20.4136602,10.2504342 20.4136602,12.9414414 20.7889161,13.2509991 C21.1215493,13.5404159 23.0966963,13.2509991 24.4891859,13.0189403 L26.0284383,12.7671783 C25.6962446,13.637618 25.509056,14.1801103 25.3003363,15.0886426" id="Fill-12"></path>
                        <path d="M43.4338992,17.2148273 C42.4983957,14.8399456 41.8955255,13.3700935 41.1674235,10.9908333 C40.12778,7.58788709 39.4620742,5.67274467 38.5678752,2.28775015 L31.7688877,2.28775015 C30.8746888,5.32378067 30.1883307,7.04627045 29.1069433,10.0433326 C28.0883914,12.9440684 27.3194243,14.4712785 26.0504088,17.2148273 L31.1238342,17.2148273 L32.2878307,14.298329 C33.3077008,14.298329 33.9316627,14.3180321 34.9708668,14.3950931 C36.1348633,14.4712785 36.8634047,14.5500909 38.0274012,14.6849478 L38.3604738,17.2148273 L43.4338992,17.2148273 L43.4338992,17.2148273 Z M37.3621348,10.1020041 C37.2584341,10.3918587 33.8486142,10.3143598 33.5774984,10.1020041 C33.2655174,9.85067996 34.9502145,6.11715929 35.3245917,6.15656551 C35.6365726,6.17583078 37.5282317,9.75347794 37.3621348,10.1020041 L37.3621348,10.1020041 Z" id="Fill-13"></path>
                        <path d="M52.6149271,15.0755072 C52.0744531,15.8491827 51.7831244,16.3330036 51.2839549,17.1259443 L49.8703736,16.7585908 C46.9171005,16.0234458 42.3612999,13.2391773 42.3612999,9.77712168 C42.3402082,6.35447232 46.2307424,3.51197013 49.4538131,2.39020632 L50.8063165,1.9457917 L53.633479,5.71740505 L52.5112264,5.83255879 C49.8905865,6.23888073 47.7489032,8.17241272 47.7282509,9.69962277 C47.7080381,11.3253484 50.8265293,12.8902133 51.8037767,13.1419752 L53.633479,13.5482972 C53.2599807,14.1477096 53.0099565,14.4765326 52.6149271,15.0755072" id="Fill-14"></path>
                        <path d="M65.3415526,17.3960959 C64.6134506,16.1412266 64.156025,15.4060817 63.3237829,14.2444738 C62.451115,13.0058048 61.8899888,12.3096283 60.8912103,11.2058162 C60.9338331,12.3477209 60.829693,13.0058048 60.8701187,14.1485853 C60.8912103,15.3285827 60.9957899,16.045776 61.1820996,17.2227085 L55.5286534,17.2227085 C55.7988904,14.1096169 55.8612866,12.3096283 55.7777987,9.21229915 C55.737373,6.52216769 55.5910496,4.95423788 55.2373247,2.30219909 L60.4548764,2.30219909 L60.4548764,8.05069128 C61.1614473,7.1605485 61.5573556,6.63732143 62.1391341,5.72791338 C63.033333,4.39204243 63.491198,3.56057114 64.156025,2.14632559 C65.0497845,2.41735283 65.5906979,2.61175687 66.4853362,2.90161152 C67.6071494,3.25013767 68.252203,3.46380697 69.3757738,3.79306785 C68.252203,4.83733275 67.6493327,5.51511978 66.7133899,6.67672765 C65.8196304,7.77922619 64.6762862,9.40582749 64.6345422,9.65758947 C64.6345422,10.0836145 65.9650751,11.4194855 66.8799262,12.424782 C67.6286805,13.2575668 68.0861061,13.7409498 68.8968171,14.5159389 L69.8745039,15.4634396 L65.3415526,17.3960959" id="Fill-15"></path>
                        <path d="M78.3792802,6.56551453 C77.3189844,6.41183027 75.7806107,6.19816097 75.6140744,6.33301782 C75.260789,6.72138804 75.3649291,7.88168237 75.4686298,8.59581069 C75.5521176,9.02183574 81.1453647,8.28669077 80.9366451,8.53845275 L80.7920793,11.9033063 C80.5635862,11.941399 76.5706695,11.5547802 76.3623893,11.6515443 C75.9260554,11.8836032 76.1132439,15.2869873 76.3623893,16.5624354 L76.4876211,17.2542335 C75.4686298,17.2542335 74.8868512,17.2358439 73.8674206,17.2161408 C72.9525694,17.1981891 72.4120954,17.1981891 71.4976836,17.178486 L71.4976836,9.04022531 C71.4137563,6.50771874 71.3728912,5.03786664 71.288964,2.48565695 C72.7662596,2.52506318 73.6600191,2.52506318 75.1570883,2.52506318 C77.6938009,2.52506318 79.1280344,2.50536006 81.6651865,2.4085959 L82.0180326,7.34006573 C80.6461952,6.93374379 79.7937403,6.73977761 78.3792802,6.56551453" id="Fill-16"></path>
                        <path d="M90.5364306,17.212638 C101.494432,17.212638 101.494432,2.32978345 90.5364306,2.32978345 C79.8491059,2.32978345 79.8491059,17.212638 90.5364306,17.212638 L90.5364306,17.212638 Z M94.6119563,9.92642748 C94.5078162,11.8376293 92.6785533,13.248372 90.5992662,13.1905762 C88.5199791,13.1117638 86.835282,11.5101198 86.9183304,9.57790133 C86.9600744,7.6859648 88.6649843,6.25595676 90.6818752,6.21786408 C92.8450896,6.19816097 94.7376275,7.8987584 94.6119563,9.92642748 L94.6119563,9.92642748 Z" id="Fill-17"></path>
                        <path d="M108.002969,17.212638 C118.96097,17.212638 118.96097,2.32978345 108.002969,2.32978345 C97.3152053,2.32978345 97.3152053,17.212638 108.002969,17.212638 L108.002969,17.212638 Z M112.078495,9.92642748 C111.974794,11.8376293 110.144653,13.248372 108.065366,13.1905762 C105.986078,13.1117638 104.301381,11.5101198 104.385309,9.57790133 C104.426174,7.6859648 106.131523,6.25595676 108.148414,6.21786408 C110.311189,6.19816097 112.202848,7.8987584 112.078495,9.92642748 L112.078495,9.92642748 Z" id="Fill-18"></path>
                        <path d="M129.201855,4.20464395 C129.077062,5.11273846 128.994453,5.6543551 128.931618,6.58259056 L127.913505,6.36979696 C127.704786,6.31112547 125.833339,6.09876972 125.709426,6.33082859 C125.501146,6.77655675 125.230909,10.0065535 125.688334,16.2331745 L125.771383,17.2542335 L120.641713,17.2542335 L120.641713,16.1753787 C120.641713,12.3845001 120.766066,6.58259056 120.350384,6.36979696 C119.954915,6.19553389 118.60373,6.36979696 117.543434,6.48670209 L116.628583,6.58259056 L117.148405,2.46376461 C120.392128,2.67568252 123.507543,2.52112255 127.601085,2.46376461 C128.287004,2.46376461 128.765081,2.3862657 129.513836,2.3087668 C129.348178,3.04303608 129.285782,3.46906113 129.201855,4.20464395" id="Fill-19"></path>
                        <path d="M8.5408079,32.383158 L6.81304865,29.7972342 C6.5502816,29.3725226 6.27389285,28.9609465 6.37012359,28.5870253 C6.45317204,28.2529481 8.22311463,27.4030872 8.38965094,26.2708151 C8.47225998,25.6403155 6.85435317,24.2637248 5.47153059,23.2860126 C4.780339,22.7903699 3.17693271,23.0027257 2.69446077,23.0027257 L0.447758566,23.0027257 C0.475001973,24.8548181 0.488623676,25.9113428 0.502684789,27.7507377 C0.516745902,29.7065998 0.543989308,30.8261744 0.543989308,32.7754689 L2.34996351,32.7754689 L3.61853954,32.7754689 L3.52186939,32.2036408 C3.41157754,31.4698094 3.42519924,31.1996578 3.34215079,30.323964 C3.32852909,29.9386587 3.28678516,29.4101775 3.46694317,29.33443 C3.65984406,29.2306602 3.88086718,29.6934644 4.04740349,29.963616 L5.87271172,32.8385188 L8.5408079,32.383158 L8.5408079,32.383158 Z M5.15339791,26.3741469 C5.16789843,26.9275855 3.78507585,28.0979503 3.13518878,28.04716 C2.96997071,28.04716 2.84605715,25.086877 3.02533634,24.9979941 C3.52186939,24.726529 5.1397762,25.7817401 5.15339791,26.3741469 L5.15339791,26.3741469 Z" id="Fill-21"></path>
                        <path d="M8.93671611,32.780723 C9.13005642,30.7434213 9.17180035,29.5467857 9.13005642,27.5134246 C9.0887519,25.7121224 9.00526404,24.6569113 8.79830203,22.8678688 L12.2415171,22.8678688 C12.0754202,24.7344102 12.0336762,25.8408494 12.0754202,27.6929419 C12.0890419,29.6238468 12.1716509,30.7552432 12.4348574,32.6563745 L8.93671611,32.780723" id="Fill-23"></path>
                        <path d="M22.6753023,28.1951523 C22.1229642,29.9058202 21.8188926,30.9084896 21.3755282,32.6458662 C20.602167,32.6322929 20.1179374,32.6322929 19.3577585,32.6458662 C18.3479948,32.6572502 17.7394122,32.7216137 16.7582102,32.7859772 C16.038457,30.8064713 15.6377153,29.6225332 14.9047798,27.7060773 C14.2135882,25.893391 13.7021152,24.8889702 12.8584484,23.153345 C13.5360183,23.0627107 13.9231383,22.9987851 14.5862077,22.9081507 C15.2646564,22.8061324 15.6649587,22.7417689 16.3289069,22.6511346 C17.3659139,25.4686795 18.6929315,29.9058202 18.8871506,29.9189556 C19.1358565,29.9189556 20.422009,24.5811638 20.7810067,22.638437 C21.4585766,22.7023627 21.8874406,22.7286335 22.579511,22.7680397 C23.3950555,22.8061324 23.8647846,22.8437872 24.6671468,22.8573605 C23.8239195,24.9021056 23.3673727,26.0987412 22.6753023,28.1951523" id="Fill-24"></path>
                        <path d="M32.1015209,32.7872908 C30.8707341,32.7872908 30.1377986,32.7623335 28.9070118,32.7623335 C27.4833241,32.7623335 26.6673402,32.7872908 25.2432131,32.8004262 C25.367566,30.6869391 25.3816271,29.4522108 25.3262615,27.3444157 C25.2985787,25.5825197 25.2287125,24.5417576 25.0775556,22.7798616 C26.0864404,22.8573605 26.695023,22.8818799 27.7324695,22.8818799 C29.0322436,22.8818799 29.8056048,22.8437872 31.0926361,22.7154981 L32.4051531,25.5825197 C31.4929384,25.3635963 30.954222,25.2484425 29.9998239,25.1709436 C29.2809495,25.1065801 28.160894,24.978291 28.1055284,25.1197155 C28.0224799,25.3255036 28.0501627,26.4949927 28.1055284,26.9328396 C28.1191501,27.2143752 32.1015209,26.61146 31.9631068,26.7914151 L31.9912291,29.3366192 C31.8391933,29.3501924 28.672367,28.9517518 28.5058307,29.0156774 C28.2294419,29.1951946 28.2993081,30.3909546 28.3546737,30.6606683 C28.4095999,30.8795917 32.2394956,30.1720311 32.5440066,30.1076676 L32.1015209,32.7872908" id="Fill-25"></path>
                        <path d="M41.0492223,32.383158 L39.3210236,29.7972342 C39.0582566,29.3725226 38.7818678,28.9609465 38.878538,28.5870253 C38.9615864,28.2529481 40.731529,27.4030872 40.8971865,26.2708151 C40.9802349,25.6403155 39.3618887,24.2637248 37.9795056,23.2860126 C37.2887534,22.7903699 35.6849077,23.0027257 35.2019963,23.0027257 L32.9552941,23.0027257 C32.9829769,24.8548181 32.9974775,25.9113428 33.0106598,27.7507377 C33.0247209,29.7065998 33.0519643,30.8261744 33.0519643,32.7754689 L34.8574991,32.7754689 L36.1273933,32.7754689 L36.0298444,32.2036408 C35.9191131,31.4698094 35.9336136,31.1996578 35.8501258,30.323964 C35.8365041,29.9386587 35.7956389,29.4101775 35.9744787,29.33443 C36.1682584,29.2306602 36.3892816,29.6934644 36.554939,29.963616 L38.3806867,32.8385188 L41.0492223,32.383158 L41.0492223,32.383158 Z M37.6618123,26.3741469 C37.675434,26.9275855 36.2930508,28.0979503 35.6436032,28.04716 C35.4783851,28.04716 35.3540321,25.086877 35.5328719,24.9979941 C36.0298444,24.726529 37.6481906,25.7817401 37.6618123,26.3741469 L37.6618123,26.3741469 Z" id="Fill-27"></path>
                        <path d="M49.6427594,32.7794095 C56.9299312,32.7794095 56.9299312,22.8700581 49.6427594,22.8700581 C42.5353062,22.8700581 42.5353062,32.7794095 49.6427594,32.7794095 L49.6427594,32.7794095 Z M52.3530389,27.9276278 C52.2836121,29.2017623 51.0668865,30.1418197 49.6840639,30.103727 C48.3016807,30.0511854 47.1811858,28.9828389 47.2365514,27.6955689 C47.2642342,26.4345698 48.3983509,25.4813771 49.7389901,25.4555441 C51.1771783,25.4419709 52.4356479,26.5746808 52.3530389,27.9276278 L52.3530389,27.9276278 Z" id="Fill-29"></path>
                        <path d="M65.161834,28.153119 C65.161834,29.9399722 65.1890774,30.9820479 65.2725652,32.7741553 L61.9400815,32.7741553 C61.9537032,32.371774 61.9673249,31.7793671 61.7177401,31.753972 C61.4822165,31.7412745 60.7466445,32.5631131 60.4829986,32.8004262 C59.5259641,32.7255543 58.9433068,32.6874617 58.017031,32.460657 C57.174243,32.2811397 56.7321968,32.0359454 55.8894088,31.753972 C55.9043487,29.915015 55.8894088,28.8217112 55.8213003,26.9827542 C55.7654952,25.593028 55.7101296,24.7957088 55.61302,23.4077341 L59.1379653,22.9830226 L59.0535986,23.6778856 C58.8730012,24.963842 58.8457578,25.7357661 58.818075,27.009025 C58.7903922,27.9591528 58.8321361,28.5252889 58.9292457,29.4771681 C59.3734889,29.7735904 59.7061221,29.9281504 60.2751578,30.0301687 C60.8714369,30.120803 61.6623745,30.3384129 61.8425325,29.915015 C61.9673249,29.6190305 61.9537032,29.2845154 61.9537032,28.8860747 L61.9119592,23.2269033 L65.3147486,23.0473861 C65.2171996,25.0146323 65.161834,26.1591641 65.161834,28.153119" id="Fill-30"></path>
                        <path d="M74.1837956,24.1284301 C74.1011866,24.7330967 74.0458209,25.0921312 74.0036376,25.7094953 L73.3265071,25.5680708 C73.1885324,25.5299781 71.9436845,25.3885535 71.8606361,25.5431135 C71.7226614,25.8382223 71.5433822,27.9867371 71.8478932,32.1265798 L71.9028194,32.8004262 L68.4929995,32.8004262 L68.4929995,32.0884871 C68.4929995,29.5678024 68.5756086,25.7094953 68.2996592,25.5680708 C68.0368922,25.4524792 67.1378598,25.5680708 66.4330465,25.6455697 L65.8249033,25.7094953 L66.1702794,22.9712007 C68.3269026,23.1126253 70.3978409,23.0092934 73.1195451,22.9712007 C73.575213,22.9712007 73.8933457,22.9199726 74.3920758,22.8678688 C74.2809052,23.356506 74.2391612,23.6397929 74.1837956,24.1284301" id="Fill-31"></path>
                        <path d="M79.6149005,25.6924193 C78.9096478,25.5890874 77.8867018,25.4476629 77.7755311,25.5378593 C77.5408863,25.7948755 77.6098737,26.5667996 77.6793004,27.0440527 C77.734666,27.3273397 81.4538304,26.8369511 81.3158557,27.0046465 L81.2191856,29.2437956 C81.0671498,29.2700665 78.4122359,29.0117368 78.2742612,29.0774138 C77.983372,29.2306602 78.1077249,31.4960802 78.2742612,32.3455032 L78.3568703,32.8004262 C77.6793004,32.8004262 77.291741,32.7872908 76.6141711,32.7741553 C76.0064674,32.7623335 75.6470302,32.7623335 75.0380082,32.7505116 L75.0380082,27.3391616 C74.9826426,25.6530131 74.9549598,24.6753009 74.8995941,22.9777684 C75.8807962,23.0027257 76.475757,23.0027257 77.471899,23.0027257 C79.1579143,23.0027257 80.1123124,22.9895903 81.7996459,22.9252268 L82.0347301,26.2077651 C81.1225154,25.9363 80.5552374,25.8080109 79.6149005,25.6924193" id="Fill-32"></path>
                        <path d="M82.6064023,32.780723 C82.8006214,30.7434213 82.8419259,29.5467857 82.8006214,27.5134246 C82.7588775,25.7121224 82.675829,24.6569113 82.4684276,22.8678688 L85.9112032,22.8678688 C85.7455457,24.7344102 85.7038018,25.8408494 85.7455457,27.6929419 C85.7591674,29.6238468 85.8426553,30.7552432 86.1049829,32.6563745 L82.6064023,32.780723" id="Fill-33"></path>
                        <path d="M94.8813145,24.1284301 C94.798266,24.7330967 94.7429004,25.0921312 94.7020353,25.7094953 L94.0244654,25.5680708 C93.8856119,25.5299781 92.6416428,25.3885535 92.5590338,25.5431135 C92.4206197,25.8382223 92.2409011,27.9867371 92.5445333,32.1265798 L92.5998989,32.8004262 L89.1909578,32.8004262 L89.1909578,32.0884871 C89.1909578,29.5678024 89.2735669,25.7094953 88.9976175,25.5680708 C88.7339717,25.4524792 87.8358181,25.5680708 87.130126,25.6455697 L86.5219828,25.7094953 L86.8673589,22.9712007 C89.0244215,23.1126253 91.0953598,23.0092934 93.817064,22.9712007 C94.2736108,22.9712007 94.591304,22.9199726 95.0882765,22.8678688 C94.978424,23.356506 94.9366801,23.6397929 94.8813145,24.1284301" id="Fill-34"></path>
                        <path d="M103.937111,24.1284301 C103.853623,24.7330967 103.798257,25.0921312 103.756953,25.7094953 L103.079383,25.5680708 C102.940969,25.5299781 101.69656,25.3885535 101.613951,25.5431135 C101.475976,25.8382223 101.295818,27.9867371 101.59989,32.1265798 L101.655256,32.8004262 L98.2458752,32.8004262 L98.2458752,32.0884871 C98.2458752,29.5678024 98.3284842,25.7094953 98.0520955,25.5680708 C97.7893284,25.4524792 96.8907354,25.5680708 96.1854827,25.6455697 L95.5773396,25.7094953 L95.9235945,22.9712007 C98.0802177,23.1126253 100.151156,23.0092934 102.871981,22.9712007 C103.327649,22.9712007 103.646221,22.9199726 104.144512,22.8678688 C104.033341,23.356506 103.991597,23.6397929 103.937111,24.1284301" id="Fill-35"></path>
                        <path d="M111.781893,32.7872908 C110.551985,32.7872908 109.818611,32.7623335 108.587824,32.7623335 C107.163697,32.7623335 106.347713,32.7872908 104.923586,32.8004262 C105.047939,30.6869391 105.062,29.4522108 105.006634,27.3444157 C104.978951,25.5825197 104.909964,24.5417576 104.757928,22.7798616 C105.766813,22.8573605 106.375396,22.8818799 107.412842,22.8818799 C108.712616,22.8818799 109.486856,22.8437872 110.773009,22.7154981 L112.086404,25.5825197 C111.173311,25.3635963 110.633716,25.2484425 109.680196,25.1709436 C108.961322,25.1065801 107.841267,24.978291 107.785901,25.1197155 C107.702852,25.3255036 107.730535,26.4949927 107.785901,26.9328396 C107.799523,27.2143752 111.781893,26.61146 111.643479,26.7914151 L111.671602,29.3366192 C111.519566,29.3501924 108.35274,28.9517518 108.187082,29.0156774 C107.910693,29.1951946 107.979241,30.3909546 108.035046,30.6606683 C108.090412,30.8795917 111.920747,30.1720311 112.224379,30.1076676 L111.781893,32.7872908" id="Fill-36"></path>
                        <path d="M121.169005,32.1791214 L119.440367,29.5923218 C119.177599,29.1676103 118.901211,28.7560342 118.997881,28.3838643 C119.081369,28.0484736 120.850872,27.1990505 121.016529,26.0663406 C121.099578,25.4371545 119.48211,24.0592503 118.099288,23.0811003 C117.407657,22.5858954 115.804251,22.7982512 115.321779,22.7982512 L113.075076,22.7982512 C113.10232,24.6516572 113.11682,25.7068682 113.130442,27.5475767 C113.144064,29.5021253 113.171747,30.6216999 113.171747,32.5723079 L114.977281,32.5723079 L116.246297,32.5723079 L116.149627,31.9996041 C116.038895,31.2653349 116.052957,30.9951833 115.969908,30.120803 C115.955847,29.7341842 115.914982,29.2070165 116.094261,29.1299554 C116.288041,29.0261857 116.509064,29.4903035 116.675161,29.760455 L118.500469,32.6340443 L121.169005,32.1791214 L121.169005,32.1791214 Z M117.781595,26.1696724 C117.794777,26.7231109 116.412833,27.8952271 115.763385,27.8422477 C115.597728,27.8422477 115.474254,24.8824025 115.652215,24.7935196 C116.149627,24.5220545 117.767973,25.5785791 117.781595,26.1696724 L117.781595,26.1696724 Z" id="Fill-37"></path>
                        <path d="M126.757858,24.3688081 C126.122032,24.5877315 125.569254,25.1407322 125.52795,25.5785791 C125.292426,27.6771794 127.435427,28.3208143 126.951637,30.0341093 C126.661627,30.9873021 126.010861,31.6953005 125.320548,32.2877074 L124.726027,32.780723 C124.130627,32.5696808 123.798872,32.4422674 123.204351,32.2351658 C122.416489,31.9523167 121.960821,31.7977567 121.17208,31.5407406 L121.932259,31.3218171 C123.148985,30.9741667 123.467118,30.2911255 123.564227,29.5962624 C123.812933,27.8961028 121.766162,27.4074657 122.001686,26.0545187 C122.180965,24.883716 122.858975,24.3294018 123.619593,23.3643872 L124.034396,22.8494793 L127.546598,24.0855211 L126.757858,24.3688081" id="Fill-38"></path>
                    </g>
                </g>
            </g>
        </g>
    </g>
</svg>