<svg xmlns="http://www.w3.org/2000/svg" width="91" height="104"><title>ICON</title><desc>Created with Sketch.</desc><g fill="none"><g><g><g><path fill="#fff" d="M23.8 93.85c1.17.37 2.55.5 3.92.36 2.66.1 4.2-2.94 7.07-1.9 2.1 1.47 4.62 2.34 7.4 1.83 2.45-.08 4-3 6.7-1.76 1.75 1.32 3.8 2.04 6.2 1.92 2.32.03 3.82-1.9 5.96-2.17 2.66-.08 4.16 2.4 6.86 2.16 2.7.26 4.54-1.3 6.73-2.13 1.03-.12 2.06.08 2.83.68 1.63 1.04 3.5 1.56 5.6 1.36.72.07 1.35-.1 1.94-.34V91.2c-1.63.75-3.54.98-5.23.22-1.85-1.56-4.55-2.12-6.95-1.2-1.9 1.28-4.5 2.27-6.8 1.24-1.64-1.04-3.3-2.04-5.5-1.68-2.44.04-3.77 2.55-6.47 2.1-2.1.17-3.26-1.74-5.14-2.02-2.8-.68-4.9 1-7.16 1.9-2.53.65-4.37-.9-6.43-1.78-2.7-.8-5.1.6-7.3 1.75-1.54.36-2.97.08-4.25-.5v2.62"/><path fill="#fff" d="M24.05 98.37c1.1.44 2.38.68 3.37.5 2.6-.52 4.2-2.96 7.08-1.92 2.1 1.47 4.62 2.35 7.4 1.83 2.45-.08 4-3 6.7-1.75 1.75 1.3 3.8 2.03 6.2 1.9 2.33.05 3.83-1.86 5.97-2.14 2.66-.1 4.16 2.38 6.86 2.14 2.7.28 4.54-1.28 6.73-2.1 1.02-.13 2.05.07 2.82.66 1.63 1.04 3.52 1.56 5.62 1.36.8.07 1.54-.14 2.2-.44l-.03-2.68c-1.68.83-3.7 1.14-5.47.33-1.85-1.55-4.54-2.1-6.95-1.2-1.88 1.28-4.5 2.28-6.8 1.24-1.64-1.03-3.3-2.02-5.5-1.66-2.44.04-3.77 2.55-6.47 2.1-2.1.17-3.25-1.75-5.14-2.02-2.8-.68-4.9 1-7.16 1.9-2.53.65-4.37-.9-6.43-1.8-2.7-.78-5.1.6-7.28 1.77-1.36.3-2.63.12-3.78-.32l.05 2.3"/><path fill="#fff" d="M12.44 103.33c.45.02.9 0 1.4-.05 2.64.08 4.2-2.95 7.06-1.92 2.1 1.48 4.63 2.36 7.4 1.84 2.46-.08 4-3 6.7-1.76 1.76 1.32 3.8 2.04 6.2 1.92 2.33.04 3.83-1.88 5.97-2.16 2.66-.08 4.16 2.4 6.86 2.16 2.7.28 4.54-1.28 6.73-2.12 1.03-.12 2.06.08 2.83.68 1.62 1.04 3.5 1.56 5.6 1.36 2.83.24 4.37-3 7.37-1.92 2.06 1.48 4.55 2.36 7.33 1.84.36 0 .7-.08 1.03-.2v-2.68c-1.6.7-3.5.9-5.14.17-1.86-1.57-4.77-2.25-7.08-1.17-1.85 1.4-4.55 2.2-6.82 1.16-1.84-1.57-4.54-2.12-6.94-1.2-1.9 1.27-4.5 2.26-6.82 1.23-1.62-1.04-3.3-2.04-5.48-1.68-2.45.04-3.77 2.55-6.47 2.12-2.1.15-3.27-1.76-5.16-2.04-2.78-.68-4.88 1-7.15 1.92-2.54.63-4.4-.92-6.44-1.8-2.7-.8-5.1.6-7.3 1.76-.6.14-1.17.18-1.73.15v2.38"/><path stroke="#fff" stroke-width="4.159" d="M26.86 37.06C31 59 50.14 64.84 70.34 62.2c5.42-.7 10.46-2.3 14.93-4.58v.02C78.38 65.3 67.93 70.87 55.7 72.47c-12.53 1.64-24.5-1.23-33.46-7.12"/><path stroke="#fff" stroke-width="5" d="M10.8 53.42c-1.76-3.1-2.96-6.46-3.5-10.04C4.55 25.2 19.86 7.88 41.8 3.56h.04C33.67 8.8 27.97 16.5 26.2 25"/><path fill="#fff" d="M22.7 49.7c0-.68-.6-1.24-1.32-1.24-.73 0-1.33.56-1.33 1.24 0 .68.6 1.24 1.33 1.24.73 0 1.33-.56 1.33-1.24zm4.1-2.58c-.14.33-.62.62-.9.92-.4.47-.7 1.08-.9 1.57l.06.1c.98-.23 1.36-1.84 2.43-1.23 1.43 2-.88 3.62-1.56 5.5-1.66 2.2-4.28 4.5-4.34 7.23.44 1.36 1.27 2.98.77 4.45-1.03 1.13-2.47-.34-3.7.62-1.2 1.6-1.5 3.58-1.66 5.23-.17 1.84 1.88 3.2 1.13 5-.33.2-.76-.1-1.04.28-.68.97-.93 1.98-.55 3.07.4 1.4 1.94 1.85 2.97 2.67 1.95.9 4.03 1.96 5.6 3.43.45.6.83 1.4.53 2.06-1.2 1-2.94 1.24-4.37 1.97-2.8 1.37-4.5 3.78-5.93 6.16-.27.2-.52.4-.88.35-2-.95-1.44-3.16-1.97-4.78-.52-3.1.36-5.43.25-8.42 0-1.05-.73-2.22-1.73-2.85-.42-.26-.8-.44-1.22-.63-.3.26-.72.6-1.2.46-.36-.08-.78-.23-.84-.6-.08-1.5.96-2.28.4-3.8-.45-1.84-1.08-3.65-1.7-5.5l-.3-.37c-.48.4-1.2.58-1.78.4-.88-.66-.63-1.78-.94-2.68-.57-1.75-1.73-3.24-2.68-4.9-.1-.24.08-.5.2-.7.9-.6 2.04-.65 3.04-1.04 1.84-.52 1.2.1 1.94-1.3 2.63-3.66 5.1-7.86 9.42-10.18 3.26-1.88 6.75-3.12 10.57-3 .3.1.73.18.88.52z"/><path fill="#fff" d="M22.12 27.57c0-.68-.6-1.24-1.33-1.24-.74 0-1.34.56-1.34 1.24 0 .68.6 1.24 1.33 1.24.72 0 1.32-.55 1.32-1.23zm12-.98c2.93 1.24 5.56 2.9 8.33 4.35 1.34.66 2.6.1 3.98 0 .74-.14 1.7-.42 2.25.2l.16.5c-.25 2.7-.65 5.44.48 7.87.07.43 0 .85-.23 1.18-.47.3-1.24.45-1.92.3-.24.88.14 1.7.22 2.53.6 2.23.38 4.78 2.2 6.46.55.5.83.76 1.05 1.43-.25.86-1.05 1.46-1.76 1.93l-.5.05c-1.64 6.35-7.6 11.06-12.85 13.95 3-3.25 5.82-6.52 7.42-10.54.35-1.14.64-2.7-.5-3.56-1.3-.9-2.83-.65-4.26-1.03-1.67-1.58.14-4.14-1.55-5.74-1.03-1.16-2.06-2.73-3.74-3.5-1.17-.16-2.05.5-2.92 1.1-.36.12-.96 1.83-2.4.42-1.1-1.1-.08-3.58-.27-5.2-1.44-2.9-5.75-3.93-8.64-5.65-1.5-1.46-4.26-1.92-3.85-4.38.22-.25.33-.42.7-.42.8.05 1.56.65 2.4.53-.66-.9-1.84-1.43-3-1.6-.3-.32.03-.62.2-.86 4.66-2.74 11.08-2.48 16.5-1.24l2.5.93z"/><path fill="#fff" d="M60.06 49.42c0-.68-.6-1.24-1.33-1.24-.73 0-1.33.56-1.33 1.24 0 .68.6 1.24 1.33 1.24.73 0 1.33-.56 1.33-1.24zm11.17 5.46c2.08 2.7 3.32 5.67 5.3 8.42 1.28.7 2.65 1.24 4.03 1.68.4.2.62.54.7.92l-.18.56c-1.7 2.08-3.57 4.27-3.9 6.83-.17.3-.3.68-.68.86-.7.1-1.5-.1-2-.6-.93 1.07-1.1 2.32-1.7 3.53-.92 1.85-1.93 4.04-1.02 5.95.08.56.12 1.2-.5 1.5-.93.22-1.7.7-2.57.22-5.52 2.2-10.95 3.9-16.78 2.65l-.1-.06c1.7-1.32 2.27-3.4 2.9-5.36-.03-2.64 2.1-4.72 3.96-6.48-.2 2.6-.32 5.53 2.06 7.74 1.18-.67 1.5-1.97 1.6-3.05l-1.7-1.28c-.3-1.43.68-2.74 1.6-3.92.35-1.55.17-2.54-.12-4.13-.25-.9-.4-2.45-1.63-2.86-1.23-.62-2.56.7-3.4-.74-.25-1.64.58-3.2 1.3-4.64.37-1.43-.5-2.87-1.17-4.27l-3.02-4.6c-.42-1.75-2.66-3.92-.97-5.7 1.17-.76 1.56 1.18 2.6 1.5-.05-1.05-.77-2.07-1.67-2.86-.05-.27.2-.4.37-.5.95-.27 1.73-.02 2.7.05 6.6 1.27 9.6 2.72 14 8.63z"/></g></g></g></g></svg>