<svg xmlns="http://www.w3.org/2000/svg" width="119" height="26"><title>solid</title><desc>Created with Sketch.</desc><g fill="none"><path fill="#665F5A" d="M12.44 12.52h-.72V9.74h.78c1.06 0 1.62.47 1.62 1.36 0 .98-.62 1.42-1.68 1.42zm6.72 3.4c-.87 0-1.36-.8-1.36-1.9 0-1.13.48-1.92 1.36-1.92.9 0 1.4.8 1.4 1.9 0 1.13-.48 1.92-1.4 1.92zm15.37-4c.73 0 1.1.5 1.2 1.45h-2.4c.1-.97.6-1.46 1.2-1.46zm10.9 0c.73 0 1.1.5 1.2 1.45h-2.4c.12-.97.6-1.46 1.2-1.46zm6.34 3.88c-.65 0-1.15-.54-1.15-1.7 0-1.33.57-1.97 1.35-1.97.52 0 .8.1 1.17.27v2.58c-.4.5-.82.82-1.37.82zm9.74.07c-.4 0-.62-.05-.94-.16v-2.72c.38-.45.82-.78 1.32-.78.67 0 1.15.57 1.15 1.73 0 1.37-.58 1.94-1.52 1.94zm37.7.37c-.24 0-.47-.05-.67-.15v-3.8c.43-.46.82-.5.96-.5.64 0 .95.7.95 2.05 0 .78-.1 1.4-.34 1.8-.2.4-.52.6-.9.6zm8.3-4.66c.58 0 .88.7.92 1.82h-1.88c.08-1.14.38-1.83.97-1.83zm2.5-.64c-.56-.72-1.4-1.1-2.45-1.1-2.16 0-3.5 1.6-3.5 4.18 0 1.43.35 2.5 1.06 3.2.65.6 1.56.92 2.74.92 1.08 0 2.1-.26 2.72-.68l-.27-1.74c-.64.34-1.37.52-2.2.52-.48 0-.82-.1-1.06-.3-.27-.24-.42-.45-.47-.98h4.2c.02-.12.04-.7.04-.88 0-1.27-.27-2.43-.8-3.14zm-7.78-.22c-.45-.58-1.08-.87-1.88-.87-.74 0-1.38.3-2 .96l-.12-.8h-2.24v10.97l2.55-.42v-2.6c.4.13.8.2 1.14.2.64 0 1.56-.17 2.28-.95.7-.75 1.04-1.9 1.04-3.44 0-1.35-.27-2.38-.78-3.04zm-8.7-4.47c-.75 0-1.34.6-1.34 1.34 0 .73.6 1.34 1.34 1.34.74 0 1.34-.6 1.34-1.35 0-.76-.6-1.35-1.34-1.35zm-2.24 3.7c-.17-.03-.33-.05-.48-.05-.72 0-1.17.37-1.4 1.05l-.15-.94h-2.22v8h2.54v-5.2c.32-.38.64-.52 1.26-.52.13 0 .28 0 .45.03V9.97zm-6.68.06V7.7l-2.18.37L82.1 10l-.77.13-.38 1.76h1.15v3.7c0 .96.25 1.63.75 2.04.42.34 1.02.5 1.88.5.65 0 1.05-.1 1.33-.18v-2c-.16.04-.5.1-.74.1-.5 0-.72-.25-.72-.83V11.9h1.32l.3-1.9H84.6zm-6.63 1.73c.77 0 1.38.3 1.92.56l.3-1.9c-.43-.2-1.13-.55-2.35-.55-.86 0-1.58.23-2.1.65-.53.44-.8 1.07-.8 1.85 0 1.4.85 1.98 2.23 2.5.9.3 1.2.53 1.2.88 0 .34-.3.53-.82.53-.64 0-1.7-.3-2.4-.73l-.3 1.92c.58.34 1.7.7 2.84.7.9 0 1.67-.22 2.18-.64.58-.44.87-1.1.87-1.97 0-1.42-.87-2-2.27-2.52-.75-.27-1.16-.48-1.16-.82 0-.3.23-.45.65-.45zM69.5 11l-1.33 4.18-1.4-4.27-1.55.2 2.18 5.94-.1.24c-.22.56-.57.76-1.05.76-.26 0-.47-.03-.66-.08l.2 1.25c.13.05.28.07.6.07 1.08 0 1.78-.43 2.3-1.87L71 11h-1.5zm-7.23-.12c-.76 0-1.32.4-1.7.8V8.02l-1.5.24v8.42c.75.24 1.53.4 2.46.4 1.8 0 3-1.05 3-3.26 0-2.02-1-2.96-2.26-2.96zm-7.63-2.85l-1.5.24v2.9c-.36-.13-.82-.23-1.4-.23-1.38 0-2.62 1-2.62 3.24 0 2.02 1 2.96 2.27 2.96.82 0 1.4-.45 1.83-.96l.13.83h1.28V8.04zm-9.16 2.85c-1.57 0-2.74 1.18-2.74 3.13 0 2.18 1.26 3.14 2.93 3.14.98 0 1.76-.3 2.4-.74l-.17-1.17c-.66.46-1.3.75-2.06.75-.92 0-1.56-.5-1.63-1.68h3.88c0-.1 0-.24 0-.36 0-1.7-.8-3.06-2.6-3.06zm-3.58 0c-.93.05-1.53.63-1.93 1.33L39.8 11H38.5v6h1.5v-3.44c.42-.64 1.2-1.14 2.12-1.2l-.24-1.48zm-7.33 0c-1.57 0-2.73 1.18-2.73 3.13 0 2.18 1.25 3.14 2.93 3.14.97 0 1.76-.3 2.4-.74L37 15.23c-.66.46-1.3.75-2.07.75-.92 0-1.55-.5-1.63-1.68h3.87c0-.1.02-.24.02-.36-.02-1.7-.82-3.06-2.63-3.06zm-4.8.12l-1.04 3.97L27.65 11h-1.32l-1.08 3.98-1.06-4.07-1.53.2 1.8 5.92h1.36l1.1-3.96 1.1 3.96h1.36L31.17 11h-1.42zm-10.6-.12c-1.63 0-2.82 1.18-2.82 3.13 0 1.97 1.18 3.14 2.8 3.14 1.65 0 2.86-1.17 2.86-3.13 0-1.94-1.18-3.12-2.83-3.12zM12.6 8.43h-2.53V17h1.65v-3.15h.73c1.97 0 3.3-.93 3.3-2.8 0-1.7-1.2-2.62-3.16-2.62zM92.23 18h2.55v-8h-2.56v8zM113 26H6c-3.3 0-6-2.68-6-6V6c0-3.3 2.7-6 6-6h107c3.3 0 6 2.7 6 6v14c0 3.32-2.7 6-6 6z"/></g></svg>